<?xml version="1.0" encoding="utf-8" standalone="no"?>
<!DOCTYPE svg PUBLIC "-//W3C//DTD SVG 1.1//EN"
  "http://www.w3.org/Graphics/SVG/1.1/DTD/svg11.dtd">
<svg xmlns:xlink="http://www.w3.org/1999/xlink" width="344.373754pt" height="393.563281pt" viewBox="0 0 344.373754 393.563281" xmlns="http://www.w3.org/2000/svg" version="1.1">
 <metadata>
  <rdf:RDF xmlns:dc="http://purl.org/dc/elements/1.1/" xmlns:cc="http://creativecommons.org/ns#" xmlns:rdf="http://www.w3.org/1999/02/22-rdf-syntax-ns#">
   <cc:Work>
    <dc:type rdf:resource="http://purl.org/dc/dcmitype/StillImage"/>
    <dc:date>2024-12-19T19:53:17.254493</dc:date>
    <dc:format>image/svg+xml</dc:format>
    <dc:creator>
     <cc:Agent>
      <dc:title>Matplotlib v3.10.0, https://matplotlib.org/</dc:title>
     </cc:Agent>
    </dc:creator>
   </cc:Work>
  </rdf:RDF>
 </metadata>
 <defs>
  <style type="text/css">*{stroke-linejoin: round; stroke-linecap: butt}</style>
 </defs>
 <g id="figure_1">
  <g id="patch_1">
   <path d="M 0 393.563281 
L 344.373754 393.563281 
L 344.373754 0 
L 0 0 
z
" style="fill: #ffffff"/>
  </g>
  <g id="axes_1">
   <g id="patch_2">
    <path d="M 53.74125 348.072031 
L 337.173754 348.072031 
L 337.173754 48.372031 
L 53.74125 48.372031 
z
" style="fill: #ffffff"/>
   </g>
   <g id="matplotlib.axis_1">
    <g id="xtick_1">
     <g id="line2d_1">
      <path d="M 66.624546 348.072031 
L 66.624546 48.372031 
" clip-path="url(#p117856cbbe)" style="fill: none; stroke: #cccccc; stroke-linecap: round"/>
     </g>
     <g id="text_1">
      <!-- $\mathdefault{10^{2}}$ -->
      <g style="fill: #262626" transform="translate(57.989546 368.915781) scale(0.11 -0.11)">
       <defs>
        <path id="ArialMT-31" d="M 2384 0 
L 1822 0 
L 1822 3584 
Q 1619 3391 1289 3197 
Q 959 3003 697 2906 
L 697 3450 
Q 1169 3672 1522 3987 
Q 1875 4303 2022 4600 
L 2384 4600 
L 2384 0 
z
" transform="scale(0.015625)"/>
        <path id="ArialMT-30" d="M 266 2259 
Q 266 3072 433 3567 
Q 600 4063 929 4331 
Q 1259 4600 1759 4600 
Q 2128 4600 2406 4451 
Q 2684 4303 2865 4023 
Q 3047 3744 3150 3342 
Q 3253 2941 3253 2259 
Q 3253 1453 3087 958 
Q 2922 463 2592 192 
Q 2263 -78 1759 -78 
Q 1097 -78 719 397 
Q 266 969 266 2259 
z
M 844 2259 
Q 844 1131 1108 757 
Q 1372 384 1759 384 
Q 2147 384 2411 759 
Q 2675 1134 2675 2259 
Q 2675 3391 2411 3762 
Q 2147 4134 1753 4134 
Q 1366 4134 1134 3806 
Q 844 3388 844 2259 
z
" transform="scale(0.015625)"/>
        <path id="ArialMT-32" d="M 3222 541 
L 3222 0 
L 194 0 
Q 188 203 259 391 
Q 375 700 629 1000 
Q 884 1300 1366 1694 
Q 2113 2306 2375 2664 
Q 2638 3022 2638 3341 
Q 2638 3675 2398 3904 
Q 2159 4134 1775 4134 
Q 1369 4134 1125 3890 
Q 881 3647 878 3216 
L 300 3275 
Q 359 3922 746 4261 
Q 1134 4600 1788 4600 
Q 2447 4600 2831 4234 
Q 3216 3869 3216 3328 
Q 3216 3053 3103 2787 
Q 2991 2522 2730 2228 
Q 2469 1934 1863 1422 
Q 1356 997 1212 845 
Q 1069 694 975 541 
L 3222 541 
z
" transform="scale(0.015625)"/>
       </defs>
       <use xlink:href="#ArialMT-31" transform="translate(0 0.99375)"/>
       <use xlink:href="#ArialMT-30" transform="translate(55.615234 0.99375)"/>
       <use xlink:href="#ArialMT-32" transform="translate(112.972813 70.6875) scale(0.7)"/>
      </g>
     </g>
    </g>
    <g id="xtick_2">
     <g id="line2d_2">
      <path d="M 152.800529 348.072031 
L 152.800529 48.372031 
" clip-path="url(#p117856cbbe)" style="fill: none; stroke: #cccccc; stroke-linecap: round"/>
     </g>
     <g id="text_2">
      <!-- $\mathdefault{10^{3}}$ -->
      <g style="fill: #262626" transform="translate(144.165529 368.915781) scale(0.11 -0.11)">
       <defs>
        <path id="ArialMT-33" d="M 269 1209 
L 831 1284 
Q 928 806 1161 595 
Q 1394 384 1728 384 
Q 2125 384 2398 659 
Q 2672 934 2672 1341 
Q 2672 1728 2419 1979 
Q 2166 2231 1775 2231 
Q 1616 2231 1378 2169 
L 1441 2663 
Q 1497 2656 1531 2656 
Q 1891 2656 2178 2843 
Q 2466 3031 2466 3422 
Q 2466 3731 2256 3934 
Q 2047 4138 1716 4138 
Q 1388 4138 1169 3931 
Q 950 3725 888 3313 
L 325 3413 
Q 428 3978 793 4289 
Q 1159 4600 1703 4600 
Q 2078 4600 2393 4439 
Q 2709 4278 2876 4000 
Q 3044 3722 3044 3409 
Q 3044 3113 2884 2869 
Q 2725 2625 2413 2481 
Q 2819 2388 3044 2092 
Q 3269 1797 3269 1353 
Q 3269 753 2831 336 
Q 2394 -81 1725 -81 
Q 1122 -81 723 278 
Q 325 638 269 1209 
z
" transform="scale(0.015625)"/>
       </defs>
       <use xlink:href="#ArialMT-31" transform="translate(0 0.99375)"/>
       <use xlink:href="#ArialMT-30" transform="translate(55.615234 0.99375)"/>
       <use xlink:href="#ArialMT-33" transform="translate(112.972813 70.6875) scale(0.7)"/>
      </g>
     </g>
    </g>
    <g id="xtick_3">
     <g id="line2d_3">
      <path d="M 238.976511 348.072031 
L 238.976511 48.372031 
" clip-path="url(#p117856cbbe)" style="fill: none; stroke: #cccccc; stroke-linecap: round"/>
     </g>
     <g id="text_3">
      <!-- $\mathdefault{10^{4}}$ -->
      <g style="fill: #262626" transform="translate(230.341511 368.805781) scale(0.11 -0.11)">
       <defs>
        <path id="ArialMT-34" d="M 2069 0 
L 2069 1097 
L 81 1097 
L 81 1613 
L 2172 4581 
L 2631 4581 
L 2631 1613 
L 3250 1613 
L 3250 1097 
L 2631 1097 
L 2631 0 
L 2069 0 
z
M 2069 1613 
L 2069 3678 
L 634 1613 
L 2069 1613 
z
" transform="scale(0.015625)"/>
       </defs>
       <use xlink:href="#ArialMT-31" transform="translate(0 0.201563)"/>
       <use xlink:href="#ArialMT-30" transform="translate(55.615234 0.201563)"/>
       <use xlink:href="#ArialMT-34" transform="translate(112.972813 69.895313) scale(0.7)"/>
      </g>
     </g>
    </g>
    <g id="xtick_4">
     <g id="line2d_4">
      <path d="M 325.152494 348.072031 
L 325.152494 48.372031 
" clip-path="url(#p117856cbbe)" style="fill: none; stroke: #cccccc; stroke-linecap: round"/>
     </g>
     <g id="text_4">
      <!-- $\mathdefault{10^{5}}$ -->
      <g style="fill: #262626" transform="translate(316.517494 368.805781) scale(0.11 -0.11)">
       <defs>
        <path id="ArialMT-35" d="M 266 1200 
L 856 1250 
Q 922 819 1161 601 
Q 1400 384 1738 384 
Q 2144 384 2425 690 
Q 2706 997 2706 1503 
Q 2706 1984 2436 2262 
Q 2166 2541 1728 2541 
Q 1456 2541 1237 2417 
Q 1019 2294 894 2097 
L 366 2166 
L 809 4519 
L 3088 4519 
L 3088 3981 
L 1259 3981 
L 1013 2750 
Q 1425 3038 1878 3038 
Q 2478 3038 2890 2622 
Q 3303 2206 3303 1553 
Q 3303 931 2941 478 
Q 2500 -78 1738 -78 
Q 1113 -78 717 272 
Q 322 622 266 1200 
z
" transform="scale(0.015625)"/>
       </defs>
       <use xlink:href="#ArialMT-31" transform="translate(0 0.879688)"/>
       <use xlink:href="#ArialMT-30" transform="translate(55.615234 0.879688)"/>
       <use xlink:href="#ArialMT-35" transform="translate(112.972813 70.573438) scale(0.7)"/>
      </g>
     </g>
    </g>
    <g id="xtick_5"/>
    <g id="xtick_6"/>
    <g id="xtick_7"/>
    <g id="xtick_8"/>
    <g id="xtick_9"/>
    <g id="xtick_10"/>
    <g id="xtick_11"/>
    <g id="xtick_12"/>
    <g id="xtick_13"/>
    <g id="xtick_14"/>
    <g id="xtick_15"/>
    <g id="xtick_16"/>
    <g id="xtick_17"/>
    <g id="xtick_18"/>
    <g id="xtick_19"/>
    <g id="xtick_20"/>
    <g id="xtick_21"/>
    <g id="xtick_22"/>
    <g id="xtick_23"/>
    <g id="xtick_24"/>
    <g id="xtick_25"/>
    <g id="xtick_26"/>
    <g id="xtick_27"/>
    <g id="xtick_28"/>
    <g id="xtick_29"/>
    <g id="xtick_30"/>
    <g id="text_5">
     <!-- Length of Array -->
     <g style="fill: #262626" transform="translate(154.766252 383.837656) scale(0.12 -0.12)">
      <defs>
       <path id="ArialMT-4c" d="M 469 0 
L 469 4581 
L 1075 4581 
L 1075 541 
L 3331 541 
L 3331 0 
L 469 0 
z
" transform="scale(0.015625)"/>
       <path id="ArialMT-65" d="M 2694 1069 
L 3275 997 
Q 3138 488 2766 206 
Q 2394 -75 1816 -75 
Q 1088 -75 661 373 
Q 234 822 234 1631 
Q 234 2469 665 2931 
Q 1097 3394 1784 3394 
Q 2450 3394 2872 2941 
Q 3294 2488 3294 1666 
Q 3294 1616 3291 1516 
L 816 1516 
Q 847 969 1125 678 
Q 1403 388 1819 388 
Q 2128 388 2347 550 
Q 2566 713 2694 1069 
z
M 847 1978 
L 2700 1978 
Q 2663 2397 2488 2606 
Q 2219 2931 1791 2931 
Q 1403 2931 1139 2672 
Q 875 2413 847 1978 
z
" transform="scale(0.015625)"/>
       <path id="ArialMT-6e" d="M 422 0 
L 422 3319 
L 928 3319 
L 928 2847 
Q 1294 3394 1984 3394 
Q 2284 3394 2536 3286 
Q 2788 3178 2913 3003 
Q 3038 2828 3088 2588 
Q 3119 2431 3119 2041 
L 3119 0 
L 2556 0 
L 2556 2019 
Q 2556 2363 2490 2533 
Q 2425 2703 2258 2804 
Q 2091 2906 1866 2906 
Q 1506 2906 1245 2678 
Q 984 2450 984 1813 
L 984 0 
L 422 0 
z
" transform="scale(0.015625)"/>
       <path id="ArialMT-67" d="M 319 -275 
L 866 -356 
Q 900 -609 1056 -725 
Q 1266 -881 1628 -881 
Q 2019 -881 2231 -725 
Q 2444 -569 2519 -288 
Q 2563 -116 2559 434 
Q 2191 0 1641 0 
Q 956 0 581 494 
Q 206 988 206 1678 
Q 206 2153 378 2554 
Q 550 2956 876 3175 
Q 1203 3394 1644 3394 
Q 2231 3394 2613 2919 
L 2613 3319 
L 3131 3319 
L 3131 450 
Q 3131 -325 2973 -648 
Q 2816 -972 2473 -1159 
Q 2131 -1347 1631 -1347 
Q 1038 -1347 672 -1080 
Q 306 -813 319 -275 
z
M 784 1719 
Q 784 1066 1043 766 
Q 1303 466 1694 466 
Q 2081 466 2343 764 
Q 2606 1063 2606 1700 
Q 2606 2309 2336 2618 
Q 2066 2928 1684 2928 
Q 1309 2928 1046 2623 
Q 784 2319 784 1719 
z
" transform="scale(0.015625)"/>
       <path id="ArialMT-74" d="M 1650 503 
L 1731 6 
Q 1494 -44 1306 -44 
Q 1000 -44 831 53 
Q 663 150 594 308 
Q 525 466 525 972 
L 525 2881 
L 113 2881 
L 113 3319 
L 525 3319 
L 525 4141 
L 1084 4478 
L 1084 3319 
L 1650 3319 
L 1650 2881 
L 1084 2881 
L 1084 941 
Q 1084 700 1114 631 
Q 1144 563 1211 522 
Q 1278 481 1403 481 
Q 1497 481 1650 503 
z
" transform="scale(0.015625)"/>
       <path id="ArialMT-68" d="M 422 0 
L 422 4581 
L 984 4581 
L 984 2938 
Q 1378 3394 1978 3394 
Q 2347 3394 2619 3248 
Q 2891 3103 3008 2847 
Q 3125 2591 3125 2103 
L 3125 0 
L 2563 0 
L 2563 2103 
Q 2563 2525 2380 2717 
Q 2197 2909 1863 2909 
Q 1613 2909 1392 2779 
Q 1172 2650 1078 2428 
Q 984 2206 984 1816 
L 984 0 
L 422 0 
z
" transform="scale(0.015625)"/>
       <path id="ArialMT-20" transform="scale(0.015625)"/>
       <path id="ArialMT-6f" d="M 213 1659 
Q 213 2581 725 3025 
Q 1153 3394 1769 3394 
Q 2453 3394 2887 2945 
Q 3322 2497 3322 1706 
Q 3322 1066 3130 698 
Q 2938 331 2570 128 
Q 2203 -75 1769 -75 
Q 1072 -75 642 372 
Q 213 819 213 1659 
z
M 791 1659 
Q 791 1022 1069 705 
Q 1347 388 1769 388 
Q 2188 388 2466 706 
Q 2744 1025 2744 1678 
Q 2744 2294 2464 2611 
Q 2184 2928 1769 2928 
Q 1347 2928 1069 2612 
Q 791 2297 791 1659 
z
" transform="scale(0.015625)"/>
       <path id="ArialMT-66" d="M 556 0 
L 556 2881 
L 59 2881 
L 59 3319 
L 556 3319 
L 556 3672 
Q 556 4006 616 4169 
Q 697 4388 901 4523 
Q 1106 4659 1475 4659 
Q 1713 4659 2000 4603 
L 1916 4113 
Q 1741 4144 1584 4144 
Q 1328 4144 1222 4034 
Q 1116 3925 1116 3625 
L 1116 3319 
L 1763 3319 
L 1763 2881 
L 1116 2881 
L 1116 0 
L 556 0 
z
" transform="scale(0.015625)"/>
       <path id="ArialMT-41" d="M -9 0 
L 1750 4581 
L 2403 4581 
L 4278 0 
L 3588 0 
L 3053 1388 
L 1138 1388 
L 634 0 
L -9 0 
z
M 1313 1881 
L 2866 1881 
L 2388 3150 
Q 2169 3728 2063 4100 
Q 1975 3659 1816 3225 
L 1313 1881 
z
" transform="scale(0.015625)"/>
       <path id="ArialMT-72" d="M 416 0 
L 416 3319 
L 922 3319 
L 922 2816 
Q 1116 3169 1280 3281 
Q 1444 3394 1641 3394 
Q 1925 3394 2219 3213 
L 2025 2691 
Q 1819 2813 1613 2813 
Q 1428 2813 1281 2702 
Q 1134 2591 1072 2394 
Q 978 2094 978 1738 
L 978 0 
L 416 0 
z
" transform="scale(0.015625)"/>
       <path id="ArialMT-61" d="M 2588 409 
Q 2275 144 1986 34 
Q 1697 -75 1366 -75 
Q 819 -75 525 192 
Q 231 459 231 875 
Q 231 1119 342 1320 
Q 453 1522 633 1644 
Q 813 1766 1038 1828 
Q 1203 1872 1538 1913 
Q 2219 1994 2541 2106 
Q 2544 2222 2544 2253 
Q 2544 2597 2384 2738 
Q 2169 2928 1744 2928 
Q 1347 2928 1158 2789 
Q 969 2650 878 2297 
L 328 2372 
Q 403 2725 575 2942 
Q 747 3159 1072 3276 
Q 1397 3394 1825 3394 
Q 2250 3394 2515 3294 
Q 2781 3194 2906 3042 
Q 3031 2891 3081 2659 
Q 3109 2516 3109 2141 
L 3109 1391 
Q 3109 606 3145 398 
Q 3181 191 3288 0 
L 2700 0 
Q 2613 175 2588 409 
z
M 2541 1666 
Q 2234 1541 1622 1453 
Q 1275 1403 1131 1340 
Q 988 1278 909 1158 
Q 831 1038 831 891 
Q 831 666 1001 516 
Q 1172 366 1500 366 
Q 1825 366 2078 508 
Q 2331 650 2450 897 
Q 2541 1088 2541 1459 
L 2541 1666 
z
" transform="scale(0.015625)"/>
       <path id="ArialMT-79" d="M 397 -1278 
L 334 -750 
Q 519 -800 656 -800 
Q 844 -800 956 -737 
Q 1069 -675 1141 -563 
Q 1194 -478 1313 -144 
Q 1328 -97 1363 -6 
L 103 3319 
L 709 3319 
L 1400 1397 
Q 1534 1031 1641 628 
Q 1738 1016 1872 1384 
L 2581 3319 
L 3144 3319 
L 1881 -56 
Q 1678 -603 1566 -809 
Q 1416 -1088 1222 -1217 
Q 1028 -1347 759 -1347 
Q 597 -1347 397 -1278 
z
" transform="scale(0.015625)"/>
      </defs>
      <use xlink:href="#ArialMT-4c"/>
      <use xlink:href="#ArialMT-65" transform="translate(55.615234 0)"/>
      <use xlink:href="#ArialMT-6e" transform="translate(111.230469 0)"/>
      <use xlink:href="#ArialMT-67" transform="translate(166.845703 0)"/>
      <use xlink:href="#ArialMT-74" transform="translate(222.460938 0)"/>
      <use xlink:href="#ArialMT-68" transform="translate(250.244141 0)"/>
      <use xlink:href="#ArialMT-20" transform="translate(305.859375 0)"/>
      <use xlink:href="#ArialMT-6f" transform="translate(333.642578 0)"/>
      <use xlink:href="#ArialMT-66" transform="translate(389.257812 0)"/>
      <use xlink:href="#ArialMT-20" transform="translate(417.041016 0)"/>
      <use xlink:href="#ArialMT-41" transform="translate(439.324219 0)"/>
      <use xlink:href="#ArialMT-72" transform="translate(506.023438 0)"/>
      <use xlink:href="#ArialMT-72" transform="translate(539.324219 0)"/>
      <use xlink:href="#ArialMT-61" transform="translate(572.625 0)"/>
      <use xlink:href="#ArialMT-79" transform="translate(628.240234 0)"/>
     </g>
    </g>
   </g>
   <g id="matplotlib.axis_2">
    <g id="ytick_1">
     <g id="line2d_5">
      <path d="M 53.74125 283.856882 
L 337.173754 283.856882 
" clip-path="url(#p117856cbbe)" style="fill: none; stroke: #cccccc; stroke-linecap: round"/>
     </g>
     <g id="text_6">
      <!-- $\mathdefault{10^{-2}}$ -->
      <g style="fill: #262626" transform="translate(22.46125 289.528757) scale(0.11 -0.11)">
       <defs>
        <path id="ArialMT-2212" d="M 3381 1997 
L 356 1997 
L 356 2522 
L 3381 2522 
L 3381 1997 
z
" transform="scale(0.015625)"/>
       </defs>
       <use xlink:href="#ArialMT-31" transform="translate(0 0.99375)"/>
       <use xlink:href="#ArialMT-30" transform="translate(55.615234 0.99375)"/>
       <use xlink:href="#ArialMT-2212" transform="translate(112.972813 70.6875) scale(0.7)"/>
       <use xlink:href="#ArialMT-32" transform="translate(153.851719 70.6875) scale(0.7)"/>
      </g>
     </g>
    </g>
    <g id="ytick_2">
     <g id="line2d_6">
      <path d="M 53.74125 189.223888 
L 337.173754 189.223888 
" clip-path="url(#p117856cbbe)" style="fill: none; stroke: #cccccc; stroke-linecap: round"/>
     </g>
     <g id="text_7">
      <!-- $\mathdefault{10^{-1}}$ -->
      <g style="fill: #262626" transform="translate(22.46125 194.895763) scale(0.11 -0.11)">
       <use xlink:href="#ArialMT-31" transform="translate(0 0.99375)"/>
       <use xlink:href="#ArialMT-30" transform="translate(55.615234 0.99375)"/>
       <use xlink:href="#ArialMT-2212" transform="translate(112.972813 70.6875) scale(0.7)"/>
       <use xlink:href="#ArialMT-31" transform="translate(153.851719 70.6875) scale(0.7)"/>
      </g>
     </g>
    </g>
    <g id="ytick_3">
     <g id="line2d_7">
      <path d="M 53.74125 94.590893 
L 337.173754 94.590893 
" clip-path="url(#p117856cbbe)" style="fill: none; stroke: #cccccc; stroke-linecap: round"/>
     </g>
     <g id="text_8">
      <!-- $\mathdefault{10^{0}}$ -->
      <g style="fill: #262626" transform="translate(26.97125 100.262768) scale(0.11 -0.11)">
       <use xlink:href="#ArialMT-31" transform="translate(0 0.99375)"/>
       <use xlink:href="#ArialMT-30" transform="translate(55.615234 0.99375)"/>
       <use xlink:href="#ArialMT-30" transform="translate(112.972813 70.6875) scale(0.7)"/>
      </g>
     </g>
    </g>
    <g id="ytick_4"/>
    <g id="ytick_5"/>
    <g id="ytick_6"/>
    <g id="ytick_7"/>
    <g id="ytick_8"/>
    <g id="ytick_9"/>
    <g id="ytick_10"/>
    <g id="ytick_11"/>
    <g id="ytick_12"/>
    <g id="ytick_13"/>
    <g id="ytick_14"/>
    <g id="ytick_15"/>
    <g id="ytick_16"/>
    <g id="ytick_17"/>
    <g id="ytick_18"/>
    <g id="ytick_19"/>
    <g id="ytick_20"/>
    <g id="ytick_21"/>
    <g id="ytick_22"/>
    <g id="ytick_23"/>
    <g id="ytick_24"/>
    <g id="ytick_25"/>
    <g id="ytick_26"/>
    <g id="ytick_27"/>
    <g id="ytick_28"/>
    <g id="text_9">
     <!-- Execution Time (ms) -->
     <g style="fill: #262626" transform="translate(15.935625 252.899844) rotate(-90) scale(0.12 -0.12)">
      <defs>
       <path id="ArialMT-45" d="M 506 0 
L 506 4581 
L 3819 4581 
L 3819 4041 
L 1113 4041 
L 1113 2638 
L 3647 2638 
L 3647 2100 
L 1113 2100 
L 1113 541 
L 3925 541 
L 3925 0 
L 506 0 
z
" transform="scale(0.015625)"/>
       <path id="ArialMT-78" d="M 47 0 
L 1259 1725 
L 138 3319 
L 841 3319 
L 1350 2541 
Q 1494 2319 1581 2169 
Q 1719 2375 1834 2534 
L 2394 3319 
L 3066 3319 
L 1919 1756 
L 3153 0 
L 2463 0 
L 1781 1031 
L 1600 1309 
L 728 0 
L 47 0 
z
" transform="scale(0.015625)"/>
       <path id="ArialMT-63" d="M 2588 1216 
L 3141 1144 
Q 3050 572 2676 248 
Q 2303 -75 1759 -75 
Q 1078 -75 664 370 
Q 250 816 250 1647 
Q 250 2184 428 2587 
Q 606 2991 970 3192 
Q 1334 3394 1763 3394 
Q 2303 3394 2647 3120 
Q 2991 2847 3088 2344 
L 2541 2259 
Q 2463 2594 2264 2762 
Q 2066 2931 1784 2931 
Q 1359 2931 1093 2626 
Q 828 2322 828 1663 
Q 828 994 1084 691 
Q 1341 388 1753 388 
Q 2084 388 2306 591 
Q 2528 794 2588 1216 
z
" transform="scale(0.015625)"/>
       <path id="ArialMT-75" d="M 2597 0 
L 2597 488 
Q 2209 -75 1544 -75 
Q 1250 -75 995 37 
Q 741 150 617 320 
Q 494 491 444 738 
Q 409 903 409 1263 
L 409 3319 
L 972 3319 
L 972 1478 
Q 972 1038 1006 884 
Q 1059 663 1231 536 
Q 1403 409 1656 409 
Q 1909 409 2131 539 
Q 2353 669 2445 892 
Q 2538 1116 2538 1541 
L 2538 3319 
L 3100 3319 
L 3100 0 
L 2597 0 
z
" transform="scale(0.015625)"/>
       <path id="ArialMT-69" d="M 425 3934 
L 425 4581 
L 988 4581 
L 988 3934 
L 425 3934 
z
M 425 0 
L 425 3319 
L 988 3319 
L 988 0 
L 425 0 
z
" transform="scale(0.015625)"/>
       <path id="ArialMT-54" d="M 1659 0 
L 1659 4041 
L 150 4041 
L 150 4581 
L 3781 4581 
L 3781 4041 
L 2266 4041 
L 2266 0 
L 1659 0 
z
" transform="scale(0.015625)"/>
       <path id="ArialMT-6d" d="M 422 0 
L 422 3319 
L 925 3319 
L 925 2853 
Q 1081 3097 1340 3245 
Q 1600 3394 1931 3394 
Q 2300 3394 2536 3241 
Q 2772 3088 2869 2813 
Q 3263 3394 3894 3394 
Q 4388 3394 4653 3120 
Q 4919 2847 4919 2278 
L 4919 0 
L 4359 0 
L 4359 2091 
Q 4359 2428 4304 2576 
Q 4250 2725 4106 2815 
Q 3963 2906 3769 2906 
Q 3419 2906 3187 2673 
Q 2956 2441 2956 1928 
L 2956 0 
L 2394 0 
L 2394 2156 
Q 2394 2531 2256 2718 
Q 2119 2906 1806 2906 
Q 1569 2906 1367 2781 
Q 1166 2656 1075 2415 
Q 984 2175 984 1722 
L 984 0 
L 422 0 
z
" transform="scale(0.015625)"/>
       <path id="ArialMT-28" d="M 1497 -1347 
Q 1031 -759 709 28 
Q 388 816 388 1659 
Q 388 2403 628 3084 
Q 909 3875 1497 4659 
L 1900 4659 
Q 1522 4009 1400 3731 
Q 1209 3300 1100 2831 
Q 966 2247 966 1656 
Q 966 153 1900 -1347 
L 1497 -1347 
z
" transform="scale(0.015625)"/>
       <path id="ArialMT-73" d="M 197 991 
L 753 1078 
Q 800 744 1014 566 
Q 1228 388 1613 388 
Q 2000 388 2187 545 
Q 2375 703 2375 916 
Q 2375 1106 2209 1216 
Q 2094 1291 1634 1406 
Q 1016 1563 777 1677 
Q 538 1791 414 1992 
Q 291 2194 291 2438 
Q 291 2659 392 2848 
Q 494 3038 669 3163 
Q 800 3259 1026 3326 
Q 1253 3394 1513 3394 
Q 1903 3394 2198 3281 
Q 2494 3169 2634 2976 
Q 2775 2784 2828 2463 
L 2278 2388 
Q 2241 2644 2061 2787 
Q 1881 2931 1553 2931 
Q 1166 2931 1000 2803 
Q 834 2675 834 2503 
Q 834 2394 903 2306 
Q 972 2216 1119 2156 
Q 1203 2125 1616 2013 
Q 2213 1853 2448 1751 
Q 2684 1650 2818 1456 
Q 2953 1263 2953 975 
Q 2953 694 2789 445 
Q 2625 197 2315 61 
Q 2006 -75 1616 -75 
Q 969 -75 630 194 
Q 291 463 197 991 
z
" transform="scale(0.015625)"/>
       <path id="ArialMT-29" d="M 791 -1347 
L 388 -1347 
Q 1322 153 1322 1656 
Q 1322 2244 1188 2822 
Q 1081 3291 891 3722 
Q 769 4003 388 4659 
L 791 4659 
Q 1378 3875 1659 3084 
Q 1900 2403 1900 1659 
Q 1900 816 1576 28 
Q 1253 -759 791 -1347 
z
" transform="scale(0.015625)"/>
      </defs>
      <use xlink:href="#ArialMT-45"/>
      <use xlink:href="#ArialMT-78" transform="translate(66.699219 0)"/>
      <use xlink:href="#ArialMT-65" transform="translate(116.699219 0)"/>
      <use xlink:href="#ArialMT-63" transform="translate(172.314453 0)"/>
      <use xlink:href="#ArialMT-75" transform="translate(222.314453 0)"/>
      <use xlink:href="#ArialMT-74" transform="translate(277.929688 0)"/>
      <use xlink:href="#ArialMT-69" transform="translate(305.712891 0)"/>
      <use xlink:href="#ArialMT-6f" transform="translate(327.929688 0)"/>
      <use xlink:href="#ArialMT-6e" transform="translate(383.544922 0)"/>
      <use xlink:href="#ArialMT-20" transform="translate(439.160156 0)"/>
      <use xlink:href="#ArialMT-54" transform="translate(465.193359 0)"/>
      <use xlink:href="#ArialMT-69" transform="translate(522.527344 0)"/>
      <use xlink:href="#ArialMT-6d" transform="translate(544.744141 0)"/>
      <use xlink:href="#ArialMT-65" transform="translate(628.044922 0)"/>
      <use xlink:href="#ArialMT-20" transform="translate(683.660156 0)"/>
      <use xlink:href="#ArialMT-28" transform="translate(711.443359 0)"/>
      <use xlink:href="#ArialMT-6d" transform="translate(744.744141 0)"/>
      <use xlink:href="#ArialMT-73" transform="translate(828.044922 0)"/>
      <use xlink:href="#ArialMT-29" transform="translate(878.044922 0)"/>
     </g>
    </g>
   </g>
   <g id="FillBetweenPolyCollection_1"/>
   <g id="line2d_8">
    <path d="M 66.624546 334.449304 
L 67.365674 333.613372 
L 68.09241 332.25686 
L 69.156722 330.686022 
L 69.849811 330.686022 
L 70.865957 329.67119 
L 71.528377 329.67119 
L 72.500529 328.680815 
L 74.372207 325.845305 
L 74.975861 325.391173 
L 75.86347 324.49769 
L 77.577927 322.34544 
L 78.678763 321.51 
L 80.271589 319.903221 
L 81.043281 318.734462 
L 82.784328 317.226088 
L 84.679708 314.538949 
L 85.366438 314.19358 
L 86.262906 313.007147 
L 87.138403 312.674363 
L 87.993886 311.369536 
L 88.83025 310.570632 
L 89.850088 309.794685 
L 90.646411 308.727129 
L 92.378503 307.103635 
L 94.922981 304.037234 
L 95.791367 303.503478 
L 98.442085 300.685649 
L 99.233357 300.071309 
L 100.161315 298.751241 
L 101.950935 297.357935 
L 102.814645 296.454633 
L 103.658871 295.135849 
L 105.292254 294.065659 
L 106.213145 293.027767 
L 107.11192 292.517219 
L 107.865484 291.514765 
L 108.847199 290.632997 
L 109.685571 290.05549 
L 110.505573 288.738718 
L 111.421234 287.642691 
L 112.204462 287.105446 
L 113.079958 286.225357 
L 113.935441 284.855278 
L 115.690902 283.692816 
L 116.587967 282.882167 
L 117.464032 281.930033 
L 118.320059 280.23976 
L 119.156943 279.346277 
L 119.975522 279.418152 
L 120.864536 278.471806 
L 121.732922 277.75703 
L 122.581615 276.846026 
L 123.493473 276.090643 
L 124.303586 274.750161 
L 125.174912 274.422171 
L 126.026414 273.199148 
L 126.93375 272.508928 
L 127.746582 271.340752 
L 128.613626 270.858651 
L 129.530797 269.969678 
L 131.23381 268.529496 
L 132.089669 267.302582 
L 132.926393 266.648479 
L 133.80704 265.423155 
L 134.66744 264.436498 
L 135.508503 264.130181 
L 136.38915 263.126547 
L 137.24955 262.435012 
L 139.824099 259.654041 
L 140.713362 258.885821 
L 141.581985 257.825153 
L 142.430904 257.047239 
L 143.309254 256.410038 
L 144.167462 255.287397 
L 145.872068 253.914981 
L 146.762139 253.130125 
L 147.588541 251.714771 
L 148.48119 251.228834 
L 149.353044 249.9475 
L 150.20505 249.553188 
L 151.03809 248.497503 
L 151.929683 247.637309 
L 152.763084 246.628291 
L 153.651571 245.837727 
L 154.519453 244.491978 
L 155.367665 243.95924 
L 156.231242 243.218705 
L 157.108712 241.805298 
L 157.96608 240.986239 
L 158.804245 240.900166 
L 159.686375 239.535073 
L 162.272636 236.934473 
L 163.976682 235.137302 
L 164.854746 233.82702 
L 165.712681 233.561441 
L 166.577297 232.440021 
L 167.447703 231.694036 
L 169.154227 229.512123 
L 170.014627 229.249529 
L 170.878786 228.027657 
L 171.746007 227.295197 
L 172.615635 226.330516 
L 173.465514 225.171058 
L 174.338643 224.216378 
L 175.191867 223.002408 
L 176.066293 222.462784 
L 176.920754 220.994975 
L 177.775349 219.957142 
L 178.648403 219.611776 
L 179.501554 218.641913 
L 181.221757 217.107456 
L 182.087331 215.627452 
L 182.950065 215.038271 
L 183.809705 214.608437 
L 184.681989 213.111628 
L 185.534405 212.138422 
L 186.398352 211.370834 
L 187.257712 210.451309 
L 188.126918 209.767806 
L 188.990628 208.160411 
L 189.848764 207.939163 
L 190.714853 206.002859 
L 191.574635 206.151187 
L 192.441072 204.736399 
L 193.300587 204.283326 
L 194.153204 202.519392 
L 197.608522 199.561422 
L 198.468922 198.49739 
L 199.331582 196.9705 
L 200.195907 196.506668 
L 201.051032 195.517706 
L 202.773797 193.938983 
L 203.640015 192.561061 
L 204.505444 192.507605 
L 205.360502 190.747356 
L 206.223408 189.611627 
L 207.084421 188.879694 
L 207.9518 187.928939 
L 208.807913 187.163528 
L 209.669456 187.280767 
L 212.255933 183.579699 
L 213.117202 182.219443 
L 213.980997 181.78505 
L 214.846704 180.595285 
L 215.70678 179.986641 
L 216.567972 178.24523 
L 217.429765 177.757144 
L 220.014094 174.875529 
L 220.873788 174.322996 
L 221.737913 173.462483 
L 222.599931 172.183059 
L 223.459541 171.552632 
L 225.186679 169.90188 
L 226.047694 168.379177 
L 226.910016 167.309219 
L 227.773117 166.89166 
L 229.494882 164.984115 
L 230.357583 164.122864 
L 231.219268 162.680102 
L 232.079563 161.996399 
L 232.94252 161.153205 
L 233.80322 160.04725 
L 235.529027 158.395677 
L 236.389054 157.626362 
L 237.249363 156.347159 
L 240.699011 152.986867 
L 241.561117 151.855576 
L 242.420882 151.263929 
L 243.284695 149.902692 
L 244.145322 148.759923 
L 245.005723 148.062631 
L 245.868584 146.907544 
L 247.593354 145.363445 
L 250.177645 142.502271 
L 251.038864 141.31703 
L 252.763639 139.983356 
L 254.486674 137.823615 
L 255.349547 137.098252 
L 256.209507 136.5812 
L 257.073235 135.892799 
L 257.933268 134.721807 
L 258.796025 133.047591 
L 259.658729 132.363973 
L 261.382249 130.67044 
L 263.104594 128.355906 
L 264.828137 126.175433 
L 265.690371 126.104589 
L 266.551104 124.738441 
L 269.137752 122.209239 
L 269.99876 121.055446 
L 272.585009 118.492232 
L 273.445617 117.870509 
L 274.30727 116.850637 
L 275.169457 115.494377 
L 276.0317 114.373838 
L 276.893554 113.569038 
L 277.754602 112.942521 
L 279.479106 110.518087 
L 282.063584 108.204694 
L 282.92584 107.154763 
L 284.649323 105.472268 
L 285.510803 104.47336 
L 286.372945 103.850827 
L 288.096295 102.016262 
L 288.957657 100.534669 
L 289.819846 99.6188 
L 293.266546 96.690756 
L 295.85199 93.520346 
L 296.714009 92.836565 
L 297.576173 91.588367 
L 299.299159 89.795081 
L 300.161358 89.047083 
L 301.022687 88.062036 
L 301.884854 87.365334 
L 302.746679 86.018382 
L 303.60841 84.902057 
L 304.469612 84.248843 
L 305.331786 83.294297 
L 306.193183 82.606959 
L 307.055234 81.531764 
L 307.916862 80.690954 
L 308.778812 78.63669 
L 309.640622 78.04827 
L 311.364285 75.933231 
L 312.225791 75.357279 
L 313.087549 74.201541 
L 315.672793 71.92116 
L 316.534508 70.797916 
L 317.396632 69.354334 
L 318.258246 68.768242 
L 319.119822 67.729908 
L 319.981781 67.042577 
L 320.843656 66.115855 
L 322.567042 63.680033 
L 323.428873 63.135012 
L 324.290458 61.994759 
L 324.290458 61.994759 
" clip-path="url(#p117856cbbe)" style="fill: none; stroke: #4c72b0; stroke-width: 1.5; stroke-linecap: round"/>
   </g>
   <g id="patch_3">
    <path d="M 53.74125 348.072031 
L 53.74125 48.372031 
" style="fill: none; stroke: #cccccc; stroke-width: 1.25; stroke-linejoin: miter; stroke-linecap: square"/>
   </g>
   <g id="patch_4">
    <path d="M 53.74125 348.072031 
L 337.173754 348.072031 
" style="fill: none; stroke: #cccccc; stroke-width: 1.25; stroke-linejoin: miter; stroke-linecap: square"/>
   </g>
   <g id="legend_1">
    <g id="text_10">
     <!-- quick_3way_sort -->
     <g style="fill: #262626" transform="translate(150.770627 20.225) scale(0.12 -0.12)">
      <defs>
       <path id="ArialMT-71" d="M 2538 -1272 
L 2538 353 
Q 2406 169 2170 47 
Q 1934 -75 1669 -75 
Q 1078 -75 651 397 
Q 225 869 225 1691 
Q 225 2191 398 2587 
Q 572 2984 901 3189 
Q 1231 3394 1625 3394 
Q 2241 3394 2594 2875 
L 2594 3319 
L 3100 3319 
L 3100 -1272 
L 2538 -1272 
z
M 803 1669 
Q 803 1028 1072 708 
Q 1341 388 1716 388 
Q 2075 388 2334 692 
Q 2594 997 2594 1619 
Q 2594 2281 2320 2615 
Q 2047 2950 1678 2950 
Q 1313 2950 1058 2639 
Q 803 2328 803 1669 
z
" transform="scale(0.015625)"/>
       <path id="ArialMT-6b" d="M 425 0 
L 425 4581 
L 988 4581 
L 988 1969 
L 2319 3319 
L 3047 3319 
L 1778 2088 
L 3175 0 
L 2481 0 
L 1384 1697 
L 988 1316 
L 988 0 
L 425 0 
z
" transform="scale(0.015625)"/>
       <path id="ArialMT-5f" d="M -97 -1272 
L -97 -866 
L 3631 -866 
L 3631 -1272 
L -97 -1272 
z
" transform="scale(0.015625)"/>
       <path id="ArialMT-77" d="M 1034 0 
L 19 3319 
L 600 3319 
L 1128 1403 
L 1325 691 
Q 1338 744 1497 1375 
L 2025 3319 
L 2603 3319 
L 3100 1394 
L 3266 759 
L 3456 1400 
L 4025 3319 
L 4572 3319 
L 3534 0 
L 2950 0 
L 2422 1988 
L 2294 2553 
L 1622 0 
L 1034 0 
z
" transform="scale(0.015625)"/>
      </defs>
      <use xlink:href="#ArialMT-71"/>
      <use xlink:href="#ArialMT-75" transform="translate(55.615234 0)"/>
      <use xlink:href="#ArialMT-69" transform="translate(111.230469 0)"/>
      <use xlink:href="#ArialMT-63" transform="translate(133.447266 0)"/>
      <use xlink:href="#ArialMT-6b" transform="translate(183.447266 0)"/>
      <use xlink:href="#ArialMT-5f" transform="translate(233.447266 0)"/>
      <use xlink:href="#ArialMT-33" transform="translate(289.0625 0)"/>
      <use xlink:href="#ArialMT-77" transform="translate(344.677734 0)"/>
      <use xlink:href="#ArialMT-61" transform="translate(416.894531 0)"/>
      <use xlink:href="#ArialMT-79" transform="translate(472.509766 0)"/>
      <use xlink:href="#ArialMT-5f" transform="translate(522.509766 0)"/>
      <use xlink:href="#ArialMT-73" transform="translate(578.125 0)"/>
      <use xlink:href="#ArialMT-6f" transform="translate(628.125 0)"/>
      <use xlink:href="#ArialMT-72" transform="translate(683.740234 0)"/>
      <use xlink:href="#ArialMT-74" transform="translate(717.041016 0)"/>
     </g>
    </g>
    <g id="line2d_9">
     <path d="M 139.094533 32.306875 
L 150.094533 32.306875 
L 161.094533 32.306875 
" style="fill: none; stroke: #4c72b0; stroke-width: 1.5; stroke-linecap: round"/>
    </g>
    <g id="text_11">
     <!-- quick_3way_sort -->
     <g style="fill: #262626" transform="translate(169.894533 36.156875) scale(0.11 -0.11)">
      <use xlink:href="#ArialMT-71"/>
      <use xlink:href="#ArialMT-75" transform="translate(55.615234 0)"/>
      <use xlink:href="#ArialMT-69" transform="translate(111.230469 0)"/>
      <use xlink:href="#ArialMT-63" transform="translate(133.447266 0)"/>
      <use xlink:href="#ArialMT-6b" transform="translate(183.447266 0)"/>
      <use xlink:href="#ArialMT-5f" transform="translate(233.447266 0)"/>
      <use xlink:href="#ArialMT-33" transform="translate(289.0625 0)"/>
      <use xlink:href="#ArialMT-77" transform="translate(344.677734 0)"/>
      <use xlink:href="#ArialMT-61" transform="translate(416.894531 0)"/>
      <use xlink:href="#ArialMT-79" transform="translate(472.509766 0)"/>
      <use xlink:href="#ArialMT-5f" transform="translate(522.509766 0)"/>
      <use xlink:href="#ArialMT-73" transform="translate(578.125 0)"/>
      <use xlink:href="#ArialMT-6f" transform="translate(628.125 0)"/>
      <use xlink:href="#ArialMT-72" transform="translate(683.740234 0)"/>
      <use xlink:href="#ArialMT-74" transform="translate(717.041016 0)"/>
     </g>
    </g>
   </g>
  </g>
 </g>
 <defs>
  <clipPath id="p117856cbbe">
   <rect x="53.74125" y="48.372031" width="283.432504" height="299.7"/>
  </clipPath>
 </defs>
</svg>
