<?xml version="1.0" encoding="utf-8" standalone="no"?>
<!DOCTYPE svg PUBLIC "-//W3C//DTD SVG 1.1//EN"
  "http://www.w3.org/Graphics/SVG/1.1/DTD/svg11.dtd">
<svg xmlns:xlink="http://www.w3.org/1999/xlink" width="467.728281pt" height="383.525pt" viewBox="0 0 467.728281 383.525" xmlns="http://www.w3.org/2000/svg" version="1.1">
 <metadata>
  <rdf:RDF xmlns:dc="http://purl.org/dc/elements/1.1/" xmlns:cc="http://creativecommons.org/ns#" xmlns:rdf="http://www.w3.org/1999/02/22-rdf-syntax-ns#">
   <cc:Work>
    <dc:type rdf:resource="http://purl.org/dc/dcmitype/StillImage"/>
    <dc:date>2024-12-11T20:04:45.952748</dc:date>
    <dc:format>image/svg+xml</dc:format>
    <dc:creator>
     <cc:Agent>
      <dc:title>Matplotlib v3.9.3, https://matplotlib.org/</dc:title>
     </cc:Agent>
    </dc:creator>
   </cc:Work>
  </rdf:RDF>
 </metadata>
 <defs>
  <style type="text/css">*{stroke-linejoin: round; stroke-linecap: butt}</style>
 </defs>
 <g id="figure_1">
  <g id="patch_1">
   <path d="M 0 383.525 
L 467.728281 383.525 
L 467.728281 0 
L 0 0 
z
" style="fill: #ffffff"/>
  </g>
  <g id="axes_1">
   <g id="patch_2">
    <path d="M 53.368281 306.9 
L 460.528281 306.9 
L 460.528281 7.2 
L 53.368281 7.2 
z
" style="fill: #ffffff"/>
   </g>
   <g id="matplotlib.axis_1">
    <g id="xtick_1">
     <g id="line2d_1">
      <path d="M 68.136711 306.9 
L 68.136711 7.2 
" clip-path="url(#pf3e0f8b7da)" style="fill: none; stroke: #cccccc; stroke-linecap: round"/>
     </g>
     <g id="text_1">
      <!-- 0 -->
      <g style="fill: #262626" transform="translate(65.078195 324.273594) scale(0.11 -0.11)">
       <defs>
        <path id="ArialMT-30" d="M 266 2259 
Q 266 3072 433 3567 
Q 600 4063 929 4331 
Q 1259 4600 1759 4600 
Q 2128 4600 2406 4451 
Q 2684 4303 2865 4023 
Q 3047 3744 3150 3342 
Q 3253 2941 3253 2259 
Q 3253 1453 3087 958 
Q 2922 463 2592 192 
Q 2263 -78 1759 -78 
Q 1097 -78 719 397 
Q 266 969 266 2259 
z
M 844 2259 
Q 844 1131 1108 757 
Q 1372 384 1759 384 
Q 2147 384 2411 759 
Q 2675 1134 2675 2259 
Q 2675 3391 2411 3762 
Q 2147 4134 1753 4134 
Q 1366 4134 1134 3806 
Q 844 3388 844 2259 
z
" transform="scale(0.015625)"/>
       </defs>
       <use xlink:href="#ArialMT-30"/>
      </g>
     </g>
    </g>
    <g id="xtick_2">
     <g id="line2d_2">
      <path d="M 151.22211 306.9 
L 151.22211 7.2 
" clip-path="url(#pf3e0f8b7da)" style="fill: none; stroke: #cccccc; stroke-linecap: round"/>
     </g>
     <g id="text_2">
      <!-- 200 -->
      <g style="fill: #262626" transform="translate(142.046564 324.273594) scale(0.11 -0.11)">
       <defs>
        <path id="ArialMT-32" d="M 3222 541 
L 3222 0 
L 194 0 
Q 188 203 259 391 
Q 375 700 629 1000 
Q 884 1300 1366 1694 
Q 2113 2306 2375 2664 
Q 2638 3022 2638 3341 
Q 2638 3675 2398 3904 
Q 2159 4134 1775 4134 
Q 1369 4134 1125 3890 
Q 881 3647 878 3216 
L 300 3275 
Q 359 3922 746 4261 
Q 1134 4600 1788 4600 
Q 2447 4600 2831 4234 
Q 3216 3869 3216 3328 
Q 3216 3053 3103 2787 
Q 2991 2522 2730 2228 
Q 2469 1934 1863 1422 
Q 1356 997 1212 845 
Q 1069 694 975 541 
L 3222 541 
z
" transform="scale(0.015625)"/>
       </defs>
       <use xlink:href="#ArialMT-32"/>
       <use xlink:href="#ArialMT-30" x="55.615234"/>
       <use xlink:href="#ArialMT-30" x="111.230469"/>
      </g>
     </g>
    </g>
    <g id="xtick_3">
     <g id="line2d_3">
      <path d="M 234.30751 306.9 
L 234.30751 7.2 
" clip-path="url(#pf3e0f8b7da)" style="fill: none; stroke: #cccccc; stroke-linecap: round"/>
     </g>
     <g id="text_3">
      <!-- 400 -->
      <g style="fill: #262626" transform="translate(225.131963 324.273594) scale(0.11 -0.11)">
       <defs>
        <path id="ArialMT-34" d="M 2069 0 
L 2069 1097 
L 81 1097 
L 81 1613 
L 2172 4581 
L 2631 4581 
L 2631 1613 
L 3250 1613 
L 3250 1097 
L 2631 1097 
L 2631 0 
L 2069 0 
z
M 2069 1613 
L 2069 3678 
L 634 1613 
L 2069 1613 
z
" transform="scale(0.015625)"/>
       </defs>
       <use xlink:href="#ArialMT-34"/>
       <use xlink:href="#ArialMT-30" x="55.615234"/>
       <use xlink:href="#ArialMT-30" x="111.230469"/>
      </g>
     </g>
    </g>
    <g id="xtick_4">
     <g id="line2d_4">
      <path d="M 317.392909 306.9 
L 317.392909 7.2 
" clip-path="url(#pf3e0f8b7da)" style="fill: none; stroke: #cccccc; stroke-linecap: round"/>
     </g>
     <g id="text_4">
      <!-- 600 -->
      <g style="fill: #262626" transform="translate(308.217362 324.273594) scale(0.11 -0.11)">
       <defs>
        <path id="ArialMT-36" d="M 3184 3459 
L 2625 3416 
Q 2550 3747 2413 3897 
Q 2184 4138 1850 4138 
Q 1581 4138 1378 3988 
Q 1113 3794 959 3422 
Q 806 3050 800 2363 
Q 1003 2672 1297 2822 
Q 1591 2972 1913 2972 
Q 2475 2972 2870 2558 
Q 3266 2144 3266 1488 
Q 3266 1056 3080 686 
Q 2894 316 2569 119 
Q 2244 -78 1831 -78 
Q 1128 -78 684 439 
Q 241 956 241 2144 
Q 241 3472 731 4075 
Q 1159 4600 1884 4600 
Q 2425 4600 2770 4297 
Q 3116 3994 3184 3459 
z
M 888 1484 
Q 888 1194 1011 928 
Q 1134 663 1356 523 
Q 1578 384 1822 384 
Q 2178 384 2434 671 
Q 2691 959 2691 1453 
Q 2691 1928 2437 2201 
Q 2184 2475 1800 2475 
Q 1419 2475 1153 2201 
Q 888 1928 888 1484 
z
" transform="scale(0.015625)"/>
       </defs>
       <use xlink:href="#ArialMT-36"/>
       <use xlink:href="#ArialMT-30" x="55.615234"/>
       <use xlink:href="#ArialMT-30" x="111.230469"/>
      </g>
     </g>
    </g>
    <g id="xtick_5">
     <g id="line2d_5">
      <path d="M 400.478309 306.9 
L 400.478309 7.2 
" clip-path="url(#pf3e0f8b7da)" style="fill: none; stroke: #cccccc; stroke-linecap: round"/>
     </g>
     <g id="text_5">
      <!-- 800 -->
      <g style="fill: #262626" transform="translate(391.302762 324.273594) scale(0.11 -0.11)">
       <defs>
        <path id="ArialMT-38" d="M 1131 2484 
Q 781 2613 612 2850 
Q 444 3088 444 3419 
Q 444 3919 803 4259 
Q 1163 4600 1759 4600 
Q 2359 4600 2725 4251 
Q 3091 3903 3091 3403 
Q 3091 3084 2923 2848 
Q 2756 2613 2416 2484 
Q 2838 2347 3058 2040 
Q 3278 1734 3278 1309 
Q 3278 722 2862 322 
Q 2447 -78 1769 -78 
Q 1091 -78 675 323 
Q 259 725 259 1325 
Q 259 1772 486 2073 
Q 713 2375 1131 2484 
z
M 1019 3438 
Q 1019 3113 1228 2906 
Q 1438 2700 1772 2700 
Q 2097 2700 2305 2904 
Q 2513 3109 2513 3406 
Q 2513 3716 2298 3927 
Q 2084 4138 1766 4138 
Q 1444 4138 1231 3931 
Q 1019 3725 1019 3438 
z
M 838 1322 
Q 838 1081 952 856 
Q 1066 631 1291 507 
Q 1516 384 1775 384 
Q 2178 384 2440 643 
Q 2703 903 2703 1303 
Q 2703 1709 2433 1975 
Q 2163 2241 1756 2241 
Q 1359 2241 1098 1978 
Q 838 1716 838 1322 
z
" transform="scale(0.015625)"/>
       </defs>
       <use xlink:href="#ArialMT-38"/>
       <use xlink:href="#ArialMT-30" x="55.615234"/>
       <use xlink:href="#ArialMT-30" x="111.230469"/>
      </g>
     </g>
    </g>
    <g id="text_6">
     <!-- Input Size -->
     <g style="fill: #262626" transform="translate(230.266094 339.195469) scale(0.12 -0.12)">
      <defs>
       <path id="ArialMT-49" d="M 597 0 
L 597 4581 
L 1203 4581 
L 1203 0 
L 597 0 
z
" transform="scale(0.015625)"/>
       <path id="ArialMT-6e" d="M 422 0 
L 422 3319 
L 928 3319 
L 928 2847 
Q 1294 3394 1984 3394 
Q 2284 3394 2536 3286 
Q 2788 3178 2913 3003 
Q 3038 2828 3088 2588 
Q 3119 2431 3119 2041 
L 3119 0 
L 2556 0 
L 2556 2019 
Q 2556 2363 2490 2533 
Q 2425 2703 2258 2804 
Q 2091 2906 1866 2906 
Q 1506 2906 1245 2678 
Q 984 2450 984 1813 
L 984 0 
L 422 0 
z
" transform="scale(0.015625)"/>
       <path id="ArialMT-70" d="M 422 -1272 
L 422 3319 
L 934 3319 
L 934 2888 
Q 1116 3141 1344 3267 
Q 1572 3394 1897 3394 
Q 2322 3394 2647 3175 
Q 2972 2956 3137 2557 
Q 3303 2159 3303 1684 
Q 3303 1175 3120 767 
Q 2938 359 2589 142 
Q 2241 -75 1856 -75 
Q 1575 -75 1351 44 
Q 1128 163 984 344 
L 984 -1272 
L 422 -1272 
z
M 931 1641 
Q 931 1000 1190 694 
Q 1450 388 1819 388 
Q 2194 388 2461 705 
Q 2728 1022 2728 1688 
Q 2728 2322 2467 2637 
Q 2206 2953 1844 2953 
Q 1484 2953 1207 2617 
Q 931 2281 931 1641 
z
" transform="scale(0.015625)"/>
       <path id="ArialMT-75" d="M 2597 0 
L 2597 488 
Q 2209 -75 1544 -75 
Q 1250 -75 995 37 
Q 741 150 617 320 
Q 494 491 444 738 
Q 409 903 409 1263 
L 409 3319 
L 972 3319 
L 972 1478 
Q 972 1038 1006 884 
Q 1059 663 1231 536 
Q 1403 409 1656 409 
Q 1909 409 2131 539 
Q 2353 669 2445 892 
Q 2538 1116 2538 1541 
L 2538 3319 
L 3100 3319 
L 3100 0 
L 2597 0 
z
" transform="scale(0.015625)"/>
       <path id="ArialMT-74" d="M 1650 503 
L 1731 6 
Q 1494 -44 1306 -44 
Q 1000 -44 831 53 
Q 663 150 594 308 
Q 525 466 525 972 
L 525 2881 
L 113 2881 
L 113 3319 
L 525 3319 
L 525 4141 
L 1084 4478 
L 1084 3319 
L 1650 3319 
L 1650 2881 
L 1084 2881 
L 1084 941 
Q 1084 700 1114 631 
Q 1144 563 1211 522 
Q 1278 481 1403 481 
Q 1497 481 1650 503 
z
" transform="scale(0.015625)"/>
       <path id="ArialMT-20" transform="scale(0.015625)"/>
       <path id="ArialMT-53" d="M 288 1472 
L 859 1522 
Q 900 1178 1048 958 
Q 1197 738 1509 602 
Q 1822 466 2213 466 
Q 2559 466 2825 569 
Q 3091 672 3220 851 
Q 3350 1031 3350 1244 
Q 3350 1459 3225 1620 
Q 3100 1781 2813 1891 
Q 2628 1963 1997 2114 
Q 1366 2266 1113 2400 
Q 784 2572 623 2826 
Q 463 3081 463 3397 
Q 463 3744 659 4045 
Q 856 4347 1234 4503 
Q 1613 4659 2075 4659 
Q 2584 4659 2973 4495 
Q 3363 4331 3572 4012 
Q 3781 3694 3797 3291 
L 3216 3247 
Q 3169 3681 2898 3903 
Q 2628 4125 2100 4125 
Q 1550 4125 1298 3923 
Q 1047 3722 1047 3438 
Q 1047 3191 1225 3031 
Q 1400 2872 2139 2705 
Q 2878 2538 3153 2413 
Q 3553 2228 3743 1945 
Q 3934 1663 3934 1294 
Q 3934 928 3725 604 
Q 3516 281 3123 101 
Q 2731 -78 2241 -78 
Q 1619 -78 1198 103 
Q 778 284 539 648 
Q 300 1013 288 1472 
z
" transform="scale(0.015625)"/>
       <path id="ArialMT-69" d="M 425 3934 
L 425 4581 
L 988 4581 
L 988 3934 
L 425 3934 
z
M 425 0 
L 425 3319 
L 988 3319 
L 988 0 
L 425 0 
z
" transform="scale(0.015625)"/>
       <path id="ArialMT-7a" d="M 125 0 
L 125 456 
L 2238 2881 
Q 1878 2863 1603 2863 
L 250 2863 
L 250 3319 
L 2963 3319 
L 2963 2947 
L 1166 841 
L 819 456 
Q 1197 484 1528 484 
L 3063 484 
L 3063 0 
L 125 0 
z
" transform="scale(0.015625)"/>
       <path id="ArialMT-65" d="M 2694 1069 
L 3275 997 
Q 3138 488 2766 206 
Q 2394 -75 1816 -75 
Q 1088 -75 661 373 
Q 234 822 234 1631 
Q 234 2469 665 2931 
Q 1097 3394 1784 3394 
Q 2450 3394 2872 2941 
Q 3294 2488 3294 1666 
Q 3294 1616 3291 1516 
L 816 1516 
Q 847 969 1125 678 
Q 1403 388 1819 388 
Q 2128 388 2347 550 
Q 2566 713 2694 1069 
z
M 847 1978 
L 2700 1978 
Q 2663 2397 2488 2606 
Q 2219 2931 1791 2931 
Q 1403 2931 1139 2672 
Q 875 2413 847 1978 
z
" transform="scale(0.015625)"/>
      </defs>
      <use xlink:href="#ArialMT-49"/>
      <use xlink:href="#ArialMT-6e" x="27.783203"/>
      <use xlink:href="#ArialMT-70" x="83.398438"/>
      <use xlink:href="#ArialMT-75" x="139.013672"/>
      <use xlink:href="#ArialMT-74" x="194.628906"/>
      <use xlink:href="#ArialMT-20" x="222.412109"/>
      <use xlink:href="#ArialMT-53" x="250.195312"/>
      <use xlink:href="#ArialMT-69" x="316.894531"/>
      <use xlink:href="#ArialMT-7a" x="339.111328"/>
      <use xlink:href="#ArialMT-65" x="389.111328"/>
     </g>
    </g>
   </g>
   <g id="matplotlib.axis_2">
    <g id="ytick_1">
     <g id="line2d_6">
      <path d="M 53.368281 293.304521 
L 460.528281 293.304521 
" clip-path="url(#pf3e0f8b7da)" style="fill: none; stroke: #cccccc; stroke-linecap: round"/>
     </g>
     <g id="text_7">
      <!-- 0.00 -->
      <g style="fill: #262626" transform="translate(22.46125 297.241318) scale(0.11 -0.11)">
       <defs>
        <path id="ArialMT-2e" d="M 581 0 
L 581 641 
L 1222 641 
L 1222 0 
L 581 0 
z
" transform="scale(0.015625)"/>
       </defs>
       <use xlink:href="#ArialMT-30"/>
       <use xlink:href="#ArialMT-2e" x="55.615234"/>
       <use xlink:href="#ArialMT-30" x="83.398438"/>
       <use xlink:href="#ArialMT-30" x="139.013672"/>
      </g>
     </g>
    </g>
    <g id="ytick_2">
     <g id="line2d_7">
      <path d="M 53.368281 239.391175 
L 460.528281 239.391175 
" clip-path="url(#pf3e0f8b7da)" style="fill: none; stroke: #cccccc; stroke-linecap: round"/>
     </g>
     <g id="text_8">
      <!-- 0.05 -->
      <g style="fill: #262626" transform="translate(22.46125 243.327971) scale(0.11 -0.11)">
       <defs>
        <path id="ArialMT-35" d="M 266 1200 
L 856 1250 
Q 922 819 1161 601 
Q 1400 384 1738 384 
Q 2144 384 2425 690 
Q 2706 997 2706 1503 
Q 2706 1984 2436 2262 
Q 2166 2541 1728 2541 
Q 1456 2541 1237 2417 
Q 1019 2294 894 2097 
L 366 2166 
L 809 4519 
L 3088 4519 
L 3088 3981 
L 1259 3981 
L 1013 2750 
Q 1425 3038 1878 3038 
Q 2478 3038 2890 2622 
Q 3303 2206 3303 1553 
Q 3303 931 2941 478 
Q 2500 -78 1738 -78 
Q 1113 -78 717 272 
Q 322 622 266 1200 
z
" transform="scale(0.015625)"/>
       </defs>
       <use xlink:href="#ArialMT-30"/>
       <use xlink:href="#ArialMT-2e" x="55.615234"/>
       <use xlink:href="#ArialMT-30" x="83.398438"/>
       <use xlink:href="#ArialMT-35" x="139.013672"/>
      </g>
     </g>
    </g>
    <g id="ytick_3">
     <g id="line2d_8">
      <path d="M 53.368281 185.477828 
L 460.528281 185.477828 
" clip-path="url(#pf3e0f8b7da)" style="fill: none; stroke: #cccccc; stroke-linecap: round"/>
     </g>
     <g id="text_9">
      <!-- 0.10 -->
      <g style="fill: #262626" transform="translate(22.46125 189.414625) scale(0.11 -0.11)">
       <defs>
        <path id="ArialMT-31" d="M 2384 0 
L 1822 0 
L 1822 3584 
Q 1619 3391 1289 3197 
Q 959 3003 697 2906 
L 697 3450 
Q 1169 3672 1522 3987 
Q 1875 4303 2022 4600 
L 2384 4600 
L 2384 0 
z
" transform="scale(0.015625)"/>
       </defs>
       <use xlink:href="#ArialMT-30"/>
       <use xlink:href="#ArialMT-2e" x="55.615234"/>
       <use xlink:href="#ArialMT-31" x="83.398438"/>
       <use xlink:href="#ArialMT-30" x="139.013672"/>
      </g>
     </g>
    </g>
    <g id="ytick_4">
     <g id="line2d_9">
      <path d="M 53.368281 131.564482 
L 460.528281 131.564482 
" clip-path="url(#pf3e0f8b7da)" style="fill: none; stroke: #cccccc; stroke-linecap: round"/>
     </g>
     <g id="text_10">
      <!-- 0.15 -->
      <g style="fill: #262626" transform="translate(22.46125 135.501279) scale(0.11 -0.11)">
       <use xlink:href="#ArialMT-30"/>
       <use xlink:href="#ArialMT-2e" x="55.615234"/>
       <use xlink:href="#ArialMT-31" x="83.398438"/>
       <use xlink:href="#ArialMT-35" x="139.013672"/>
      </g>
     </g>
    </g>
    <g id="ytick_5">
     <g id="line2d_10">
      <path d="M 53.368281 77.651136 
L 460.528281 77.651136 
" clip-path="url(#pf3e0f8b7da)" style="fill: none; stroke: #cccccc; stroke-linecap: round"/>
     </g>
     <g id="text_11">
      <!-- 0.20 -->
      <g style="fill: #262626" transform="translate(22.46125 81.587933) scale(0.11 -0.11)">
       <use xlink:href="#ArialMT-30"/>
       <use xlink:href="#ArialMT-2e" x="55.615234"/>
       <use xlink:href="#ArialMT-32" x="83.398438"/>
       <use xlink:href="#ArialMT-30" x="139.013672"/>
      </g>
     </g>
    </g>
    <g id="ytick_6">
     <g id="line2d_11">
      <path d="M 53.368281 23.737789 
L 460.528281 23.737789 
" clip-path="url(#pf3e0f8b7da)" style="fill: none; stroke: #cccccc; stroke-linecap: round"/>
     </g>
     <g id="text_12">
      <!-- 0.25 -->
      <g style="fill: #262626" transform="translate(22.46125 27.674586) scale(0.11 -0.11)">
       <use xlink:href="#ArialMT-30"/>
       <use xlink:href="#ArialMT-2e" x="55.615234"/>
       <use xlink:href="#ArialMT-32" x="83.398438"/>
       <use xlink:href="#ArialMT-35" x="139.013672"/>
      </g>
     </g>
    </g>
    <g id="text_13">
     <!-- Execution Time (ms) -->
     <g style="fill: #262626" transform="translate(15.935625 211.727812) rotate(-90) scale(0.12 -0.12)">
      <defs>
       <path id="ArialMT-45" d="M 506 0 
L 506 4581 
L 3819 4581 
L 3819 4041 
L 1113 4041 
L 1113 2638 
L 3647 2638 
L 3647 2100 
L 1113 2100 
L 1113 541 
L 3925 541 
L 3925 0 
L 506 0 
z
" transform="scale(0.015625)"/>
       <path id="ArialMT-78" d="M 47 0 
L 1259 1725 
L 138 3319 
L 841 3319 
L 1350 2541 
Q 1494 2319 1581 2169 
Q 1719 2375 1834 2534 
L 2394 3319 
L 3066 3319 
L 1919 1756 
L 3153 0 
L 2463 0 
L 1781 1031 
L 1600 1309 
L 728 0 
L 47 0 
z
" transform="scale(0.015625)"/>
       <path id="ArialMT-63" d="M 2588 1216 
L 3141 1144 
Q 3050 572 2676 248 
Q 2303 -75 1759 -75 
Q 1078 -75 664 370 
Q 250 816 250 1647 
Q 250 2184 428 2587 
Q 606 2991 970 3192 
Q 1334 3394 1763 3394 
Q 2303 3394 2647 3120 
Q 2991 2847 3088 2344 
L 2541 2259 
Q 2463 2594 2264 2762 
Q 2066 2931 1784 2931 
Q 1359 2931 1093 2626 
Q 828 2322 828 1663 
Q 828 994 1084 691 
Q 1341 388 1753 388 
Q 2084 388 2306 591 
Q 2528 794 2588 1216 
z
" transform="scale(0.015625)"/>
       <path id="ArialMT-6f" d="M 213 1659 
Q 213 2581 725 3025 
Q 1153 3394 1769 3394 
Q 2453 3394 2887 2945 
Q 3322 2497 3322 1706 
Q 3322 1066 3130 698 
Q 2938 331 2570 128 
Q 2203 -75 1769 -75 
Q 1072 -75 642 372 
Q 213 819 213 1659 
z
M 791 1659 
Q 791 1022 1069 705 
Q 1347 388 1769 388 
Q 2188 388 2466 706 
Q 2744 1025 2744 1678 
Q 2744 2294 2464 2611 
Q 2184 2928 1769 2928 
Q 1347 2928 1069 2612 
Q 791 2297 791 1659 
z
" transform="scale(0.015625)"/>
       <path id="ArialMT-54" d="M 1659 0 
L 1659 4041 
L 150 4041 
L 150 4581 
L 3781 4581 
L 3781 4041 
L 2266 4041 
L 2266 0 
L 1659 0 
z
" transform="scale(0.015625)"/>
       <path id="ArialMT-6d" d="M 422 0 
L 422 3319 
L 925 3319 
L 925 2853 
Q 1081 3097 1340 3245 
Q 1600 3394 1931 3394 
Q 2300 3394 2536 3241 
Q 2772 3088 2869 2813 
Q 3263 3394 3894 3394 
Q 4388 3394 4653 3120 
Q 4919 2847 4919 2278 
L 4919 0 
L 4359 0 
L 4359 2091 
Q 4359 2428 4304 2576 
Q 4250 2725 4106 2815 
Q 3963 2906 3769 2906 
Q 3419 2906 3187 2673 
Q 2956 2441 2956 1928 
L 2956 0 
L 2394 0 
L 2394 2156 
Q 2394 2531 2256 2718 
Q 2119 2906 1806 2906 
Q 1569 2906 1367 2781 
Q 1166 2656 1075 2415 
Q 984 2175 984 1722 
L 984 0 
L 422 0 
z
" transform="scale(0.015625)"/>
       <path id="ArialMT-28" d="M 1497 -1347 
Q 1031 -759 709 28 
Q 388 816 388 1659 
Q 388 2403 628 3084 
Q 909 3875 1497 4659 
L 1900 4659 
Q 1522 4009 1400 3731 
Q 1209 3300 1100 2831 
Q 966 2247 966 1656 
Q 966 153 1900 -1347 
L 1497 -1347 
z
" transform="scale(0.015625)"/>
       <path id="ArialMT-73" d="M 197 991 
L 753 1078 
Q 800 744 1014 566 
Q 1228 388 1613 388 
Q 2000 388 2187 545 
Q 2375 703 2375 916 
Q 2375 1106 2209 1216 
Q 2094 1291 1634 1406 
Q 1016 1563 777 1677 
Q 538 1791 414 1992 
Q 291 2194 291 2438 
Q 291 2659 392 2848 
Q 494 3038 669 3163 
Q 800 3259 1026 3326 
Q 1253 3394 1513 3394 
Q 1903 3394 2198 3281 
Q 2494 3169 2634 2976 
Q 2775 2784 2828 2463 
L 2278 2388 
Q 2241 2644 2061 2787 
Q 1881 2931 1553 2931 
Q 1166 2931 1000 2803 
Q 834 2675 834 2503 
Q 834 2394 903 2306 
Q 972 2216 1119 2156 
Q 1203 2125 1616 2013 
Q 2213 1853 2448 1751 
Q 2684 1650 2818 1456 
Q 2953 1263 2953 975 
Q 2953 694 2789 445 
Q 2625 197 2315 61 
Q 2006 -75 1616 -75 
Q 969 -75 630 194 
Q 291 463 197 991 
z
" transform="scale(0.015625)"/>
       <path id="ArialMT-29" d="M 791 -1347 
L 388 -1347 
Q 1322 153 1322 1656 
Q 1322 2244 1188 2822 
Q 1081 3291 891 3722 
Q 769 4003 388 4659 
L 791 4659 
Q 1378 3875 1659 3084 
Q 1900 2403 1900 1659 
Q 1900 816 1576 28 
Q 1253 -759 791 -1347 
z
" transform="scale(0.015625)"/>
      </defs>
      <use xlink:href="#ArialMT-45"/>
      <use xlink:href="#ArialMT-78" x="66.699219"/>
      <use xlink:href="#ArialMT-65" x="116.699219"/>
      <use xlink:href="#ArialMT-63" x="172.314453"/>
      <use xlink:href="#ArialMT-75" x="222.314453"/>
      <use xlink:href="#ArialMT-74" x="277.929688"/>
      <use xlink:href="#ArialMT-69" x="305.712891"/>
      <use xlink:href="#ArialMT-6f" x="327.929688"/>
      <use xlink:href="#ArialMT-6e" x="383.544922"/>
      <use xlink:href="#ArialMT-20" x="439.160156"/>
      <use xlink:href="#ArialMT-54" x="465.193359"/>
      <use xlink:href="#ArialMT-69" x="522.527344"/>
      <use xlink:href="#ArialMT-6d" x="544.744141"/>
      <use xlink:href="#ArialMT-65" x="628.044922"/>
      <use xlink:href="#ArialMT-20" x="683.660156"/>
      <use xlink:href="#ArialMT-28" x="711.443359"/>
      <use xlink:href="#ArialMT-6d" x="744.744141"/>
      <use xlink:href="#ArialMT-73" x="828.044922"/>
      <use xlink:href="#ArialMT-29" x="878.044922"/>
     </g>
    </g>
   </g>
   <g id="PolyCollection_1"/>
   <g id="line2d_12">
    <path d="M 71.875554 292.226246 
L 75.614397 292.226277 
L 79.35324 291.902763 
L 83.092083 291.040175 
L 86.830926 290.177523 
L 90.569769 290.285351 
L 94.308612 289.314934 
L 98.047455 288.344487 
L 101.786298 287.80538 
L 105.525141 286.94276 
L 109.263984 287.374039 
L 113.002827 286.727074 
L 116.74167 285.972313 
L 120.480513 285.648799 
L 124.219356 284.462759 
L 127.958199 283.707935 
L 131.697042 279.934003 
L 135.435885 276.375727 
L 139.174728 280.365313 
L 142.913571 280.041862 
L 146.652413 278.640105 
L 150.391256 278.100936 
L 154.130099 276.591382 
L 157.868942 275.513107 
L 161.607785 273.787898 
L 165.346628 273.033105 
L 169.085471 271.95483 
L 172.824314 270.6609 
L 176.563157 269.690484 
L 180.302 268.073071 
L 184.040843 267.749588 
L 187.779686 265.377415 
L 191.518529 261.819107 
L 195.257372 262.681758 
L 198.996215 257.613865 
L 202.735058 258.26083 
L 206.473901 257.613896 
L 210.212744 255.780829 
L 213.951587 253.947761 
L 217.69043 251.899069 
L 221.429273 250.712967 
L 225.168116 249.311241 
L 228.906959 247.046863 
L 232.645802 245.752933 
L 236.384645 243.488586 
L 240.123488 242.51817 
L 243.862331 239.499 
L 247.601174 237.450277 
L 251.340017 236.156378 
L 255.07886 232.705898 
L 258.817703 230.333755 
L 262.556546 228.716311 
L 266.295389 227.422412 
L 270.034232 224.942411 
L 273.773075 223.432794 
L 277.511918 219.658863 
L 281.250761 218.472791 
L 284.989604 214.159722 
L 288.728447 211.356238 
L 292.46729 210.493618 
L 296.206132 208.22924 
L 299.944975 182.135202 
L 303.683818 202.837927 
L 307.422661 198.524858 
L 311.161504 171.568168 
L 314.900347 169.303822 
L 318.63919 191.731788 
L 322.378033 190.114375 
L 326.116876 183.752583 
L 329.855719 183.105618 
L 333.594562 179.655169 
L 337.333405 175.234272 
L 341.072248 172.646443 
L 344.811091 169.196025 
L 348.549934 166.176855 
L 352.288777 163.265544 
L 356.02762 159.922891 
L 359.766463 158.521164 
L 363.505306 157.227234 
L 367.244149 151.620235 
L 370.982992 146.660201 
L 374.721835 146.013267 
L 378.460678 139.651506 
L 382.199521 137.171442 
L 385.938364 136.740164 
L 389.677207 128.32968 
L 393.41605 124.663576 
L 397.154893 120.781817 
L 400.893736 116.79223 
L 404.632579 108.273888 
L 408.371422 111.508714 
L 412.110265 105.793918 
L 415.849108 100.294746 
L 419.587951 101.157335 
L 423.326794 88.972952 
L 427.065637 39.696154 
L 430.80448 39.480468 
L 434.543323 81.640712 
L 438.282166 74.416331 
L 442.021009 73.553743 
" clip-path="url(#pf3e0f8b7da)" style="fill: none; stroke: #4c72b0; stroke-width: 0.75; stroke-linecap: round"/>
   </g>
   <g id="line2d_13">
    <path d="M 71.875554 293.277273 
L 75.614397 293.195528 
L 79.35324 293.059287 
L 83.092083 292.86855 
L 86.830926 292.623316 
L 90.569769 292.323586 
L 94.308612 291.96936 
L 98.047455 291.560637 
L 101.786298 291.097418 
L 105.525141 290.579703 
L 109.263984 290.007491 
L 113.002827 289.380783 
L 116.74167 288.699579 
L 120.480513 287.963878 
L 124.219356 287.173681 
L 127.958199 286.328987 
L 131.697042 285.429797 
L 135.435885 284.476111 
L 139.174728 283.467928 
L 142.913571 282.405249 
L 146.652413 281.288074 
L 150.391256 280.116402 
L 154.130099 278.890234 
L 157.868942 277.60957 
L 161.607785 276.274409 
L 165.346628 274.884752 
L 169.085471 273.440598 
L 172.824314 271.941948 
L 176.563157 270.388802 
L 180.302 268.781159 
L 184.040843 267.119021 
L 187.779686 265.402385 
L 191.518529 263.631254 
L 195.257372 261.805626 
L 198.996215 259.925501 
L 202.735058 257.99088 
L 206.473901 256.001763 
L 210.212744 253.95815 
L 213.951587 251.86004 
L 217.69043 249.707434 
L 221.429273 247.500331 
L 225.168116 245.238733 
L 228.906959 242.922637 
L 232.645802 240.552046 
L 236.384645 238.126958 
L 240.123488 235.647373 
L 243.862331 233.113293 
L 247.601174 230.524716 
L 251.340017 227.881642 
L 255.07886 225.184072 
L 258.817703 222.432006 
L 262.556546 219.625444 
L 266.295389 216.764385 
L 270.034232 213.84883 
L 273.773075 210.878778 
L 277.511918 207.85423 
L 281.250761 204.775186 
L 284.989604 201.641646 
L 288.728447 198.453609 
L 292.46729 195.211075 
L 296.206132 191.914045 
L 299.944975 188.562519 
L 303.683818 185.156497 
L 307.422661 181.695978 
L 311.161504 178.180963 
L 314.900347 174.611452 
L 318.63919 170.987444 
L 322.378033 167.30894 
L 326.116876 163.575939 
L 329.855719 159.788442 
L 333.594562 155.946449 
L 337.333405 152.049959 
L 341.072248 148.098973 
L 344.811091 144.093491 
L 348.549934 140.033512 
L 352.288777 135.919037 
L 356.02762 131.750065 
L 359.766463 127.526598 
L 363.505306 123.248633 
L 367.244149 118.916173 
L 370.982992 114.529216 
L 374.721835 110.087763 
L 378.460678 105.591813 
L 382.199521 101.041367 
L 385.938364 96.436425 
L 389.677207 91.776986 
L 393.41605 87.063051 
L 397.154893 82.29462 
L 400.893736 77.471692 
L 404.632579 72.594268 
L 408.371422 67.662348 
L 412.110265 62.675931 
L 415.849108 57.635018 
L 419.587951 52.539608 
L 423.326794 47.389702 
L 427.065637 42.1853 
L 430.80448 36.926401 
L 434.543323 31.613006 
L 438.282166 26.245115 
L 442.021009 20.822727 
" clip-path="url(#pf3e0f8b7da)" style="fill: none; stroke-dasharray: 5.55,2.4; stroke-dashoffset: 0; stroke: #ff0000; stroke-opacity: 0.8; stroke-width: 1.5"/>
   </g>
   <g id="line2d_14">
    <path d="M 71.875554 292.727723 
L 75.614397 292.150925 
L 79.35324 291.574126 
L 83.092083 290.997328 
L 86.830926 290.42053 
L 90.569769 289.843732 
L 94.308612 289.266934 
L 98.047455 288.690136 
L 101.786298 288.113337 
L 105.525141 287.536539 
L 109.263984 286.959741 
L 113.002827 286.382943 
L 116.74167 285.806145 
L 120.480513 285.229347 
L 124.219356 284.652548 
L 127.958199 284.07575 
L 131.697042 283.498952 
L 135.435885 282.922154 
L 139.174728 282.345356 
L 142.913571 281.768558 
L 146.652413 281.19176 
L 150.391256 280.614961 
L 154.130099 280.038163 
L 157.868942 279.461365 
L 161.607785 278.884567 
L 165.346628 278.307769 
L 169.085471 277.730971 
L 172.824314 277.154172 
L 176.563157 276.577374 
L 180.302 276.000576 
L 184.040843 275.423778 
L 187.779686 274.84698 
L 191.518529 274.270182 
L 195.257372 273.693383 
L 198.996215 273.116585 
L 202.735058 272.539787 
L 206.473901 271.962989 
L 210.212744 271.386191 
L 213.951587 270.809393 
L 217.69043 270.232594 
L 221.429273 269.655796 
L 225.168116 269.078998 
L 228.906959 268.5022 
L 232.645802 267.925402 
L 236.384645 267.348604 
L 240.123488 266.771805 
L 243.862331 266.195007 
L 247.601174 265.618209 
L 251.340017 265.041411 
L 255.07886 264.464613 
L 258.817703 263.887815 
L 262.556546 263.311016 
L 266.295389 262.734218 
L 270.034232 262.15742 
L 273.773075 261.580622 
L 277.511918 261.003824 
L 281.250761 260.427026 
L 284.989604 259.850228 
L 288.728447 259.273429 
L 292.46729 258.696631 
L 296.206132 258.119833 
L 299.944975 257.543035 
L 303.683818 256.966237 
L 307.422661 256.389439 
L 311.161504 255.81264 
L 314.900347 255.235842 
L 318.63919 254.659044 
L 322.378033 254.082246 
L 326.116876 253.505448 
L 329.855719 252.92865 
L 333.594562 252.351851 
L 337.333405 251.775053 
L 341.072248 251.198255 
L 344.811091 250.621457 
L 348.549934 250.044659 
L 352.288777 249.467861 
L 356.02762 248.891062 
L 359.766463 248.314264 
L 363.505306 247.737466 
L 367.244149 247.160668 
L 370.982992 246.58387 
L 374.721835 246.007072 
L 378.460678 245.430273 
L 382.199521 244.853475 
L 385.938364 244.276677 
L 389.677207 243.699879 
L 393.41605 243.123081 
L 397.154893 242.546283 
L 400.893736 241.969485 
L 404.632579 241.392686 
L 408.371422 240.815888 
L 412.110265 240.23909 
L 415.849108 239.662292 
L 419.587951 239.085494 
L 423.326794 238.508696 
L 427.065637 237.931897 
L 430.80448 237.355099 
L 434.543323 236.778301 
L 438.282166 236.201503 
L 442.021009 235.624705 
" clip-path="url(#pf3e0f8b7da)" style="fill: none; stroke-dasharray: 5.55,2.4; stroke-dashoffset: 0; stroke: #008000; stroke-opacity: 0.8; stroke-width: 1.5"/>
   </g>
   <g id="line2d_15">
    <path d="M 71.875554 292.986019 
L 75.614397 292.466565 
L 79.35324 291.871263 
L 83.092083 291.226704 
L 86.830926 290.54552 
L 90.569769 289.835147 
L 94.308612 289.100503 
L 98.047455 288.345079 
L 101.786298 287.571488 
L 105.525141 286.781757 
L 109.263984 285.977507 
L 113.002827 285.16006 
L 116.74167 284.33052 
L 120.480513 283.489818 
L 124.219356 282.638754 
L 127.958199 281.778018 
L 131.697042 280.908217 
L 135.435885 280.029884 
L 139.174728 279.143494 
L 142.913571 278.249471 
L 146.652413 277.348197 
L 150.391256 276.440018 
L 154.130099 275.525247 
L 157.868942 274.604172 
L 161.607785 273.677056 
L 165.346628 272.74414 
L 169.085471 271.805647 
L 172.824314 270.861784 
L 176.563157 269.912743 
L 180.302 268.958702 
L 184.040843 267.999829 
L 187.779686 267.036279 
L 191.518529 266.068198 
L 195.257372 265.095724 
L 198.996215 264.118986 
L 202.735058 263.138106 
L 206.473901 262.153199 
L 210.212744 261.164373 
L 213.951587 260.171733 
L 217.69043 259.175375 
L 221.429273 258.175393 
L 225.168116 257.171875 
L 228.906959 256.164905 
L 232.645802 255.154564 
L 236.384645 254.140928 
L 240.123488 253.124071 
L 243.862331 252.104062 
L 247.601174 251.080969 
L 251.340017 250.054855 
L 255.07886 249.025784 
L 258.817703 247.993812 
L 262.556546 246.958999 
L 266.295389 245.921397 
L 270.034232 244.881061 
L 273.773075 243.83804 
L 277.511918 242.792383 
L 281.250761 241.744137 
L 284.989604 240.693348 
L 288.728447 239.64006 
L 292.46729 238.584315 
L 296.206132 237.526154 
L 299.944975 236.465616 
L 303.683818 235.402741 
L 307.422661 234.337564 
L 311.161504 233.270122 
L 314.900347 232.20045 
L 318.63919 231.128582 
L 322.378033 230.05455 
L 326.116876 228.978386 
L 329.855719 227.900122 
L 333.594562 226.819786 
L 337.333405 225.737409 
L 341.072248 224.653018 
L 344.811091 223.566642 
L 348.549934 222.478307 
L 352.288777 221.388039 
L 356.02762 220.295863 
L 359.766463 219.201805 
L 363.505306 218.105889 
L 367.244149 217.008137 
L 370.982992 215.908574 
L 374.721835 214.807221 
L 378.460678 213.7041 
L 382.199521 212.599232 
L 385.938364 211.492639 
L 389.677207 210.384341 
L 393.41605 209.274357 
L 397.154893 208.162706 
L 400.893736 207.049409 
L 404.632579 205.934482 
L 408.371422 204.817945 
L 412.110265 203.699816 
L 415.849108 202.58011 
L 419.587951 201.458846 
L 423.326794 200.336039 
L 427.065637 199.211707 
L 430.80448 198.085865 
L 434.543323 196.958528 
L 438.282166 195.829712 
L 442.021009 194.699432 
" clip-path="url(#pf3e0f8b7da)" style="fill: none; stroke-dasharray: 5.55,2.4; stroke-dashoffset: 0; stroke: #ffa500; stroke-opacity: 0.8; stroke-width: 1.5"/>
   </g>
   <g id="patch_3">
    <path d="M 53.368281 306.9 
L 53.368281 7.2 
" style="fill: none; stroke: #cccccc; stroke-width: 1.25; stroke-linejoin: miter; stroke-linecap: square"/>
   </g>
   <g id="patch_4">
    <path d="M 53.368281 306.9 
L 460.528281 306.9 
" style="fill: none; stroke: #cccccc; stroke-width: 1.25; stroke-linejoin: miter; stroke-linecap: square"/>
   </g>
   <g id="legend_1">
    <g id="line2d_16">
     <path d="M 63.268281 365.759844 
L 74.268281 365.759844 
L 85.268281 365.759844 
" style="fill: none; stroke: #4c72b0; stroke-width: 0.75; stroke-linecap: round"/>
    </g>
    <g id="text_14">
     <!-- bubble_sort -->
     <g style="fill: #262626" transform="translate(94.068281 369.609844) scale(0.11 -0.11)">
      <defs>
       <path id="ArialMT-62" d="M 941 0 
L 419 0 
L 419 4581 
L 981 4581 
L 981 2947 
Q 1338 3394 1891 3394 
Q 2197 3394 2470 3270 
Q 2744 3147 2920 2923 
Q 3097 2700 3197 2384 
Q 3297 2069 3297 1709 
Q 3297 856 2875 390 
Q 2453 -75 1863 -75 
Q 1275 -75 941 416 
L 941 0 
z
M 934 1684 
Q 934 1088 1097 822 
Q 1363 388 1816 388 
Q 2184 388 2453 708 
Q 2722 1028 2722 1663 
Q 2722 2313 2464 2622 
Q 2206 2931 1841 2931 
Q 1472 2931 1203 2611 
Q 934 2291 934 1684 
z
" transform="scale(0.015625)"/>
       <path id="ArialMT-6c" d="M 409 0 
L 409 4581 
L 972 4581 
L 972 0 
L 409 0 
z
" transform="scale(0.015625)"/>
       <path id="ArialMT-5f" d="M -97 -1272 
L -97 -866 
L 3631 -866 
L 3631 -1272 
L -97 -1272 
z
" transform="scale(0.015625)"/>
       <path id="ArialMT-72" d="M 416 0 
L 416 3319 
L 922 3319 
L 922 2816 
Q 1116 3169 1280 3281 
Q 1444 3394 1641 3394 
Q 1925 3394 2219 3213 
L 2025 2691 
Q 1819 2813 1613 2813 
Q 1428 2813 1281 2702 
Q 1134 2591 1072 2394 
Q 978 2094 978 1738 
L 978 0 
L 416 0 
z
" transform="scale(0.015625)"/>
      </defs>
      <use xlink:href="#ArialMT-62"/>
      <use xlink:href="#ArialMT-75" x="55.615234"/>
      <use xlink:href="#ArialMT-62" x="111.230469"/>
      <use xlink:href="#ArialMT-62" x="166.845703"/>
      <use xlink:href="#ArialMT-6c" x="222.460938"/>
      <use xlink:href="#ArialMT-65" x="244.677734"/>
      <use xlink:href="#ArialMT-5f" x="300.292969"/>
      <use xlink:href="#ArialMT-73" x="355.908203"/>
      <use xlink:href="#ArialMT-6f" x="405.908203"/>
      <use xlink:href="#ArialMT-72" x="461.523438"/>
      <use xlink:href="#ArialMT-74" x="494.824219"/>
     </g>
    </g>
    <g id="line2d_17">
     <path d="M 173.550156 365.759844 
L 184.550156 365.759844 
L 195.550156 365.759844 
" style="fill: none; stroke-dasharray: 5.55,2.4; stroke-dashoffset: 0; stroke: #ff0000; stroke-opacity: 0.8; stroke-width: 1.5"/>
    </g>
    <g id="text_15">
     <!-- O(n^2) -->
     <g style="fill: #262626" transform="translate(204.350156 369.609844) scale(0.11 -0.11)">
      <defs>
       <path id="ArialMT-4f" d="M 309 2231 
Q 309 3372 921 4017 
Q 1534 4663 2503 4663 
Q 3138 4663 3647 4359 
Q 4156 4056 4423 3514 
Q 4691 2972 4691 2284 
Q 4691 1588 4409 1038 
Q 4128 488 3612 205 
Q 3097 -78 2500 -78 
Q 1853 -78 1343 234 
Q 834 547 571 1087 
Q 309 1628 309 2231 
z
M 934 2222 
Q 934 1394 1379 917 
Q 1825 441 2497 441 
Q 3181 441 3623 922 
Q 4066 1403 4066 2288 
Q 4066 2847 3877 3264 
Q 3688 3681 3323 3911 
Q 2959 4141 2506 4141 
Q 1863 4141 1398 3698 
Q 934 3256 934 2222 
z
" transform="scale(0.015625)"/>
       <path id="ArialMT-5e" d="M 747 2156 
L 169 2156 
L 1272 4659 
L 1725 4659 
L 2834 2156 
L 2269 2156 
L 1497 4022 
L 747 2156 
z
" transform="scale(0.015625)"/>
      </defs>
      <use xlink:href="#ArialMT-4f"/>
      <use xlink:href="#ArialMT-28" x="77.783203"/>
      <use xlink:href="#ArialMT-6e" x="111.083984"/>
      <use xlink:href="#ArialMT-5e" x="166.699219"/>
      <use xlink:href="#ArialMT-32" x="213.623047"/>
      <use xlink:href="#ArialMT-29" x="269.238281"/>
     </g>
    </g>
    <g id="line2d_18">
     <path d="M 259.626875 365.759844 
L 270.626875 365.759844 
L 281.626875 365.759844 
" style="fill: none; stroke-dasharray: 5.55,2.4; stroke-dashoffset: 0; stroke: #008000; stroke-opacity: 0.8; stroke-width: 1.5"/>
    </g>
    <g id="text_16">
     <!-- O(n) -->
     <g style="fill: #262626" transform="translate(290.426875 369.609844) scale(0.11 -0.11)">
      <use xlink:href="#ArialMT-4f"/>
      <use xlink:href="#ArialMT-28" x="77.783203"/>
      <use xlink:href="#ArialMT-6e" x="111.083984"/>
      <use xlink:href="#ArialMT-29" x="166.699219"/>
     </g>
    </g>
    <g id="line2d_19">
     <path d="M 334.425156 365.759844 
L 345.425156 365.759844 
L 356.425156 365.759844 
" style="fill: none; stroke-dasharray: 5.55,2.4; stroke-dashoffset: 0; stroke: #ffa500; stroke-opacity: 0.8; stroke-width: 1.5"/>
    </g>
    <g id="text_17">
     <!-- O(n*log(n)) -->
     <g style="fill: #262626" transform="translate(365.225156 369.609844) scale(0.11 -0.11)">
      <defs>
       <path id="ArialMT-2a" d="M 200 3741 
L 344 4184 
Q 841 4009 1066 3881 
Q 1006 4447 1003 4659 
L 1456 4659 
Q 1447 4350 1384 3884 
Q 1706 4047 2122 4184 
L 2266 3741 
Q 1869 3609 1488 3566 
Q 1678 3400 2025 2975 
L 1650 2709 
Q 1469 2956 1222 3381 
Q 991 2941 816 2709 
L 447 2975 
Q 809 3422 966 3566 
Q 563 3644 200 3741 
z
" transform="scale(0.015625)"/>
       <path id="ArialMT-67" d="M 319 -275 
L 866 -356 
Q 900 -609 1056 -725 
Q 1266 -881 1628 -881 
Q 2019 -881 2231 -725 
Q 2444 -569 2519 -288 
Q 2563 -116 2559 434 
Q 2191 0 1641 0 
Q 956 0 581 494 
Q 206 988 206 1678 
Q 206 2153 378 2554 
Q 550 2956 876 3175 
Q 1203 3394 1644 3394 
Q 2231 3394 2613 2919 
L 2613 3319 
L 3131 3319 
L 3131 450 
Q 3131 -325 2973 -648 
Q 2816 -972 2473 -1159 
Q 2131 -1347 1631 -1347 
Q 1038 -1347 672 -1080 
Q 306 -813 319 -275 
z
M 784 1719 
Q 784 1066 1043 766 
Q 1303 466 1694 466 
Q 2081 466 2343 764 
Q 2606 1063 2606 1700 
Q 2606 2309 2336 2618 
Q 2066 2928 1684 2928 
Q 1309 2928 1046 2623 
Q 784 2319 784 1719 
z
" transform="scale(0.015625)"/>
      </defs>
      <use xlink:href="#ArialMT-4f"/>
      <use xlink:href="#ArialMT-28" x="77.783203"/>
      <use xlink:href="#ArialMT-6e" x="111.083984"/>
      <use xlink:href="#ArialMT-2a" x="166.699219"/>
      <use xlink:href="#ArialMT-6c" x="205.615234"/>
      <use xlink:href="#ArialMT-6f" x="227.832031"/>
      <use xlink:href="#ArialMT-67" x="283.447266"/>
      <use xlink:href="#ArialMT-28" x="339.0625"/>
      <use xlink:href="#ArialMT-6e" x="372.363281"/>
      <use xlink:href="#ArialMT-29" x="427.978516"/>
      <use xlink:href="#ArialMT-29" x="461.279297"/>
     </g>
    </g>
   </g>
  </g>
 </g>
 <defs>
  <clipPath id="pf3e0f8b7da">
   <rect x="53.368281" y="7.2" width="407.16" height="299.7"/>
  </clipPath>
 </defs>
</svg>
