<?xml version="1.0" encoding="utf-8" standalone="no"?>
<!DOCTYPE svg PUBLIC "-//W3C//DTD SVG 1.1//EN"
  "http://www.w3.org/Graphics/SVG/1.1/DTD/svg11.dtd">
<svg xmlns:xlink="http://www.w3.org/1999/xlink" width="467.64125pt" height="383.525pt" viewBox="0 0 467.64125 383.525" xmlns="http://www.w3.org/2000/svg" version="1.1">
 <metadata>
  <rdf:RDF xmlns:dc="http://purl.org/dc/elements/1.1/" xmlns:cc="http://creativecommons.org/ns#" xmlns:rdf="http://www.w3.org/1999/02/22-rdf-syntax-ns#">
   <cc:Work>
    <dc:type rdf:resource="http://purl.org/dc/dcmitype/StillImage"/>
    <dc:date>2024-12-12T11:11:53.629046</dc:date>
    <dc:format>image/svg+xml</dc:format>
    <dc:creator>
     <cc:Agent>
      <dc:title>Matplotlib v3.9.3, https://matplotlib.org/</dc:title>
     </cc:Agent>
    </dc:creator>
   </cc:Work>
  </rdf:RDF>
 </metadata>
 <defs>
  <style type="text/css">*{stroke-linejoin: round; stroke-linecap: butt}</style>
 </defs>
 <g id="figure_1">
  <g id="patch_1">
   <path d="M 0 383.525 
L 467.64125 383.525 
L 467.64125 0 
L 0 0 
z
" style="fill: #ffffff"/>
  </g>
  <g id="axes_1">
   <g id="patch_2">
    <path d="M 47.25125 306.9 
L 460.44125 306.9 
L 460.44125 7.2 
L 47.25125 7.2 
z
" style="fill: #ffffff"/>
   </g>
   <g id="matplotlib.axis_1">
    <g id="xtick_1">
     <g id="line2d_1">
      <path d="M 65.65661 306.9 
L 65.65661 7.2 
" clip-path="url(#p4652cd582a)" style="fill: none; stroke: #cccccc; stroke-linecap: round"/>
     </g>
     <g id="text_1">
      <!-- 0 -->
      <g style="fill: #262626" transform="translate(62.598095 324.273594) scale(0.11 -0.11)">
       <defs>
        <path id="ArialMT-30" d="M 266 2259 
Q 266 3072 433 3567 
Q 600 4063 929 4331 
Q 1259 4600 1759 4600 
Q 2128 4600 2406 4451 
Q 2684 4303 2865 4023 
Q 3047 3744 3150 3342 
Q 3253 2941 3253 2259 
Q 3253 1453 3087 958 
Q 2922 463 2592 192 
Q 2263 -78 1759 -78 
Q 1097 -78 719 397 
Q 266 969 266 2259 
z
M 844 2259 
Q 844 1131 1108 757 
Q 1372 384 1759 384 
Q 2147 384 2411 759 
Q 2675 1134 2675 2259 
Q 2675 3391 2411 3762 
Q 2147 4134 1753 4134 
Q 1366 4134 1134 3806 
Q 844 3388 844 2259 
z
" transform="scale(0.015625)"/>
       </defs>
       <use xlink:href="#ArialMT-30"/>
      </g>
     </g>
    </g>
    <g id="xtick_2">
     <g id="line2d_2">
      <path d="M 140.857266 306.9 
L 140.857266 7.2 
" clip-path="url(#p4652cd582a)" style="fill: none; stroke: #cccccc; stroke-linecap: round"/>
     </g>
     <g id="text_2">
      <!-- 200 -->
      <g style="fill: #262626" transform="translate(131.681719 324.273594) scale(0.11 -0.11)">
       <defs>
        <path id="ArialMT-32" d="M 3222 541 
L 3222 0 
L 194 0 
Q 188 203 259 391 
Q 375 700 629 1000 
Q 884 1300 1366 1694 
Q 2113 2306 2375 2664 
Q 2638 3022 2638 3341 
Q 2638 3675 2398 3904 
Q 2159 4134 1775 4134 
Q 1369 4134 1125 3890 
Q 881 3647 878 3216 
L 300 3275 
Q 359 3922 746 4261 
Q 1134 4600 1788 4600 
Q 2447 4600 2831 4234 
Q 3216 3869 3216 3328 
Q 3216 3053 3103 2787 
Q 2991 2522 2730 2228 
Q 2469 1934 1863 1422 
Q 1356 997 1212 845 
Q 1069 694 975 541 
L 3222 541 
z
" transform="scale(0.015625)"/>
       </defs>
       <use xlink:href="#ArialMT-32"/>
       <use xlink:href="#ArialMT-30" x="55.615234"/>
       <use xlink:href="#ArialMT-30" x="111.230469"/>
      </g>
     </g>
    </g>
    <g id="xtick_3">
     <g id="line2d_3">
      <path d="M 216.057921 306.9 
L 216.057921 7.2 
" clip-path="url(#p4652cd582a)" style="fill: none; stroke: #cccccc; stroke-linecap: round"/>
     </g>
     <g id="text_3">
      <!-- 400 -->
      <g style="fill: #262626" transform="translate(206.882374 324.273594) scale(0.11 -0.11)">
       <defs>
        <path id="ArialMT-34" d="M 2069 0 
L 2069 1097 
L 81 1097 
L 81 1613 
L 2172 4581 
L 2631 4581 
L 2631 1613 
L 3250 1613 
L 3250 1097 
L 2631 1097 
L 2631 0 
L 2069 0 
z
M 2069 1613 
L 2069 3678 
L 634 1613 
L 2069 1613 
z
" transform="scale(0.015625)"/>
       </defs>
       <use xlink:href="#ArialMT-34"/>
       <use xlink:href="#ArialMT-30" x="55.615234"/>
       <use xlink:href="#ArialMT-30" x="111.230469"/>
      </g>
     </g>
    </g>
    <g id="xtick_4">
     <g id="line2d_4">
      <path d="M 291.258576 306.9 
L 291.258576 7.2 
" clip-path="url(#p4652cd582a)" style="fill: none; stroke: #cccccc; stroke-linecap: round"/>
     </g>
     <g id="text_4">
      <!-- 600 -->
      <g style="fill: #262626" transform="translate(282.083029 324.273594) scale(0.11 -0.11)">
       <defs>
        <path id="ArialMT-36" d="M 3184 3459 
L 2625 3416 
Q 2550 3747 2413 3897 
Q 2184 4138 1850 4138 
Q 1581 4138 1378 3988 
Q 1113 3794 959 3422 
Q 806 3050 800 2363 
Q 1003 2672 1297 2822 
Q 1591 2972 1913 2972 
Q 2475 2972 2870 2558 
Q 3266 2144 3266 1488 
Q 3266 1056 3080 686 
Q 2894 316 2569 119 
Q 2244 -78 1831 -78 
Q 1128 -78 684 439 
Q 241 956 241 2144 
Q 241 3472 731 4075 
Q 1159 4600 1884 4600 
Q 2425 4600 2770 4297 
Q 3116 3994 3184 3459 
z
M 888 1484 
Q 888 1194 1011 928 
Q 1134 663 1356 523 
Q 1578 384 1822 384 
Q 2178 384 2434 671 
Q 2691 959 2691 1453 
Q 2691 1928 2437 2201 
Q 2184 2475 1800 2475 
Q 1419 2475 1153 2201 
Q 888 1928 888 1484 
z
" transform="scale(0.015625)"/>
       </defs>
       <use xlink:href="#ArialMT-36"/>
       <use xlink:href="#ArialMT-30" x="55.615234"/>
       <use xlink:href="#ArialMT-30" x="111.230469"/>
      </g>
     </g>
    </g>
    <g id="xtick_5">
     <g id="line2d_5">
      <path d="M 366.459231 306.9 
L 366.459231 7.2 
" clip-path="url(#p4652cd582a)" style="fill: none; stroke: #cccccc; stroke-linecap: round"/>
     </g>
     <g id="text_5">
      <!-- 800 -->
      <g style="fill: #262626" transform="translate(357.283684 324.273594) scale(0.11 -0.11)">
       <defs>
        <path id="ArialMT-38" d="M 1131 2484 
Q 781 2613 612 2850 
Q 444 3088 444 3419 
Q 444 3919 803 4259 
Q 1163 4600 1759 4600 
Q 2359 4600 2725 4251 
Q 3091 3903 3091 3403 
Q 3091 3084 2923 2848 
Q 2756 2613 2416 2484 
Q 2838 2347 3058 2040 
Q 3278 1734 3278 1309 
Q 3278 722 2862 322 
Q 2447 -78 1769 -78 
Q 1091 -78 675 323 
Q 259 725 259 1325 
Q 259 1772 486 2073 
Q 713 2375 1131 2484 
z
M 1019 3438 
Q 1019 3113 1228 2906 
Q 1438 2700 1772 2700 
Q 2097 2700 2305 2904 
Q 2513 3109 2513 3406 
Q 2513 3716 2298 3927 
Q 2084 4138 1766 4138 
Q 1444 4138 1231 3931 
Q 1019 3725 1019 3438 
z
M 838 1322 
Q 838 1081 952 856 
Q 1066 631 1291 507 
Q 1516 384 1775 384 
Q 2178 384 2440 643 
Q 2703 903 2703 1303 
Q 2703 1709 2433 1975 
Q 2163 2241 1756 2241 
Q 1359 2241 1098 1978 
Q 838 1716 838 1322 
z
" transform="scale(0.015625)"/>
       </defs>
       <use xlink:href="#ArialMT-38"/>
       <use xlink:href="#ArialMT-30" x="55.615234"/>
       <use xlink:href="#ArialMT-30" x="111.230469"/>
      </g>
     </g>
    </g>
    <g id="xtick_6">
     <g id="line2d_6">
      <path d="M 441.659886 306.9 
L 441.659886 7.2 
" clip-path="url(#p4652cd582a)" style="fill: none; stroke: #cccccc; stroke-linecap: round"/>
     </g>
     <g id="text_6">
      <!-- 1000 -->
      <g style="fill: #262626" transform="translate(429.425824 324.273594) scale(0.11 -0.11)">
       <defs>
        <path id="ArialMT-31" d="M 2384 0 
L 1822 0 
L 1822 3584 
Q 1619 3391 1289 3197 
Q 959 3003 697 2906 
L 697 3450 
Q 1169 3672 1522 3987 
Q 1875 4303 2022 4600 
L 2384 4600 
L 2384 0 
z
" transform="scale(0.015625)"/>
       </defs>
       <use xlink:href="#ArialMT-31"/>
       <use xlink:href="#ArialMT-30" x="55.615234"/>
       <use xlink:href="#ArialMT-30" x="111.230469"/>
       <use xlink:href="#ArialMT-30" x="166.845703"/>
      </g>
     </g>
    </g>
    <g id="text_7">
     <!-- Input Size -->
     <g style="fill: #262626" transform="translate(227.164062 339.195469) scale(0.12 -0.12)">
      <defs>
       <path id="ArialMT-49" d="M 597 0 
L 597 4581 
L 1203 4581 
L 1203 0 
L 597 0 
z
" transform="scale(0.015625)"/>
       <path id="ArialMT-6e" d="M 422 0 
L 422 3319 
L 928 3319 
L 928 2847 
Q 1294 3394 1984 3394 
Q 2284 3394 2536 3286 
Q 2788 3178 2913 3003 
Q 3038 2828 3088 2588 
Q 3119 2431 3119 2041 
L 3119 0 
L 2556 0 
L 2556 2019 
Q 2556 2363 2490 2533 
Q 2425 2703 2258 2804 
Q 2091 2906 1866 2906 
Q 1506 2906 1245 2678 
Q 984 2450 984 1813 
L 984 0 
L 422 0 
z
" transform="scale(0.015625)"/>
       <path id="ArialMT-70" d="M 422 -1272 
L 422 3319 
L 934 3319 
L 934 2888 
Q 1116 3141 1344 3267 
Q 1572 3394 1897 3394 
Q 2322 3394 2647 3175 
Q 2972 2956 3137 2557 
Q 3303 2159 3303 1684 
Q 3303 1175 3120 767 
Q 2938 359 2589 142 
Q 2241 -75 1856 -75 
Q 1575 -75 1351 44 
Q 1128 163 984 344 
L 984 -1272 
L 422 -1272 
z
M 931 1641 
Q 931 1000 1190 694 
Q 1450 388 1819 388 
Q 2194 388 2461 705 
Q 2728 1022 2728 1688 
Q 2728 2322 2467 2637 
Q 2206 2953 1844 2953 
Q 1484 2953 1207 2617 
Q 931 2281 931 1641 
z
" transform="scale(0.015625)"/>
       <path id="ArialMT-75" d="M 2597 0 
L 2597 488 
Q 2209 -75 1544 -75 
Q 1250 -75 995 37 
Q 741 150 617 320 
Q 494 491 444 738 
Q 409 903 409 1263 
L 409 3319 
L 972 3319 
L 972 1478 
Q 972 1038 1006 884 
Q 1059 663 1231 536 
Q 1403 409 1656 409 
Q 1909 409 2131 539 
Q 2353 669 2445 892 
Q 2538 1116 2538 1541 
L 2538 3319 
L 3100 3319 
L 3100 0 
L 2597 0 
z
" transform="scale(0.015625)"/>
       <path id="ArialMT-74" d="M 1650 503 
L 1731 6 
Q 1494 -44 1306 -44 
Q 1000 -44 831 53 
Q 663 150 594 308 
Q 525 466 525 972 
L 525 2881 
L 113 2881 
L 113 3319 
L 525 3319 
L 525 4141 
L 1084 4478 
L 1084 3319 
L 1650 3319 
L 1650 2881 
L 1084 2881 
L 1084 941 
Q 1084 700 1114 631 
Q 1144 563 1211 522 
Q 1278 481 1403 481 
Q 1497 481 1650 503 
z
" transform="scale(0.015625)"/>
       <path id="ArialMT-20" transform="scale(0.015625)"/>
       <path id="ArialMT-53" d="M 288 1472 
L 859 1522 
Q 900 1178 1048 958 
Q 1197 738 1509 602 
Q 1822 466 2213 466 
Q 2559 466 2825 569 
Q 3091 672 3220 851 
Q 3350 1031 3350 1244 
Q 3350 1459 3225 1620 
Q 3100 1781 2813 1891 
Q 2628 1963 1997 2114 
Q 1366 2266 1113 2400 
Q 784 2572 623 2826 
Q 463 3081 463 3397 
Q 463 3744 659 4045 
Q 856 4347 1234 4503 
Q 1613 4659 2075 4659 
Q 2584 4659 2973 4495 
Q 3363 4331 3572 4012 
Q 3781 3694 3797 3291 
L 3216 3247 
Q 3169 3681 2898 3903 
Q 2628 4125 2100 4125 
Q 1550 4125 1298 3923 
Q 1047 3722 1047 3438 
Q 1047 3191 1225 3031 
Q 1400 2872 2139 2705 
Q 2878 2538 3153 2413 
Q 3553 2228 3743 1945 
Q 3934 1663 3934 1294 
Q 3934 928 3725 604 
Q 3516 281 3123 101 
Q 2731 -78 2241 -78 
Q 1619 -78 1198 103 
Q 778 284 539 648 
Q 300 1013 288 1472 
z
" transform="scale(0.015625)"/>
       <path id="ArialMT-69" d="M 425 3934 
L 425 4581 
L 988 4581 
L 988 3934 
L 425 3934 
z
M 425 0 
L 425 3319 
L 988 3319 
L 988 0 
L 425 0 
z
" transform="scale(0.015625)"/>
       <path id="ArialMT-7a" d="M 125 0 
L 125 456 
L 2238 2881 
Q 1878 2863 1603 2863 
L 250 2863 
L 250 3319 
L 2963 3319 
L 2963 2947 
L 1166 841 
L 819 456 
Q 1197 484 1528 484 
L 3063 484 
L 3063 0 
L 125 0 
z
" transform="scale(0.015625)"/>
       <path id="ArialMT-65" d="M 2694 1069 
L 3275 997 
Q 3138 488 2766 206 
Q 2394 -75 1816 -75 
Q 1088 -75 661 373 
Q 234 822 234 1631 
Q 234 2469 665 2931 
Q 1097 3394 1784 3394 
Q 2450 3394 2872 2941 
Q 3294 2488 3294 1666 
Q 3294 1616 3291 1516 
L 816 1516 
Q 847 969 1125 678 
Q 1403 388 1819 388 
Q 2128 388 2347 550 
Q 2566 713 2694 1069 
z
M 847 1978 
L 2700 1978 
Q 2663 2397 2488 2606 
Q 2219 2931 1791 2931 
Q 1403 2931 1139 2672 
Q 875 2413 847 1978 
z
" transform="scale(0.015625)"/>
      </defs>
      <use xlink:href="#ArialMT-49"/>
      <use xlink:href="#ArialMT-6e" x="27.783203"/>
      <use xlink:href="#ArialMT-70" x="83.398438"/>
      <use xlink:href="#ArialMT-75" x="139.013672"/>
      <use xlink:href="#ArialMT-74" x="194.628906"/>
      <use xlink:href="#ArialMT-20" x="222.412109"/>
      <use xlink:href="#ArialMT-53" x="250.195312"/>
      <use xlink:href="#ArialMT-69" x="316.894531"/>
      <use xlink:href="#ArialMT-7a" x="339.111328"/>
      <use xlink:href="#ArialMT-65" x="389.111328"/>
     </g>
    </g>
   </g>
   <g id="matplotlib.axis_2">
    <g id="ytick_1">
     <g id="line2d_7">
      <path d="M 47.25125 293.277273 
L 460.44125 293.277273 
" clip-path="url(#p4652cd582a)" style="fill: none; stroke: #cccccc; stroke-linecap: round"/>
     </g>
     <g id="text_8">
      <!-- 0.0 -->
      <g style="fill: #262626" transform="translate(22.46125 297.21407) scale(0.11 -0.11)">
       <defs>
        <path id="ArialMT-2e" d="M 581 0 
L 581 641 
L 1222 641 
L 1222 0 
L 581 0 
z
" transform="scale(0.015625)"/>
       </defs>
       <use xlink:href="#ArialMT-30"/>
       <use xlink:href="#ArialMT-2e" x="55.615234"/>
       <use xlink:href="#ArialMT-30" x="83.398438"/>
      </g>
     </g>
    </g>
    <g id="ytick_2">
     <g id="line2d_8">
      <path d="M 47.25125 234.988874 
L 460.44125 234.988874 
" clip-path="url(#p4652cd582a)" style="fill: none; stroke: #cccccc; stroke-linecap: round"/>
     </g>
     <g id="text_9">
      <!-- 0.2 -->
      <g style="fill: #262626" transform="translate(22.46125 238.925671) scale(0.11 -0.11)">
       <use xlink:href="#ArialMT-30"/>
       <use xlink:href="#ArialMT-2e" x="55.615234"/>
       <use xlink:href="#ArialMT-32" x="83.398438"/>
      </g>
     </g>
    </g>
    <g id="ytick_3">
     <g id="line2d_9">
      <path d="M 47.25125 176.700476 
L 460.44125 176.700476 
" clip-path="url(#p4652cd582a)" style="fill: none; stroke: #cccccc; stroke-linecap: round"/>
     </g>
     <g id="text_10">
      <!-- 0.4 -->
      <g style="fill: #262626" transform="translate(22.46125 180.637273) scale(0.11 -0.11)">
       <use xlink:href="#ArialMT-30"/>
       <use xlink:href="#ArialMT-2e" x="55.615234"/>
       <use xlink:href="#ArialMT-34" x="83.398438"/>
      </g>
     </g>
    </g>
    <g id="ytick_4">
     <g id="line2d_10">
      <path d="M 47.25125 118.412078 
L 460.44125 118.412078 
" clip-path="url(#p4652cd582a)" style="fill: none; stroke: #cccccc; stroke-linecap: round"/>
     </g>
     <g id="text_11">
      <!-- 0.6 -->
      <g style="fill: #262626" transform="translate(22.46125 122.348875) scale(0.11 -0.11)">
       <use xlink:href="#ArialMT-30"/>
       <use xlink:href="#ArialMT-2e" x="55.615234"/>
       <use xlink:href="#ArialMT-36" x="83.398438"/>
      </g>
     </g>
    </g>
    <g id="ytick_5">
     <g id="line2d_11">
      <path d="M 47.25125 60.12368 
L 460.44125 60.12368 
" clip-path="url(#p4652cd582a)" style="fill: none; stroke: #cccccc; stroke-linecap: round"/>
     </g>
     <g id="text_12">
      <!-- 0.8 -->
      <g style="fill: #262626" transform="translate(22.46125 64.060477) scale(0.11 -0.11)">
       <use xlink:href="#ArialMT-30"/>
       <use xlink:href="#ArialMT-2e" x="55.615234"/>
       <use xlink:href="#ArialMT-38" x="83.398438"/>
      </g>
     </g>
    </g>
    <g id="text_13">
     <!-- Execution Time (ms) -->
     <g style="fill: #262626" transform="translate(15.935625 211.727812) rotate(-90) scale(0.12 -0.12)">
      <defs>
       <path id="ArialMT-45" d="M 506 0 
L 506 4581 
L 3819 4581 
L 3819 4041 
L 1113 4041 
L 1113 2638 
L 3647 2638 
L 3647 2100 
L 1113 2100 
L 1113 541 
L 3925 541 
L 3925 0 
L 506 0 
z
" transform="scale(0.015625)"/>
       <path id="ArialMT-78" d="M 47 0 
L 1259 1725 
L 138 3319 
L 841 3319 
L 1350 2541 
Q 1494 2319 1581 2169 
Q 1719 2375 1834 2534 
L 2394 3319 
L 3066 3319 
L 1919 1756 
L 3153 0 
L 2463 0 
L 1781 1031 
L 1600 1309 
L 728 0 
L 47 0 
z
" transform="scale(0.015625)"/>
       <path id="ArialMT-63" d="M 2588 1216 
L 3141 1144 
Q 3050 572 2676 248 
Q 2303 -75 1759 -75 
Q 1078 -75 664 370 
Q 250 816 250 1647 
Q 250 2184 428 2587 
Q 606 2991 970 3192 
Q 1334 3394 1763 3394 
Q 2303 3394 2647 3120 
Q 2991 2847 3088 2344 
L 2541 2259 
Q 2463 2594 2264 2762 
Q 2066 2931 1784 2931 
Q 1359 2931 1093 2626 
Q 828 2322 828 1663 
Q 828 994 1084 691 
Q 1341 388 1753 388 
Q 2084 388 2306 591 
Q 2528 794 2588 1216 
z
" transform="scale(0.015625)"/>
       <path id="ArialMT-6f" d="M 213 1659 
Q 213 2581 725 3025 
Q 1153 3394 1769 3394 
Q 2453 3394 2887 2945 
Q 3322 2497 3322 1706 
Q 3322 1066 3130 698 
Q 2938 331 2570 128 
Q 2203 -75 1769 -75 
Q 1072 -75 642 372 
Q 213 819 213 1659 
z
M 791 1659 
Q 791 1022 1069 705 
Q 1347 388 1769 388 
Q 2188 388 2466 706 
Q 2744 1025 2744 1678 
Q 2744 2294 2464 2611 
Q 2184 2928 1769 2928 
Q 1347 2928 1069 2612 
Q 791 2297 791 1659 
z
" transform="scale(0.015625)"/>
       <path id="ArialMT-54" d="M 1659 0 
L 1659 4041 
L 150 4041 
L 150 4581 
L 3781 4581 
L 3781 4041 
L 2266 4041 
L 2266 0 
L 1659 0 
z
" transform="scale(0.015625)"/>
       <path id="ArialMT-6d" d="M 422 0 
L 422 3319 
L 925 3319 
L 925 2853 
Q 1081 3097 1340 3245 
Q 1600 3394 1931 3394 
Q 2300 3394 2536 3241 
Q 2772 3088 2869 2813 
Q 3263 3394 3894 3394 
Q 4388 3394 4653 3120 
Q 4919 2847 4919 2278 
L 4919 0 
L 4359 0 
L 4359 2091 
Q 4359 2428 4304 2576 
Q 4250 2725 4106 2815 
Q 3963 2906 3769 2906 
Q 3419 2906 3187 2673 
Q 2956 2441 2956 1928 
L 2956 0 
L 2394 0 
L 2394 2156 
Q 2394 2531 2256 2718 
Q 2119 2906 1806 2906 
Q 1569 2906 1367 2781 
Q 1166 2656 1075 2415 
Q 984 2175 984 1722 
L 984 0 
L 422 0 
z
" transform="scale(0.015625)"/>
       <path id="ArialMT-28" d="M 1497 -1347 
Q 1031 -759 709 28 
Q 388 816 388 1659 
Q 388 2403 628 3084 
Q 909 3875 1497 4659 
L 1900 4659 
Q 1522 4009 1400 3731 
Q 1209 3300 1100 2831 
Q 966 2247 966 1656 
Q 966 153 1900 -1347 
L 1497 -1347 
z
" transform="scale(0.015625)"/>
       <path id="ArialMT-73" d="M 197 991 
L 753 1078 
Q 800 744 1014 566 
Q 1228 388 1613 388 
Q 2000 388 2187 545 
Q 2375 703 2375 916 
Q 2375 1106 2209 1216 
Q 2094 1291 1634 1406 
Q 1016 1563 777 1677 
Q 538 1791 414 1992 
Q 291 2194 291 2438 
Q 291 2659 392 2848 
Q 494 3038 669 3163 
Q 800 3259 1026 3326 
Q 1253 3394 1513 3394 
Q 1903 3394 2198 3281 
Q 2494 3169 2634 2976 
Q 2775 2784 2828 2463 
L 2278 2388 
Q 2241 2644 2061 2787 
Q 1881 2931 1553 2931 
Q 1166 2931 1000 2803 
Q 834 2675 834 2503 
Q 834 2394 903 2306 
Q 972 2216 1119 2156 
Q 1203 2125 1616 2013 
Q 2213 1853 2448 1751 
Q 2684 1650 2818 1456 
Q 2953 1263 2953 975 
Q 2953 694 2789 445 
Q 2625 197 2315 61 
Q 2006 -75 1616 -75 
Q 969 -75 630 194 
Q 291 463 197 991 
z
" transform="scale(0.015625)"/>
       <path id="ArialMT-29" d="M 791 -1347 
L 388 -1347 
Q 1322 153 1322 1656 
Q 1322 2244 1188 2822 
Q 1081 3291 891 3722 
Q 769 4003 388 4659 
L 791 4659 
Q 1378 3875 1659 3084 
Q 1900 2403 1900 1659 
Q 1900 816 1576 28 
Q 1253 -759 791 -1347 
z
" transform="scale(0.015625)"/>
      </defs>
      <use xlink:href="#ArialMT-45"/>
      <use xlink:href="#ArialMT-78" x="66.699219"/>
      <use xlink:href="#ArialMT-65" x="116.699219"/>
      <use xlink:href="#ArialMT-63" x="172.314453"/>
      <use xlink:href="#ArialMT-75" x="222.314453"/>
      <use xlink:href="#ArialMT-74" x="277.929688"/>
      <use xlink:href="#ArialMT-69" x="305.712891"/>
      <use xlink:href="#ArialMT-6f" x="327.929688"/>
      <use xlink:href="#ArialMT-6e" x="383.544922"/>
      <use xlink:href="#ArialMT-20" x="439.160156"/>
      <use xlink:href="#ArialMT-54" x="465.193359"/>
      <use xlink:href="#ArialMT-69" x="522.527344"/>
      <use xlink:href="#ArialMT-6d" x="544.744141"/>
      <use xlink:href="#ArialMT-65" x="628.044922"/>
      <use xlink:href="#ArialMT-20" x="683.660156"/>
      <use xlink:href="#ArialMT-28" x="711.443359"/>
      <use xlink:href="#ArialMT-6d" x="744.744141"/>
      <use xlink:href="#ArialMT-73" x="828.044922"/>
      <use xlink:href="#ArialMT-29" x="878.044922"/>
     </g>
    </g>
   </g>
   <g id="PolyCollection_1"/>
   <g id="line2d_12">
    <path d="M 66.032614 293.18984 
L 69.04064 293.102408 
L 69.792646 293.073263 
L 76.560705 292.490379 
L 77.688715 292.28637 
L 78.816725 292.315514 
L 79.944735 292.169793 
L 81.448748 291.994928 
L 82.200755 291.645198 
L 82.576758 291.703486 
L 82.952761 291.601481 
L 83.328764 291.747202 
L 85.584784 291.3829 
L 85.960787 291.10603 
L 86.336791 291.091458 
L 86.712794 290.887448 
L 87.088797 291.17889 
L 90.472827 290.581434 
L 90.84883 290.435713 
L 91.224833 290.085983 
L 91.600836 290.333709 
L 91.97684 290.260848 
L 92.352843 289.823685 
L 92.728846 290.158843 
L 93.856856 289.794541 
L 94.232859 289.838257 
L 95.360869 289.634248 
L 96.112876 289.109652 
L 96.488879 289.167941 
L 96.864882 288.759922 
L 97.240886 288.54134 
L 97.616889 289.138796 
L 98.744899 288.81821 
L 99.120902 288.381047 
L 99.496905 288.701633 
L 99.872908 288.555912 
L 100.248912 288.599629 
L 100.624915 288.395619 
L 101.000918 288.439336 
L 103.256938 287.725303 
L 103.632941 287.069558 
L 104.008945 287.579582 
L 106.264964 287.098703 
L 106.640967 286.705256 
L 107.392974 286.880121 
L 108.144981 286.442958 
L 108.520984 285.787214 
L 108.896987 286.559535 
L 109.27299 286.282665 
L 109.648994 286.151516 
L 110.024997 286.166088 
L 110.777003 285.758069 
L 111.153007 285.962079 
L 111.52901 284.65059 
L 111.905013 285.583204 
L 112.281017 284.767167 
L 112.65702 285.350051 
L 113.78503 285.160613 
L 114.161033 284.213427 
L 114.537036 284.840027 
L 114.91304 284.767167 
L 115.289043 283.615971 
L 115.665046 284.636018 
L 116.041049 283.222524 
L 116.417053 284.359148 
L 116.793056 284.111422 
L 117.169059 284.169711 
L 117.545062 283.863696 
L 117.921066 283.047659 
L 118.297069 282.814505 
L 118.673072 283.732548 
L 119.049076 283.572254 
L 119.425079 282.042184 
L 119.801082 283.426533 
L 120.177085 283.251668 
L 120.553089 283.207952 
L 121.681098 282.668784 
L 122.433105 282.697928 
L 122.809108 282.421059 
L 123.185112 280.716123 
L 123.561115 281.80903 
L 123.937118 282.056756 
L 124.689125 281.605021 
L 125.065128 280.133239 
L 125.441131 281.634165 
L 125.817135 281.4593 
L 126.193138 280.788983 
L 126.945144 280.963849 
L 127.321148 279.317201 
L 127.697151 280.818128 
L 128.073154 280.62869 
L 128.825161 280.614118 
L 129.201164 280.162383 
L 129.577167 280.147811 
L 129.953171 279.054904 
L 130.329174 279.783509 
L 130.705177 278.238866 
L 131.08118 279.987518 
L 131.457184 279.521211 
L 131.833187 279.404634 
L 132.20919 277.932852 
L 132.585193 279.346346 
L 133.3372 279.186052 
L 133.713203 277.102242 
L 134.089207 278.748889 
L 134.841213 278.457447 
L 135.217216 278.501164 
L 135.59322 278.209722 
L 135.969223 278.180578 
L 136.72123 277.583122 
L 137.097233 276.213344 
L 137.473236 277.597694 
L 137.849239 276.767084 
L 138.225243 276.621363 
L 138.601246 276.300777 
L 138.977249 277.204247 
L 139.353252 276.665079 
L 139.729256 275.00386 
L 140.105259 275.222441 
L 140.481262 274.639557 
L 140.857266 276.198772 
L 141.233269 274.260683 
L 141.609272 275.892758 
L 141.985275 275.994763 
L 142.361279 275.703321 
L 142.737282 274.304399 
L 143.113285 275.499311 
L 143.489288 275.470167 
L 143.865292 274.79985 
L 144.241295 274.654129 
L 144.617298 273.371785 
L 144.993302 274.144106 
L 145.369305 272.978338 
L 145.745308 274.260683 
L 146.121311 274.10039 
L 146.497315 274.246111 
L 146.873318 274.202394 
L 147.625325 273.459217 
L 148.001328 271.593989 
L 148.377331 271.652277 
L 148.753334 270.894528 
L 149.129338 271.550272 
L 149.505341 273.138631 
L 150.257347 272.92005 
L 150.633351 270.690518 
L 151.009354 272.424598 
L 151.385357 269.947341 
L 151.761361 269.655899 
L 152.137364 271.841714 
L 152.513367 271.797998 
L 152.88937 271.477412 
L 153.265374 270.879956 
L 153.641377 268.82529 
L 154.01738 268.956439 
L 154.393383 268.62128 
L 154.769387 270.442793 
L 155.14539 268.82529 
L 155.521393 270.603086 
L 155.897397 270.384504 
L 156.2734 267.776098 
L 156.649403 270.195067 
L 157.025406 269.17502 
L 157.40141 269.597611 
L 157.777413 269.291597 
L 158.153416 269.17502 
L 158.52942 266.610331 
L 158.905423 269.218736 
L 159.281426 266.173168 
L 159.657429 268.009252 
L 160.033433 268.358982 
L 160.409436 266.071163 
L 160.785439 268.242406 
L 161.537446 267.892675 
L 161.913449 264.73053 
L 162.289452 267.615805 
L 162.665456 264.497376 
L 163.417462 264.147646 
L 163.793465 264.235078 
L 164.169469 263.666766 
L 164.545472 263.652194 
L 164.921475 263.797915 
L 165.297479 262.734152 
L 165.673482 262.705008 
L 166.049485 262.457282 
L 166.425488 262.748724 
L 166.801492 263.27332 
L 167.177495 263.011022 
L 167.929501 261.976403 
L 168.305505 261.845254 
L 168.681508 261.976403 
L 169.057511 261.393519 
L 169.433515 260.184035 
L 169.809518 262.807013 
L 170.185521 260.810635 
L 170.561524 260.839779 
L 170.937528 262.428138 
L 171.689534 259.965453 
L 172.065537 260.694058 
L 172.441541 259.586579 
L 173.193547 259.061983 
L 173.569551 259.717727 
L 173.945554 259.440858 
L 174.321557 261.160365 
L 174.69756 258.362522 
L 175.073564 258.785113 
L 175.449567 261.480951 
L 175.82557 258.508243 
L 176.201574 257.779638 
L 176.577577 257.72135 
L 177.329583 256.992745 
L 177.705587 259.367997 
L 178.08159 256.905312 
L 178.457593 256.26414 
L 178.833596 256.439005 
L 179.2096 255.856121 
L 179.585603 255.593823 
L 179.961606 256.016414 
L 180.33761 255.564679 
L 180.713613 255.608395 
L 181.089616 254.690353 
L 181.465619 254.748641 
L 181.841623 254.967223 
L 182.593629 254.355195 
L 182.969632 255.928982 
L 183.345636 253.42258 
L 183.721639 253.335148 
L 184.097642 253.510013 
L 184.473646 253.393436 
L 185.225652 252.51911 
L 185.601655 252.693975 
L 185.977659 251.732217 
L 186.353662 251.994515 
L 186.729665 251.134761 
L 187.481672 251.790505 
L 187.857675 251.251338 
L 188.233678 251.047328 
L 188.609682 250.581021 
L 188.985685 250.755886 
L 189.361688 249.735839 
L 189.737691 250.231291 
L 190.113695 249.196672 
L 190.489698 249.415253 
L 190.865701 249.356965 
L 191.241705 249.8087 
L 191.617708 249.371537 
L 191.993711 248.482639 
L 192.369714 249.109239 
L 192.745718 248.220341 
L 193.121721 248.264057 
L 193.497724 247.928899 
L 193.873727 248.205769 
L 194.249731 247.477164 
L 194.625734 247.710317 
L 195.001737 247.506308 
L 195.377741 246.763131 
L 195.753744 246.369684 
L 196.50575 246.675698 
L 196.881754 246.049098 
L 197.257757 245.917949 
L 197.63376 245.626507 
L 198.009764 245.597363 
L 198.385767 247.069145 
L 198.76177 245.393354 
L 199.513777 244.242158 
L 199.88978 244.562744 
L 200.265783 244.489883 
L 200.641786 243.542697 
L 201.01779 243.761278 
L 201.393793 243.804995 
L 201.769796 243.396976 
L 202.1458 246.26768 
L 202.521803 244.489883 
L 202.897806 245.058195 
L 203.273809 241.590036 
L 203.649813 242.231208 
L 204.025816 241.648324 
L 204.401819 242.318641 
L 205.153826 241.444315 
L 205.529829 240.599133 
L 205.905832 240.919719 
L 206.281836 240.293119 
L 206.657839 240.249402 
L 207.033842 239.404221 
L 207.409845 239.389649 
L 208.161852 241.604608 
L 208.537855 239.53537 
L 208.913859 239.812239 
L 209.289862 238.879625 
L 209.665865 238.544467 
L 210.041868 237.626425 
L 210.417872 238.034443 
L 210.793875 239.360504 
L 211.169878 240.016249 
L 211.545881 237.757573 
L 211.921885 236.795815 
L 212.297888 236.89782 
L 212.673891 236.256647 
L 213.049895 236.285791 
L 213.425898 236.781243 
L 213.801901 235.819484 
L 214.177904 235.192884 
L 214.553908 237.80129 
L 214.929911 237.611852 
L 215.305914 234.580856 
L 215.681917 234.580856 
L 216.057921 234.770293 
L 216.809927 233.094502 
L 217.185931 233.444232 
L 217.561934 233.021641 
L 218.31394 234.114549 
L 218.689944 236.912392 
L 219.065947 232.788487 
L 219.44195 231.302133 
L 219.817954 231.360422 
L 220.56996 230.777538 
L 220.945963 230.748394 
L 221.321967 230.879542 
L 221.69797 231.447854 
L 222.073973 230.719249 
L 222.449976 229.640914 
L 222.82598 231.710152 
L 223.201983 231.14184 
L 223.577986 230.107221 
L 223.95399 228.402285 
L 224.329993 228.606295 
L 224.705996 227.965123 
L 225.081999 227.994267 
L 225.458003 229.859495 
L 225.834006 227.52796 
L 226.210009 227.455099 
L 226.586012 226.507913 
L 226.962016 227.892262 
L 227.338019 226.799355 
L 227.714022 228.15456 
L 228.090026 227.52796 
L 228.466029 225.706447 
L 228.842032 226.318475 
L 229.218035 226.231043 
L 229.594039 225.531582 
L 229.970042 224.322098 
L 230.346045 224.904982 
L 230.722049 223.768358 
L 231.098052 224.526107 
L 231.474055 222.864888 
L 232.226062 225.895884 
L 232.602065 226.609917 
L 232.978068 224.103516 
L 233.354071 223.083469 
L 233.730075 222.631734 
L 234.106078 221.903129 
L 234.482081 222.209143 
L 234.858085 223.258334 
L 235.234088 221.014231 
L 235.610091 222.267432 
L 235.986094 223.010609 
L 236.362098 220.023328 
L 236.738101 219.469588 
L 237.114104 222.369436 
L 237.490107 224.351242 
L 238.242114 220.343914 
L 238.618117 219.892179 
L 238.994121 220.941371 
L 239.370124 220.023328 
L 239.746127 221.116236 
L 240.12213 217.88123 
L 240.498134 217.371206 
L 240.874137 218.755556 
L 241.25014 217.852085 
L 241.626144 218.944993 
L 242.002147 215.841136 
L 242.37815 217.706364 
L 242.754153 215.214535 
L 243.130157 215.301968 
L 243.50616 214.806517 
L 244.258166 214.456786 
L 244.63417 217.036048 
L 245.386176 215.826564 
L 245.76218 214.471358 
L 246.138183 216.030573 
L 246.514186 215.505977 
L 247.266193 210.551464 
L 247.642196 213.801042 
L 248.018199 215.199963 
L 248.394202 213.189014 
L 248.770206 214.41307 
L 249.146209 211.746376 
L 249.522212 213.611604 
L 249.898216 213.655321 
L 250.274219 212.737278 
L 250.650222 213.30559 
L 251.026225 208.613374 
L 251.402229 211.804664 
L 251.778232 212.32926 
L 252.154235 211.061487 
L 252.530239 211.84838 
L 252.906242 209.939435 
L 253.282245 211.586083 
L 253.658248 209.939435 
L 254.034252 210.012296 
L 254.410255 209.341979 
L 254.786258 205.844675 
L 255.162261 209.852003 
L 255.538265 208.58423 
L 255.914268 208.613374 
L 256.290271 207.782765 
L 256.666275 208.409365 
L 257.418281 208.074207 
L 257.794284 206.616997 
L 258.170288 206.427559 
L 258.546291 206.004968 
L 258.922294 206.092401 
L 259.298298 205.509517 
L 260.050304 205.611522 
L 260.426307 206.442131 
L 261.178314 205.203503 
L 261.554317 203.921158 
L 261.93032 201.822776 
L 262.682327 204.081451 
L 263.05833 204.518614 
L 263.434334 203.075976 
L 263.810337 202.901111 
L 264.18634 202.434804 
L 264.938347 200.992166 
L 265.31435 202.930255 
L 266.066356 198.558626 
L 266.44236 200.919306 
L 266.818363 199.505812 
L 267.194366 200.875589 
L 267.57037 198.646058 
L 267.946373 199.14151 
L 268.322376 200.992166 
L 268.698379 198.835495 
L 269.074383 198.675202 
L 269.450386 198.340044 
L 269.826389 198.398332 
L 270.202393 197.917453 
L 270.578396 198.252612 
L 270.954399 197.217992 
L 271.706406 197.276281 
L 272.082409 196.052224 
L 272.458412 196.066797 
L 272.834415 195.032178 
L 273.210419 194.347289 
L 273.586422 194.332717 
L 273.962425 194.172424 
L 274.338429 195.11961 
L 274.714432 195.411052 
L 275.090435 194.638731 
L 275.466438 191.826316 
L 275.842442 193.531251 
L 276.218445 193.822693 
L 276.594448 191.476585 
L 276.970451 191.491157 
L 277.346455 191.258004 
L 277.722458 192.962939 
L 278.098461 189.582212 
L 278.474465 190.820841 
L 278.850468 191.243432 
L 279.226471 191.112283 
L 279.602474 190.660548 
L 279.978478 189.757077 
L 280.354481 190.267101 
L 280.730484 188.999328 
L 281.106488 190.427394 
L 281.482491 189.247054 
L 281.858494 191.622306 
L 282.234497 189.800794 
L 282.610501 186.682364 
L 282.986504 188.358156 
L 283.362507 187.614979 
L 283.73851 187.192388 
L 284.114514 186.230629 
L 284.490517 188.445588 
L 284.86652 185.47288 
L 285.242524 186.405495 
L 285.618527 187.906421 
L 285.99453 184.992001 
L 286.370533 186.274346 
L 286.746537 185.735178 
L 287.12254 184.409117 
L 287.498543 183.811661 
L 287.874546 183.578507 
L 288.25055 182.631321 
L 288.626553 183.840805 
L 289.002556 183.884521 
L 289.37856 183.214205 
L 289.754563 183.1122 
L 290.130566 183.46193 
L 290.506569 182.616749 
L 290.882573 180.620371 
L 291.258576 182.922763 
L 291.634579 181.450981 
L 292.010583 180.620371 
L 292.386586 180.095775 
L 292.762589 181.115822 
L 293.138592 179.075728 
L 293.514596 179.483747 
L 293.890599 179.702329 
L 294.266602 179.731473 
L 294.642605 178.215975 
L 295.018609 178.274263 
L 295.394612 177.225072 
L 295.770615 178.18683 
L 296.146619 175.418131 
L 296.522622 176.088448 
L 296.898625 176.248741 
L 297.274628 174.36894 
L 298.402638 177.647663 
L 298.778641 173.902633 
L 299.154645 174.835248 
L 299.530648 172.678577 
L 299.906651 174.776959 
L 300.282655 174.223219 
L 300.658658 172.882586 
L 301.034661 173.611191 
L 301.410664 173.217744 
L 301.786668 173.771484 
L 302.162671 173.086596 
L 302.538674 171.498237 
L 302.914678 172.139409 
L 303.290681 170.20132 
L 303.666684 171.527381 
L 304.042687 169.705868 
L 304.418691 171.571097 
L 304.794694 168.758682 
L 305.170697 168.758682 
L 305.5467 171.03193 
L 305.922704 169.472715 
L 306.298707 170.099315 
L 306.67471 168.175798 
L 307.050714 169.472715 
L 307.426717 168.714966 
L 307.80272 168.773254 
L 308.178723 165.407099 
L 308.554727 167.869784 
L 308.93073 167.753207 
L 309.306733 167.345188 
L 309.682736 164.008178 
L 310.05874 165.232234 
L 310.434743 162.448963 
L 310.810746 164.183043 
L 311.18675 164.780499 
L 311.562753 164.955364 
L 311.938756 163.891601 
L 312.690763 163.789596 
L 313.066766 162.463535 
L 313.442769 158.776794 
L 313.818773 161.035469 
L 314.194776 161.953512 
L 314.570779 160.933465 
L 314.946782 160.350581 
L 315.322786 161.472632 
L 315.698789 158.966231 
L 316.074792 160.656595 
L 316.450795 158.864226 
L 316.826799 159.680264 
L 317.202802 159.957134 
L 317.578805 158.572784 
L 317.954809 160.015422 
L 318.706815 157.465305 
L 319.082818 156.270393 
L 319.458822 157.159291 
L 319.834825 155.862374 
L 320.210828 157.144719 
L 320.586831 156.270393 
L 320.962835 155.745797 
L 321.338838 156.503546 
L 321.714841 154.157438 
L 322.466848 153.457977 
L 322.842851 154.419736 
L 323.218854 152.889666 
L 323.594858 153.865996 
L 324.346864 153.049959 
L 325.098871 153.253968 
L 325.474874 152.350498 
L 325.850877 152.773089 
L 326.226881 150.732995 
L 326.978887 150.951576 
L 327.35489 151.213874 
L 327.730894 147.978868 
L 328.4829 149.392362 
L 328.858904 149.115492 
L 329.234907 148.19745 
L 329.986913 148.182877 
L 330.362917 146.273932 
L 330.73892 146.026207 
L 331.114923 146.769384 
L 331.86693 145.589044 
L 332.242933 145.90963 
L 332.618936 144.787578 
L 332.99494 145.516183 
L 333.370943 145.064448 
L 333.746946 141.596288 
L 334.122949 143.956969 
L 334.498953 143.782103 
L 334.874956 142.44147 
L 335.250959 141.88773 
L 336.378969 140.98426 
L 336.754972 141.392279 
L 337.130976 141.202842 
L 337.506979 141.173698 
L 338.258985 139.541622 
L 339.010992 138.521575 
L 339.386995 139.760204 
L 339.762999 137.632677 
L 340.139002 138.200989 
L 340.515005 136.933217 
L 340.891008 137.545245 
L 341.643015 135.024272 
L 342.019018 135.665444 
L 342.771025 135.35943 
L 343.147028 134.514248 
L 343.523031 134.120801 
L 343.899035 132.532442 
L 344.275038 132.882173 
L 344.651041 134.077085 
L 345.027044 131.920414 
L 345.403048 132.459582 
L 345.779051 129.297436 
L 346.155054 131.366675 
L 346.531058 131.934986 
L 346.907061 129.355725 
L 347.283064 130.43406 
L 347.659067 130.565209 
L 348.411074 129.574306 
L 348.787077 128.612548 
L 349.16308 129.297436 
L 349.539084 127.213626 
L 349.915087 127.301059 
L 350.29109 128.408538 
L 350.667094 128.117096 
L 351.043097 124.780086 
L 351.4191 127.140766 
L 351.795103 124.066053 
L 352.171107 126.033286 
L 352.54711 126.310156 
L 353.299117 124.226346 
L 353.67512 122.739992 
L 354.051123 123.541457 
L 354.427126 122.958573 
L 354.80313 124.036908 
L 355.179133 122.608843 
L 355.555136 121.821949 
L 355.931139 122.565126 
L 356.307143 120.845619 
L 357.435153 120.612465 
L 357.811156 118.892957 
L 358.187159 120.146158 
L 358.563162 119.781855 
L 358.939166 117.814622 
L 359.315169 117.319171 
L 359.691172 117.887482 
L 360.067175 117.974915 
L 360.819182 117.027729 
L 361.571189 115.410226 
L 361.947192 116.13883 
L 362.323195 115.468514 
L 362.699198 113.297271 
L 363.075202 113.647001 
L 363.451205 114.361034 
L 363.827208 113.923871 
L 364.203212 112.845536 
L 364.579215 113.107834 
L 364.955218 113.588713 
L 365.331221 112.59781 
L 365.707225 112.029498 
L 366.083228 111.796345 
L 366.459231 110.484856 
L 366.835234 106.113226 
L 367.211238 109.217083 
L 367.587241 108.940213 
L 367.963244 109.858256 
L 368.339248 108.590483 
L 368.715251 105.923789 
L 369.091254 107.468431 
L 369.467257 107.657869 
L 369.843261 107.424715 
L 370.219264 105.544914 
L 370.595267 106.535817 
L 370.97127 106.171514 
L 371.347274 104.554011 
L 371.723277 105.8655 
L 372.09928 104.014844 
L 372.475284 103.621397 
L 372.851287 101.69788 
L 373.22729 102.135043 
L 373.603293 104.277141 
L 373.979297 103.883695 
L 374.3553 102.25162 
L 375.48331 99.730646 
L 375.859313 99.628642 
L 376.235316 98.841748 
L 376.61132 99.104046 
L 376.987323 98.346297 
L 377.363326 98.462874 
L 377.739329 98.054855 
L 378.115333 98.186004 
L 378.491336 92.663178 
L 379.243343 97.792557 
L 379.995349 94.440974 
L 380.371352 92.969192 
L 380.747356 95.504738 
L 381.123359 95.665031 
L 381.499362 94.819849 
L 381.875365 93.595792 
L 382.627372 93.260634 
L 383.379379 91.264257 
L 383.755382 91.235112 
L 384.131385 89.340739 
L 384.507388 91.686847 
L 384.883392 91.599415 
L 385.259395 90.258782 
L 385.635398 90.419075 
L 386.011402 87.752381 
L 386.387405 88.320692 
L 386.763408 88.378981 
L 387.515415 86.77605 
L 387.891418 86.994631 
L 388.267421 86.644901 
L 388.643424 86.746906 
L 389.019428 85.493705 
L 389.395431 85.129403 
L 389.771434 85.916296 
L 390.147438 84.036495 
L 390.523441 84.823389 
L 390.899444 85.231407 
L 391.275447 82.040118 
L 391.651451 81.078359 
L 392.027454 83.366179 
L 392.403457 83.5119 
L 393.155464 80.801489 
L 393.531467 80.480903 
L 394.283474 78.8634 
L 394.659477 79.912591 
L 395.03548 80.626624 
L 395.411483 77.158464 
L 395.787487 77.945358 
L 396.16349 77.464478 
L 396.539493 78.542814 
L 396.915497 76.050985 
L 397.2915 75.438956 
L 397.667503 73.690304 
L 398.043506 75.657538 
L 398.41951 75.307808 
L 398.795513 75.409812 
L 399.171516 74.025463 
L 399.547519 75.016366 
L 400.675529 71.373341 
L 401.051533 72.466248 
L 401.427536 71.22762 
L 401.803539 71.562778 
L 402.179542 68.619214 
L 402.555546 70.499015 
L 403.307552 68.167479 
L 403.683555 69.362391 
L 404.059559 68.196623 
L 404.435562 68.298628 
L 404.811565 67.351441 
L 405.187569 66.957994 
L 405.939575 65.413352 
L 406.315578 65.515357 
L 406.691582 64.815896 
L 407.067585 65.792227 
L 407.443588 63.373258 
L 407.819592 62.032625 
L 408.195595 64.335017 
L 408.947601 62.222062 
L 409.323605 62.280351 
L 409.699608 62.921523 
L 410.075611 62.294923 
L 410.451614 60.007103 
L 410.827618 59.963387 
L 411.203621 60.050819 
L 411.579624 58.928768 
L 412.331631 59.205638 
L 412.707634 57.369553 
L 413.083637 57.704711 
L 413.459641 57.456986 
L 413.835644 56.232929 
L 414.211647 56.145497 
L 414.58765 55.737478 
L 414.963654 55.548041 
L 415.71566 54.163691 
L 416.091664 54.600854 
L 416.467667 54.615426 
L 416.84367 53.333081 
L 417.219673 52.706481 
L 417.595677 51.773867 
L 417.97168 51.569857 
L 418.723687 48.349423 
L 419.09969 49.966926 
L 419.475693 50.025215 
L 419.851696 49.894066 
L 420.2277 47.751967 
L 420.603703 48.014265 
L 420.979706 49.384042 
L 421.355709 47.343948 
L 421.731713 44.050654 
L 422.107716 46.017887 
L 422.483719 43.730068 
L 422.859723 44.604394 
L 423.235726 44.983268 
L 423.611729 41.879411 
L 423.987732 44.502389 
L 424.363736 43.74464 
L 424.739739 43.496914 
L 425.115742 42.666305 
L 425.491745 42.272858 
L 425.867749 42.447723 
L 426.243752 40.55335 
L 426.619755 41.165378 
L 426.995759 40.757359 
L 427.371762 38.323819 
L 427.747765 32.888426 
L 428.123768 37.230911 
L 428.499772 36.662599 
L 428.875775 37.63893 
L 429.251778 37.158051 
L 429.627782 34.607933 
L 430.003785 30.07601 
L 430.379788 32.494979 
L 430.755791 25.296362 
L 431.131795 27.147018 
L 431.507798 32.276398 
L 431.883801 33.893901 
L 432.259804 31.970383 
L 432.635808 32.392974 
L 433.011811 31.256351 
L 433.387814 31.562365 
L 434.139821 31.139774 
L 434.891827 30.032294 
L 435.267831 30.061438 
L 435.643834 29.332833 
L 436.019837 20.822727 
L 436.39584 28.560512 
L 436.771844 25.820957 
L 437.147847 27.963056 
L 437.52385 25.675236 
L 437.899854 26.330981 
L 438.275857 25.616948 
L 438.65186 25.325506 
L 439.027863 25.806385 
L 439.77987 21.944779 
L 440.155873 23.635142 
L 440.531877 23.54771 
L 441.283883 22.061356 
L 441.659886 22.469375 
L 441.659886 22.469375 
" clip-path="url(#p4652cd582a)" style="fill: none; stroke: #4c72b0; stroke-width: 0.75; stroke-linecap: round"/>
   </g>
   <g id="line2d_13">
    <path d="M 66.032614 293.213332 
L 441.659886 229.336155 
L 441.659886 229.336155 
" clip-path="url(#p4652cd582a)" style="fill: none; stroke-dasharray: 5.55,2.4; stroke-dashoffset: 0; stroke: #008000; stroke-opacity: 0.8; stroke-width: 1.5"/>
   </g>
   <g id="line2d_14">
    <path d="M 66.032614 293.277273 
L 70.544653 293.063017 
L 80.696741 292.329149 
L 96.864882 290.920612 
L 119.049076 288.755434 
L 147.625325 285.73483 
L 182.593629 281.807174 
L 223.95399 276.930995 
L 271.706406 271.071594 
L 325.850877 264.199114 
L 386.387405 256.28734 
L 441.659886 248.89112 
L 441.659886 248.89112 
" clip-path="url(#p4652cd582a)" style="fill: none; stroke-dasharray: 5.55,2.4; stroke-dashoffset: 0; stroke: #ffa500; stroke-opacity: 0.8; stroke-width: 1.5"/>
   </g>
   <g id="patch_3">
    <path d="M 47.25125 306.9 
L 47.25125 7.2 
" style="fill: none; stroke: #cccccc; stroke-width: 1.25; stroke-linejoin: miter; stroke-linecap: square"/>
   </g>
   <g id="patch_4">
    <path d="M 47.25125 306.9 
L 460.44125 306.9 
" style="fill: none; stroke: #cccccc; stroke-width: 1.25; stroke-linejoin: miter; stroke-linecap: square"/>
   </g>
   <g id="legend_1">
    <g id="line2d_15">
     <path d="M 57.15125 365.759844 
L 68.15125 365.759844 
L 79.15125 365.759844 
" style="fill: none; stroke: #4c72b0; stroke-width: 0.75; stroke-linecap: round"/>
    </g>
    <g id="text_14">
     <!-- bubble_sort -->
     <g style="fill: #262626" transform="translate(87.95125 369.609844) scale(0.11 -0.11)">
      <defs>
       <path id="ArialMT-62" d="M 941 0 
L 419 0 
L 419 4581 
L 981 4581 
L 981 2947 
Q 1338 3394 1891 3394 
Q 2197 3394 2470 3270 
Q 2744 3147 2920 2923 
Q 3097 2700 3197 2384 
Q 3297 2069 3297 1709 
Q 3297 856 2875 390 
Q 2453 -75 1863 -75 
Q 1275 -75 941 416 
L 941 0 
z
M 934 1684 
Q 934 1088 1097 822 
Q 1363 388 1816 388 
Q 2184 388 2453 708 
Q 2722 1028 2722 1663 
Q 2722 2313 2464 2622 
Q 2206 2931 1841 2931 
Q 1472 2931 1203 2611 
Q 934 2291 934 1684 
z
" transform="scale(0.015625)"/>
       <path id="ArialMT-6c" d="M 409 0 
L 409 4581 
L 972 4581 
L 972 0 
L 409 0 
z
" transform="scale(0.015625)"/>
       <path id="ArialMT-5f" d="M -97 -1272 
L -97 -866 
L 3631 -866 
L 3631 -1272 
L -97 -1272 
z
" transform="scale(0.015625)"/>
       <path id="ArialMT-72" d="M 416 0 
L 416 3319 
L 922 3319 
L 922 2816 
Q 1116 3169 1280 3281 
Q 1444 3394 1641 3394 
Q 1925 3394 2219 3213 
L 2025 2691 
Q 1819 2813 1613 2813 
Q 1428 2813 1281 2702 
Q 1134 2591 1072 2394 
Q 978 2094 978 1738 
L 978 0 
L 416 0 
z
" transform="scale(0.015625)"/>
      </defs>
      <use xlink:href="#ArialMT-62"/>
      <use xlink:href="#ArialMT-75" x="55.615234"/>
      <use xlink:href="#ArialMT-62" x="111.230469"/>
      <use xlink:href="#ArialMT-62" x="166.845703"/>
      <use xlink:href="#ArialMT-6c" x="222.460938"/>
      <use xlink:href="#ArialMT-65" x="244.677734"/>
      <use xlink:href="#ArialMT-5f" x="300.292969"/>
      <use xlink:href="#ArialMT-73" x="355.908203"/>
      <use xlink:href="#ArialMT-6f" x="405.908203"/>
      <use xlink:href="#ArialMT-72" x="461.523438"/>
      <use xlink:href="#ArialMT-74" x="494.824219"/>
     </g>
    </g>
    <g id="line2d_16">
     <path d="M 167.433125 365.759844 
L 178.433125 365.759844 
L 189.433125 365.759844 
" style="fill: none; stroke-dasharray: 5.55,2.4; stroke-dashoffset: 0; stroke: #008000; stroke-opacity: 0.8; stroke-width: 1.5"/>
    </g>
    <g id="text_15">
     <!-- O(n) -->
     <g style="fill: #262626" transform="translate(198.233125 369.609844) scale(0.11 -0.11)">
      <defs>
       <path id="ArialMT-4f" d="M 309 2231 
Q 309 3372 921 4017 
Q 1534 4663 2503 4663 
Q 3138 4663 3647 4359 
Q 4156 4056 4423 3514 
Q 4691 2972 4691 2284 
Q 4691 1588 4409 1038 
Q 4128 488 3612 205 
Q 3097 -78 2500 -78 
Q 1853 -78 1343 234 
Q 834 547 571 1087 
Q 309 1628 309 2231 
z
M 934 2222 
Q 934 1394 1379 917 
Q 1825 441 2497 441 
Q 3181 441 3623 922 
Q 4066 1403 4066 2288 
Q 4066 2847 3877 3264 
Q 3688 3681 3323 3911 
Q 2959 4141 2506 4141 
Q 1863 4141 1398 3698 
Q 934 3256 934 2222 
z
" transform="scale(0.015625)"/>
      </defs>
      <use xlink:href="#ArialMT-4f"/>
      <use xlink:href="#ArialMT-28" x="77.783203"/>
      <use xlink:href="#ArialMT-6e" x="111.083984"/>
      <use xlink:href="#ArialMT-29" x="166.699219"/>
     </g>
    </g>
    <g id="line2d_17">
     <path d="M 242.231406 365.759844 
L 253.231406 365.759844 
L 264.231406 365.759844 
" style="fill: none; stroke-dasharray: 5.55,2.4; stroke-dashoffset: 0; stroke: #ffa500; stroke-opacity: 0.8; stroke-width: 1.5"/>
    </g>
    <g id="text_16">
     <!-- O(n*log(n)) -->
     <g style="fill: #262626" transform="translate(273.031406 369.609844) scale(0.11 -0.11)">
      <defs>
       <path id="ArialMT-2a" d="M 200 3741 
L 344 4184 
Q 841 4009 1066 3881 
Q 1006 4447 1003 4659 
L 1456 4659 
Q 1447 4350 1384 3884 
Q 1706 4047 2122 4184 
L 2266 3741 
Q 1869 3609 1488 3566 
Q 1678 3400 2025 2975 
L 1650 2709 
Q 1469 2956 1222 3381 
Q 991 2941 816 2709 
L 447 2975 
Q 809 3422 966 3566 
Q 563 3644 200 3741 
z
" transform="scale(0.015625)"/>
       <path id="ArialMT-67" d="M 319 -275 
L 866 -356 
Q 900 -609 1056 -725 
Q 1266 -881 1628 -881 
Q 2019 -881 2231 -725 
Q 2444 -569 2519 -288 
Q 2563 -116 2559 434 
Q 2191 0 1641 0 
Q 956 0 581 494 
Q 206 988 206 1678 
Q 206 2153 378 2554 
Q 550 2956 876 3175 
Q 1203 3394 1644 3394 
Q 2231 3394 2613 2919 
L 2613 3319 
L 3131 3319 
L 3131 450 
Q 3131 -325 2973 -648 
Q 2816 -972 2473 -1159 
Q 2131 -1347 1631 -1347 
Q 1038 -1347 672 -1080 
Q 306 -813 319 -275 
z
M 784 1719 
Q 784 1066 1043 766 
Q 1303 466 1694 466 
Q 2081 466 2343 764 
Q 2606 1063 2606 1700 
Q 2606 2309 2336 2618 
Q 2066 2928 1684 2928 
Q 1309 2928 1046 2623 
Q 784 2319 784 1719 
z
" transform="scale(0.015625)"/>
      </defs>
      <use xlink:href="#ArialMT-4f"/>
      <use xlink:href="#ArialMT-28" x="77.783203"/>
      <use xlink:href="#ArialMT-6e" x="111.083984"/>
      <use xlink:href="#ArialMT-2a" x="166.699219"/>
      <use xlink:href="#ArialMT-6c" x="205.615234"/>
      <use xlink:href="#ArialMT-6f" x="227.832031"/>
      <use xlink:href="#ArialMT-67" x="283.447266"/>
      <use xlink:href="#ArialMT-28" x="339.0625"/>
      <use xlink:href="#ArialMT-6e" x="372.363281"/>
      <use xlink:href="#ArialMT-29" x="427.978516"/>
      <use xlink:href="#ArialMT-29" x="461.279297"/>
     </g>
    </g>
   </g>
  </g>
 </g>
 <defs>
  <clipPath id="p4652cd582a">
   <rect x="47.25125" y="7.2" width="413.19" height="299.7"/>
  </clipPath>
 </defs>
</svg>
