<?xml version="1.0" encoding="utf-8" standalone="no"?>
<!DOCTYPE svg PUBLIC "-//W3C//DTD SVG 1.1//EN"
  "http://www.w3.org/Graphics/SVG/1.1/DTD/svg11.dtd">
<svg xmlns:xlink="http://www.w3.org/1999/xlink" width="348.922344pt" height="379.836094pt" viewBox="0 0 348.922344 379.836094" xmlns="http://www.w3.org/2000/svg" version="1.1">
 <metadata>
  <rdf:RDF xmlns:dc="http://purl.org/dc/elements/1.1/" xmlns:cc="http://creativecommons.org/ns#" xmlns:rdf="http://www.w3.org/1999/02/22-rdf-syntax-ns#">
   <cc:Work>
    <dc:type rdf:resource="http://purl.org/dc/dcmitype/StillImage"/>
    <dc:date>2024-12-13T10:56:57.063392</dc:date>
    <dc:format>image/svg+xml</dc:format>
    <dc:creator>
     <cc:Agent>
      <dc:title>Matplotlib v3.9.3, https://matplotlib.org/</dc:title>
     </cc:Agent>
    </dc:creator>
   </cc:Work>
  </rdf:RDF>
 </metadata>
 <defs>
  <style type="text/css">*{stroke-linejoin: round; stroke-linecap: butt}</style>
 </defs>
 <g id="figure_1">
  <g id="patch_1">
   <path d="M 0 379.836094 
L 348.922344 379.836094 
L 348.922344 0 
L 0 0 
z
" style="fill: #ffffff"/>
  </g>
  <g id="axes_1">
   <g id="patch_2">
    <path d="M 65.602344 337.815 
L 341.722344 337.815 
L 341.722344 38.115 
L 65.602344 38.115 
z
" style="fill: #ffffff"/>
   </g>
   <g id="matplotlib.axis_1">
    <g id="xtick_1">
     <g id="line2d_1">
      <path d="M 77.901983 337.815 
L 77.901983 38.115 
" clip-path="url(#pcd9db2c168)" style="fill: none; stroke: #cccccc; stroke-linecap: round"/>
     </g>
     <g id="text_1">
      <!-- 0 -->
      <g style="fill: #262626" transform="translate(74.843468 355.188594) scale(0.11 -0.11)">
       <defs>
        <path id="ArialMT-30" d="M 266 2259 
Q 266 3072 433 3567 
Q 600 4063 929 4331 
Q 1259 4600 1759 4600 
Q 2128 4600 2406 4451 
Q 2684 4303 2865 4023 
Q 3047 3744 3150 3342 
Q 3253 2941 3253 2259 
Q 3253 1453 3087 958 
Q 2922 463 2592 192 
Q 2263 -78 1759 -78 
Q 1097 -78 719 397 
Q 266 969 266 2259 
z
M 844 2259 
Q 844 1131 1108 757 
Q 1372 384 1759 384 
Q 2147 384 2411 759 
Q 2675 1134 2675 2259 
Q 2675 3391 2411 3762 
Q 2147 4134 1753 4134 
Q 1366 4134 1134 3806 
Q 844 3388 844 2259 
z
" transform="scale(0.015625)"/>
       </defs>
       <use xlink:href="#ArialMT-30"/>
      </g>
     </g>
    </g>
    <g id="xtick_2">
     <g id="line2d_2">
      <path d="M 128.155874 337.815 
L 128.155874 38.115 
" clip-path="url(#pcd9db2c168)" style="fill: none; stroke: #cccccc; stroke-linecap: round"/>
     </g>
     <g id="text_2">
      <!-- 200 -->
      <g style="fill: #262626" transform="translate(118.980327 355.188594) scale(0.11 -0.11)">
       <defs>
        <path id="ArialMT-32" d="M 3222 541 
L 3222 0 
L 194 0 
Q 188 203 259 391 
Q 375 700 629 1000 
Q 884 1300 1366 1694 
Q 2113 2306 2375 2664 
Q 2638 3022 2638 3341 
Q 2638 3675 2398 3904 
Q 2159 4134 1775 4134 
Q 1369 4134 1125 3890 
Q 881 3647 878 3216 
L 300 3275 
Q 359 3922 746 4261 
Q 1134 4600 1788 4600 
Q 2447 4600 2831 4234 
Q 3216 3869 3216 3328 
Q 3216 3053 3103 2787 
Q 2991 2522 2730 2228 
Q 2469 1934 1863 1422 
Q 1356 997 1212 845 
Q 1069 694 975 541 
L 3222 541 
z
" transform="scale(0.015625)"/>
       </defs>
       <use xlink:href="#ArialMT-32"/>
       <use xlink:href="#ArialMT-30" x="55.615234"/>
       <use xlink:href="#ArialMT-30" x="111.230469"/>
      </g>
     </g>
    </g>
    <g id="xtick_3">
     <g id="line2d_3">
      <path d="M 178.409764 337.815 
L 178.409764 38.115 
" clip-path="url(#pcd9db2c168)" style="fill: none; stroke: #cccccc; stroke-linecap: round"/>
     </g>
     <g id="text_3">
      <!-- 400 -->
      <g style="fill: #262626" transform="translate(169.234217 355.188594) scale(0.11 -0.11)">
       <defs>
        <path id="ArialMT-34" d="M 2069 0 
L 2069 1097 
L 81 1097 
L 81 1613 
L 2172 4581 
L 2631 4581 
L 2631 1613 
L 3250 1613 
L 3250 1097 
L 2631 1097 
L 2631 0 
L 2069 0 
z
M 2069 1613 
L 2069 3678 
L 634 1613 
L 2069 1613 
z
" transform="scale(0.015625)"/>
       </defs>
       <use xlink:href="#ArialMT-34"/>
       <use xlink:href="#ArialMT-30" x="55.615234"/>
       <use xlink:href="#ArialMT-30" x="111.230469"/>
      </g>
     </g>
    </g>
    <g id="xtick_4">
     <g id="line2d_4">
      <path d="M 228.663654 337.815 
L 228.663654 38.115 
" clip-path="url(#pcd9db2c168)" style="fill: none; stroke: #cccccc; stroke-linecap: round"/>
     </g>
     <g id="text_4">
      <!-- 600 -->
      <g style="fill: #262626" transform="translate(219.488107 355.188594) scale(0.11 -0.11)">
       <defs>
        <path id="ArialMT-36" d="M 3184 3459 
L 2625 3416 
Q 2550 3747 2413 3897 
Q 2184 4138 1850 4138 
Q 1581 4138 1378 3988 
Q 1113 3794 959 3422 
Q 806 3050 800 2363 
Q 1003 2672 1297 2822 
Q 1591 2972 1913 2972 
Q 2475 2972 2870 2558 
Q 3266 2144 3266 1488 
Q 3266 1056 3080 686 
Q 2894 316 2569 119 
Q 2244 -78 1831 -78 
Q 1128 -78 684 439 
Q 241 956 241 2144 
Q 241 3472 731 4075 
Q 1159 4600 1884 4600 
Q 2425 4600 2770 4297 
Q 3116 3994 3184 3459 
z
M 888 1484 
Q 888 1194 1011 928 
Q 1134 663 1356 523 
Q 1578 384 1822 384 
Q 2178 384 2434 671 
Q 2691 959 2691 1453 
Q 2691 1928 2437 2201 
Q 2184 2475 1800 2475 
Q 1419 2475 1153 2201 
Q 888 1928 888 1484 
z
" transform="scale(0.015625)"/>
       </defs>
       <use xlink:href="#ArialMT-36"/>
       <use xlink:href="#ArialMT-30" x="55.615234"/>
       <use xlink:href="#ArialMT-30" x="111.230469"/>
      </g>
     </g>
    </g>
    <g id="xtick_5">
     <g id="line2d_5">
      <path d="M 278.917544 337.815 
L 278.917544 38.115 
" clip-path="url(#pcd9db2c168)" style="fill: none; stroke: #cccccc; stroke-linecap: round"/>
     </g>
     <g id="text_5">
      <!-- 800 -->
      <g style="fill: #262626" transform="translate(269.741998 355.188594) scale(0.11 -0.11)">
       <defs>
        <path id="ArialMT-38" d="M 1131 2484 
Q 781 2613 612 2850 
Q 444 3088 444 3419 
Q 444 3919 803 4259 
Q 1163 4600 1759 4600 
Q 2359 4600 2725 4251 
Q 3091 3903 3091 3403 
Q 3091 3084 2923 2848 
Q 2756 2613 2416 2484 
Q 2838 2347 3058 2040 
Q 3278 1734 3278 1309 
Q 3278 722 2862 322 
Q 2447 -78 1769 -78 
Q 1091 -78 675 323 
Q 259 725 259 1325 
Q 259 1772 486 2073 
Q 713 2375 1131 2484 
z
M 1019 3438 
Q 1019 3113 1228 2906 
Q 1438 2700 1772 2700 
Q 2097 2700 2305 2904 
Q 2513 3109 2513 3406 
Q 2513 3716 2298 3927 
Q 2084 4138 1766 4138 
Q 1444 4138 1231 3931 
Q 1019 3725 1019 3438 
z
M 838 1322 
Q 838 1081 952 856 
Q 1066 631 1291 507 
Q 1516 384 1775 384 
Q 2178 384 2440 643 
Q 2703 903 2703 1303 
Q 2703 1709 2433 1975 
Q 2163 2241 1756 2241 
Q 1359 2241 1098 1978 
Q 838 1716 838 1322 
z
" transform="scale(0.015625)"/>
       </defs>
       <use xlink:href="#ArialMT-38"/>
       <use xlink:href="#ArialMT-30" x="55.615234"/>
       <use xlink:href="#ArialMT-30" x="111.230469"/>
      </g>
     </g>
    </g>
    <g id="xtick_6">
     <g id="line2d_6">
      <path d="M 329.171435 337.815 
L 329.171435 38.115 
" clip-path="url(#pcd9db2c168)" style="fill: none; stroke: #cccccc; stroke-linecap: round"/>
     </g>
     <g id="text_6">
      <!-- 1000 -->
      <g style="fill: #262626" transform="translate(316.937372 355.188594) scale(0.11 -0.11)">
       <defs>
        <path id="ArialMT-31" d="M 2384 0 
L 1822 0 
L 1822 3584 
Q 1619 3391 1289 3197 
Q 959 3003 697 2906 
L 697 3450 
Q 1169 3672 1522 3987 
Q 1875 4303 2022 4600 
L 2384 4600 
L 2384 0 
z
" transform="scale(0.015625)"/>
       </defs>
       <use xlink:href="#ArialMT-31"/>
       <use xlink:href="#ArialMT-30" x="55.615234"/>
       <use xlink:href="#ArialMT-30" x="111.230469"/>
       <use xlink:href="#ArialMT-30" x="166.845703"/>
      </g>
     </g>
    </g>
    <g id="text_7">
     <!-- Length of Array -->
     <g style="fill: #262626" transform="translate(162.971094 370.110469) scale(0.12 -0.12)">
      <defs>
       <path id="ArialMT-4c" d="M 469 0 
L 469 4581 
L 1075 4581 
L 1075 541 
L 3331 541 
L 3331 0 
L 469 0 
z
" transform="scale(0.015625)"/>
       <path id="ArialMT-65" d="M 2694 1069 
L 3275 997 
Q 3138 488 2766 206 
Q 2394 -75 1816 -75 
Q 1088 -75 661 373 
Q 234 822 234 1631 
Q 234 2469 665 2931 
Q 1097 3394 1784 3394 
Q 2450 3394 2872 2941 
Q 3294 2488 3294 1666 
Q 3294 1616 3291 1516 
L 816 1516 
Q 847 969 1125 678 
Q 1403 388 1819 388 
Q 2128 388 2347 550 
Q 2566 713 2694 1069 
z
M 847 1978 
L 2700 1978 
Q 2663 2397 2488 2606 
Q 2219 2931 1791 2931 
Q 1403 2931 1139 2672 
Q 875 2413 847 1978 
z
" transform="scale(0.015625)"/>
       <path id="ArialMT-6e" d="M 422 0 
L 422 3319 
L 928 3319 
L 928 2847 
Q 1294 3394 1984 3394 
Q 2284 3394 2536 3286 
Q 2788 3178 2913 3003 
Q 3038 2828 3088 2588 
Q 3119 2431 3119 2041 
L 3119 0 
L 2556 0 
L 2556 2019 
Q 2556 2363 2490 2533 
Q 2425 2703 2258 2804 
Q 2091 2906 1866 2906 
Q 1506 2906 1245 2678 
Q 984 2450 984 1813 
L 984 0 
L 422 0 
z
" transform="scale(0.015625)"/>
       <path id="ArialMT-67" d="M 319 -275 
L 866 -356 
Q 900 -609 1056 -725 
Q 1266 -881 1628 -881 
Q 2019 -881 2231 -725 
Q 2444 -569 2519 -288 
Q 2563 -116 2559 434 
Q 2191 0 1641 0 
Q 956 0 581 494 
Q 206 988 206 1678 
Q 206 2153 378 2554 
Q 550 2956 876 3175 
Q 1203 3394 1644 3394 
Q 2231 3394 2613 2919 
L 2613 3319 
L 3131 3319 
L 3131 450 
Q 3131 -325 2973 -648 
Q 2816 -972 2473 -1159 
Q 2131 -1347 1631 -1347 
Q 1038 -1347 672 -1080 
Q 306 -813 319 -275 
z
M 784 1719 
Q 784 1066 1043 766 
Q 1303 466 1694 466 
Q 2081 466 2343 764 
Q 2606 1063 2606 1700 
Q 2606 2309 2336 2618 
Q 2066 2928 1684 2928 
Q 1309 2928 1046 2623 
Q 784 2319 784 1719 
z
" transform="scale(0.015625)"/>
       <path id="ArialMT-74" d="M 1650 503 
L 1731 6 
Q 1494 -44 1306 -44 
Q 1000 -44 831 53 
Q 663 150 594 308 
Q 525 466 525 972 
L 525 2881 
L 113 2881 
L 113 3319 
L 525 3319 
L 525 4141 
L 1084 4478 
L 1084 3319 
L 1650 3319 
L 1650 2881 
L 1084 2881 
L 1084 941 
Q 1084 700 1114 631 
Q 1144 563 1211 522 
Q 1278 481 1403 481 
Q 1497 481 1650 503 
z
" transform="scale(0.015625)"/>
       <path id="ArialMT-68" d="M 422 0 
L 422 4581 
L 984 4581 
L 984 2938 
Q 1378 3394 1978 3394 
Q 2347 3394 2619 3248 
Q 2891 3103 3008 2847 
Q 3125 2591 3125 2103 
L 3125 0 
L 2563 0 
L 2563 2103 
Q 2563 2525 2380 2717 
Q 2197 2909 1863 2909 
Q 1613 2909 1392 2779 
Q 1172 2650 1078 2428 
Q 984 2206 984 1816 
L 984 0 
L 422 0 
z
" transform="scale(0.015625)"/>
       <path id="ArialMT-20" transform="scale(0.015625)"/>
       <path id="ArialMT-6f" d="M 213 1659 
Q 213 2581 725 3025 
Q 1153 3394 1769 3394 
Q 2453 3394 2887 2945 
Q 3322 2497 3322 1706 
Q 3322 1066 3130 698 
Q 2938 331 2570 128 
Q 2203 -75 1769 -75 
Q 1072 -75 642 372 
Q 213 819 213 1659 
z
M 791 1659 
Q 791 1022 1069 705 
Q 1347 388 1769 388 
Q 2188 388 2466 706 
Q 2744 1025 2744 1678 
Q 2744 2294 2464 2611 
Q 2184 2928 1769 2928 
Q 1347 2928 1069 2612 
Q 791 2297 791 1659 
z
" transform="scale(0.015625)"/>
       <path id="ArialMT-66" d="M 556 0 
L 556 2881 
L 59 2881 
L 59 3319 
L 556 3319 
L 556 3672 
Q 556 4006 616 4169 
Q 697 4388 901 4523 
Q 1106 4659 1475 4659 
Q 1713 4659 2000 4603 
L 1916 4113 
Q 1741 4144 1584 4144 
Q 1328 4144 1222 4034 
Q 1116 3925 1116 3625 
L 1116 3319 
L 1763 3319 
L 1763 2881 
L 1116 2881 
L 1116 0 
L 556 0 
z
" transform="scale(0.015625)"/>
       <path id="ArialMT-41" d="M -9 0 
L 1750 4581 
L 2403 4581 
L 4278 0 
L 3588 0 
L 3053 1388 
L 1138 1388 
L 634 0 
L -9 0 
z
M 1313 1881 
L 2866 1881 
L 2388 3150 
Q 2169 3728 2063 4100 
Q 1975 3659 1816 3225 
L 1313 1881 
z
" transform="scale(0.015625)"/>
       <path id="ArialMT-72" d="M 416 0 
L 416 3319 
L 922 3319 
L 922 2816 
Q 1116 3169 1280 3281 
Q 1444 3394 1641 3394 
Q 1925 3394 2219 3213 
L 2025 2691 
Q 1819 2813 1613 2813 
Q 1428 2813 1281 2702 
Q 1134 2591 1072 2394 
Q 978 2094 978 1738 
L 978 0 
L 416 0 
z
" transform="scale(0.015625)"/>
       <path id="ArialMT-61" d="M 2588 409 
Q 2275 144 1986 34 
Q 1697 -75 1366 -75 
Q 819 -75 525 192 
Q 231 459 231 875 
Q 231 1119 342 1320 
Q 453 1522 633 1644 
Q 813 1766 1038 1828 
Q 1203 1872 1538 1913 
Q 2219 1994 2541 2106 
Q 2544 2222 2544 2253 
Q 2544 2597 2384 2738 
Q 2169 2928 1744 2928 
Q 1347 2928 1158 2789 
Q 969 2650 878 2297 
L 328 2372 
Q 403 2725 575 2942 
Q 747 3159 1072 3276 
Q 1397 3394 1825 3394 
Q 2250 3394 2515 3294 
Q 2781 3194 2906 3042 
Q 3031 2891 3081 2659 
Q 3109 2516 3109 2141 
L 3109 1391 
Q 3109 606 3145 398 
Q 3181 191 3288 0 
L 2700 0 
Q 2613 175 2588 409 
z
M 2541 1666 
Q 2234 1541 1622 1453 
Q 1275 1403 1131 1340 
Q 988 1278 909 1158 
Q 831 1038 831 891 
Q 831 666 1001 516 
Q 1172 366 1500 366 
Q 1825 366 2078 508 
Q 2331 650 2450 897 
Q 2541 1088 2541 1459 
L 2541 1666 
z
" transform="scale(0.015625)"/>
       <path id="ArialMT-79" d="M 397 -1278 
L 334 -750 
Q 519 -800 656 -800 
Q 844 -800 956 -737 
Q 1069 -675 1141 -563 
Q 1194 -478 1313 -144 
Q 1328 -97 1363 -6 
L 103 3319 
L 709 3319 
L 1400 1397 
Q 1534 1031 1641 628 
Q 1738 1016 1872 1384 
L 2581 3319 
L 3144 3319 
L 1881 -56 
Q 1678 -603 1566 -809 
Q 1416 -1088 1222 -1217 
Q 1028 -1347 759 -1347 
Q 597 -1347 397 -1278 
z
" transform="scale(0.015625)"/>
      </defs>
      <use xlink:href="#ArialMT-4c"/>
      <use xlink:href="#ArialMT-65" x="55.615234"/>
      <use xlink:href="#ArialMT-6e" x="111.230469"/>
      <use xlink:href="#ArialMT-67" x="166.845703"/>
      <use xlink:href="#ArialMT-74" x="222.460938"/>
      <use xlink:href="#ArialMT-68" x="250.244141"/>
      <use xlink:href="#ArialMT-20" x="305.859375"/>
      <use xlink:href="#ArialMT-6f" x="333.642578"/>
      <use xlink:href="#ArialMT-66" x="389.257812"/>
      <use xlink:href="#ArialMT-20" x="417.041016"/>
      <use xlink:href="#ArialMT-41" x="439.324219"/>
      <use xlink:href="#ArialMT-72" x="506.023438"/>
      <use xlink:href="#ArialMT-72" x="539.324219"/>
      <use xlink:href="#ArialMT-61" x="572.625"/>
      <use xlink:href="#ArialMT-79" x="628.240234"/>
     </g>
    </g>
   </g>
   <g id="matplotlib.axis_2">
    <g id="ytick_1">
     <g id="line2d_7">
      <path d="M 65.602344 316.828636 
L 341.722344 316.828636 
" clip-path="url(#pcd9db2c168)" style="fill: none; stroke: #cccccc; stroke-linecap: round"/>
     </g>
     <g id="text_8">
      <!-- 0.0005 -->
      <g style="fill: #262626" transform="translate(22.46125 320.765433) scale(0.11 -0.11)">
       <defs>
        <path id="ArialMT-2e" d="M 581 0 
L 581 641 
L 1222 641 
L 1222 0 
L 581 0 
z
" transform="scale(0.015625)"/>
        <path id="ArialMT-35" d="M 266 1200 
L 856 1250 
Q 922 819 1161 601 
Q 1400 384 1738 384 
Q 2144 384 2425 690 
Q 2706 997 2706 1503 
Q 2706 1984 2436 2262 
Q 2166 2541 1728 2541 
Q 1456 2541 1237 2417 
Q 1019 2294 894 2097 
L 366 2166 
L 809 4519 
L 3088 4519 
L 3088 3981 
L 1259 3981 
L 1013 2750 
Q 1425 3038 1878 3038 
Q 2478 3038 2890 2622 
Q 3303 2206 3303 1553 
Q 3303 931 2941 478 
Q 2500 -78 1738 -78 
Q 1113 -78 717 272 
Q 322 622 266 1200 
z
" transform="scale(0.015625)"/>
       </defs>
       <use xlink:href="#ArialMT-30"/>
       <use xlink:href="#ArialMT-2e" x="55.615234"/>
       <use xlink:href="#ArialMT-30" x="83.398438"/>
       <use xlink:href="#ArialMT-30" x="139.013672"/>
       <use xlink:href="#ArialMT-30" x="194.628906"/>
       <use xlink:href="#ArialMT-35" x="250.244141"/>
      </g>
     </g>
    </g>
    <g id="ytick_2">
     <g id="line2d_8">
      <path d="M 65.602344 280.010455 
L 341.722344 280.010455 
" clip-path="url(#pcd9db2c168)" style="fill: none; stroke: #cccccc; stroke-linecap: round"/>
     </g>
     <g id="text_9">
      <!-- 0.0010 -->
      <g style="fill: #262626" transform="translate(22.46125 283.947251) scale(0.11 -0.11)">
       <use xlink:href="#ArialMT-30"/>
       <use xlink:href="#ArialMT-2e" x="55.615234"/>
       <use xlink:href="#ArialMT-30" x="83.398438"/>
       <use xlink:href="#ArialMT-30" x="139.013672"/>
       <use xlink:href="#ArialMT-31" x="194.628906"/>
       <use xlink:href="#ArialMT-30" x="250.244141"/>
      </g>
     </g>
    </g>
    <g id="ytick_3">
     <g id="line2d_9">
      <path d="M 65.602344 243.192273 
L 341.722344 243.192273 
" clip-path="url(#pcd9db2c168)" style="fill: none; stroke: #cccccc; stroke-linecap: round"/>
     </g>
     <g id="text_10">
      <!-- 0.0015 -->
      <g style="fill: #262626" transform="translate(22.46125 247.12907) scale(0.11 -0.11)">
       <use xlink:href="#ArialMT-30"/>
       <use xlink:href="#ArialMT-2e" x="55.615234"/>
       <use xlink:href="#ArialMT-30" x="83.398438"/>
       <use xlink:href="#ArialMT-30" x="139.013672"/>
       <use xlink:href="#ArialMT-31" x="194.628906"/>
       <use xlink:href="#ArialMT-35" x="250.244141"/>
      </g>
     </g>
    </g>
    <g id="ytick_4">
     <g id="line2d_10">
      <path d="M 65.602344 206.374091 
L 341.722344 206.374091 
" clip-path="url(#pcd9db2c168)" style="fill: none; stroke: #cccccc; stroke-linecap: round"/>
     </g>
     <g id="text_11">
      <!-- 0.0020 -->
      <g style="fill: #262626" transform="translate(22.46125 210.310888) scale(0.11 -0.11)">
       <use xlink:href="#ArialMT-30"/>
       <use xlink:href="#ArialMT-2e" x="55.615234"/>
       <use xlink:href="#ArialMT-30" x="83.398438"/>
       <use xlink:href="#ArialMT-30" x="139.013672"/>
       <use xlink:href="#ArialMT-32" x="194.628906"/>
       <use xlink:href="#ArialMT-30" x="250.244141"/>
      </g>
     </g>
    </g>
    <g id="ytick_5">
     <g id="line2d_11">
      <path d="M 65.602344 169.555909 
L 341.722344 169.555909 
" clip-path="url(#pcd9db2c168)" style="fill: none; stroke: #cccccc; stroke-linecap: round"/>
     </g>
     <g id="text_12">
      <!-- 0.0025 -->
      <g style="fill: #262626" transform="translate(22.46125 173.492706) scale(0.11 -0.11)">
       <use xlink:href="#ArialMT-30"/>
       <use xlink:href="#ArialMT-2e" x="55.615234"/>
       <use xlink:href="#ArialMT-30" x="83.398438"/>
       <use xlink:href="#ArialMT-30" x="139.013672"/>
       <use xlink:href="#ArialMT-32" x="194.628906"/>
       <use xlink:href="#ArialMT-35" x="250.244141"/>
      </g>
     </g>
    </g>
    <g id="ytick_6">
     <g id="line2d_12">
      <path d="M 65.602344 132.737727 
L 341.722344 132.737727 
" clip-path="url(#pcd9db2c168)" style="fill: none; stroke: #cccccc; stroke-linecap: round"/>
     </g>
     <g id="text_13">
      <!-- 0.0030 -->
      <g style="fill: #262626" transform="translate(22.46125 136.674524) scale(0.11 -0.11)">
       <defs>
        <path id="ArialMT-33" d="M 269 1209 
L 831 1284 
Q 928 806 1161 595 
Q 1394 384 1728 384 
Q 2125 384 2398 659 
Q 2672 934 2672 1341 
Q 2672 1728 2419 1979 
Q 2166 2231 1775 2231 
Q 1616 2231 1378 2169 
L 1441 2663 
Q 1497 2656 1531 2656 
Q 1891 2656 2178 2843 
Q 2466 3031 2466 3422 
Q 2466 3731 2256 3934 
Q 2047 4138 1716 4138 
Q 1388 4138 1169 3931 
Q 950 3725 888 3313 
L 325 3413 
Q 428 3978 793 4289 
Q 1159 4600 1703 4600 
Q 2078 4600 2393 4439 
Q 2709 4278 2876 4000 
Q 3044 3722 3044 3409 
Q 3044 3113 2884 2869 
Q 2725 2625 2413 2481 
Q 2819 2388 3044 2092 
Q 3269 1797 3269 1353 
Q 3269 753 2831 336 
Q 2394 -81 1725 -81 
Q 1122 -81 723 278 
Q 325 638 269 1209 
z
" transform="scale(0.015625)"/>
       </defs>
       <use xlink:href="#ArialMT-30"/>
       <use xlink:href="#ArialMT-2e" x="55.615234"/>
       <use xlink:href="#ArialMT-30" x="83.398438"/>
       <use xlink:href="#ArialMT-30" x="139.013672"/>
       <use xlink:href="#ArialMT-33" x="194.628906"/>
       <use xlink:href="#ArialMT-30" x="250.244141"/>
      </g>
     </g>
    </g>
    <g id="ytick_7">
     <g id="line2d_13">
      <path d="M 65.602344 95.919545 
L 341.722344 95.919545 
" clip-path="url(#pcd9db2c168)" style="fill: none; stroke: #cccccc; stroke-linecap: round"/>
     </g>
     <g id="text_14">
      <!-- 0.0035 -->
      <g style="fill: #262626" transform="translate(22.46125 99.856342) scale(0.11 -0.11)">
       <use xlink:href="#ArialMT-30"/>
       <use xlink:href="#ArialMT-2e" x="55.615234"/>
       <use xlink:href="#ArialMT-30" x="83.398438"/>
       <use xlink:href="#ArialMT-30" x="139.013672"/>
       <use xlink:href="#ArialMT-33" x="194.628906"/>
       <use xlink:href="#ArialMT-35" x="250.244141"/>
      </g>
     </g>
    </g>
    <g id="ytick_8">
     <g id="line2d_14">
      <path d="M 65.602344 59.101364 
L 341.722344 59.101364 
" clip-path="url(#pcd9db2c168)" style="fill: none; stroke: #cccccc; stroke-linecap: round"/>
     </g>
     <g id="text_15">
      <!-- 0.0040 -->
      <g style="fill: #262626" transform="translate(22.46125 63.038161) scale(0.11 -0.11)">
       <use xlink:href="#ArialMT-30"/>
       <use xlink:href="#ArialMT-2e" x="55.615234"/>
       <use xlink:href="#ArialMT-30" x="83.398438"/>
       <use xlink:href="#ArialMT-30" x="139.013672"/>
       <use xlink:href="#ArialMT-34" x="194.628906"/>
       <use xlink:href="#ArialMT-30" x="250.244141"/>
      </g>
     </g>
    </g>
    <g id="text_16">
     <!-- Execution Time (ms) -->
     <g style="fill: #262626" transform="translate(15.935625 242.642812) rotate(-90) scale(0.12 -0.12)">
      <defs>
       <path id="ArialMT-45" d="M 506 0 
L 506 4581 
L 3819 4581 
L 3819 4041 
L 1113 4041 
L 1113 2638 
L 3647 2638 
L 3647 2100 
L 1113 2100 
L 1113 541 
L 3925 541 
L 3925 0 
L 506 0 
z
" transform="scale(0.015625)"/>
       <path id="ArialMT-78" d="M 47 0 
L 1259 1725 
L 138 3319 
L 841 3319 
L 1350 2541 
Q 1494 2319 1581 2169 
Q 1719 2375 1834 2534 
L 2394 3319 
L 3066 3319 
L 1919 1756 
L 3153 0 
L 2463 0 
L 1781 1031 
L 1600 1309 
L 728 0 
L 47 0 
z
" transform="scale(0.015625)"/>
       <path id="ArialMT-63" d="M 2588 1216 
L 3141 1144 
Q 3050 572 2676 248 
Q 2303 -75 1759 -75 
Q 1078 -75 664 370 
Q 250 816 250 1647 
Q 250 2184 428 2587 
Q 606 2991 970 3192 
Q 1334 3394 1763 3394 
Q 2303 3394 2647 3120 
Q 2991 2847 3088 2344 
L 2541 2259 
Q 2463 2594 2264 2762 
Q 2066 2931 1784 2931 
Q 1359 2931 1093 2626 
Q 828 2322 828 1663 
Q 828 994 1084 691 
Q 1341 388 1753 388 
Q 2084 388 2306 591 
Q 2528 794 2588 1216 
z
" transform="scale(0.015625)"/>
       <path id="ArialMT-75" d="M 2597 0 
L 2597 488 
Q 2209 -75 1544 -75 
Q 1250 -75 995 37 
Q 741 150 617 320 
Q 494 491 444 738 
Q 409 903 409 1263 
L 409 3319 
L 972 3319 
L 972 1478 
Q 972 1038 1006 884 
Q 1059 663 1231 536 
Q 1403 409 1656 409 
Q 1909 409 2131 539 
Q 2353 669 2445 892 
Q 2538 1116 2538 1541 
L 2538 3319 
L 3100 3319 
L 3100 0 
L 2597 0 
z
" transform="scale(0.015625)"/>
       <path id="ArialMT-69" d="M 425 3934 
L 425 4581 
L 988 4581 
L 988 3934 
L 425 3934 
z
M 425 0 
L 425 3319 
L 988 3319 
L 988 0 
L 425 0 
z
" transform="scale(0.015625)"/>
       <path id="ArialMT-54" d="M 1659 0 
L 1659 4041 
L 150 4041 
L 150 4581 
L 3781 4581 
L 3781 4041 
L 2266 4041 
L 2266 0 
L 1659 0 
z
" transform="scale(0.015625)"/>
       <path id="ArialMT-6d" d="M 422 0 
L 422 3319 
L 925 3319 
L 925 2853 
Q 1081 3097 1340 3245 
Q 1600 3394 1931 3394 
Q 2300 3394 2536 3241 
Q 2772 3088 2869 2813 
Q 3263 3394 3894 3394 
Q 4388 3394 4653 3120 
Q 4919 2847 4919 2278 
L 4919 0 
L 4359 0 
L 4359 2091 
Q 4359 2428 4304 2576 
Q 4250 2725 4106 2815 
Q 3963 2906 3769 2906 
Q 3419 2906 3187 2673 
Q 2956 2441 2956 1928 
L 2956 0 
L 2394 0 
L 2394 2156 
Q 2394 2531 2256 2718 
Q 2119 2906 1806 2906 
Q 1569 2906 1367 2781 
Q 1166 2656 1075 2415 
Q 984 2175 984 1722 
L 984 0 
L 422 0 
z
" transform="scale(0.015625)"/>
       <path id="ArialMT-28" d="M 1497 -1347 
Q 1031 -759 709 28 
Q 388 816 388 1659 
Q 388 2403 628 3084 
Q 909 3875 1497 4659 
L 1900 4659 
Q 1522 4009 1400 3731 
Q 1209 3300 1100 2831 
Q 966 2247 966 1656 
Q 966 153 1900 -1347 
L 1497 -1347 
z
" transform="scale(0.015625)"/>
       <path id="ArialMT-73" d="M 197 991 
L 753 1078 
Q 800 744 1014 566 
Q 1228 388 1613 388 
Q 2000 388 2187 545 
Q 2375 703 2375 916 
Q 2375 1106 2209 1216 
Q 2094 1291 1634 1406 
Q 1016 1563 777 1677 
Q 538 1791 414 1992 
Q 291 2194 291 2438 
Q 291 2659 392 2848 
Q 494 3038 669 3163 
Q 800 3259 1026 3326 
Q 1253 3394 1513 3394 
Q 1903 3394 2198 3281 
Q 2494 3169 2634 2976 
Q 2775 2784 2828 2463 
L 2278 2388 
Q 2241 2644 2061 2787 
Q 1881 2931 1553 2931 
Q 1166 2931 1000 2803 
Q 834 2675 834 2503 
Q 834 2394 903 2306 
Q 972 2216 1119 2156 
Q 1203 2125 1616 2013 
Q 2213 1853 2448 1751 
Q 2684 1650 2818 1456 
Q 2953 1263 2953 975 
Q 2953 694 2789 445 
Q 2625 197 2315 61 
Q 2006 -75 1616 -75 
Q 969 -75 630 194 
Q 291 463 197 991 
z
" transform="scale(0.015625)"/>
       <path id="ArialMT-29" d="M 791 -1347 
L 388 -1347 
Q 1322 153 1322 1656 
Q 1322 2244 1188 2822 
Q 1081 3291 891 3722 
Q 769 4003 388 4659 
L 791 4659 
Q 1378 3875 1659 3084 
Q 1900 2403 1900 1659 
Q 1900 816 1576 28 
Q 1253 -759 791 -1347 
z
" transform="scale(0.015625)"/>
      </defs>
      <use xlink:href="#ArialMT-45"/>
      <use xlink:href="#ArialMT-78" x="66.699219"/>
      <use xlink:href="#ArialMT-65" x="116.699219"/>
      <use xlink:href="#ArialMT-63" x="172.314453"/>
      <use xlink:href="#ArialMT-75" x="222.314453"/>
      <use xlink:href="#ArialMT-74" x="277.929688"/>
      <use xlink:href="#ArialMT-69" x="305.712891"/>
      <use xlink:href="#ArialMT-6f" x="327.929688"/>
      <use xlink:href="#ArialMT-6e" x="383.544922"/>
      <use xlink:href="#ArialMT-20" x="439.160156"/>
      <use xlink:href="#ArialMT-54" x="465.193359"/>
      <use xlink:href="#ArialMT-69" x="522.527344"/>
      <use xlink:href="#ArialMT-6d" x="544.744141"/>
      <use xlink:href="#ArialMT-65" x="628.044922"/>
      <use xlink:href="#ArialMT-20" x="683.660156"/>
      <use xlink:href="#ArialMT-28" x="711.443359"/>
      <use xlink:href="#ArialMT-6d" x="744.744141"/>
      <use xlink:href="#ArialMT-73" x="828.044922"/>
      <use xlink:href="#ArialMT-29" x="878.044922"/>
     </g>
    </g>
   </g>
   <g id="PolyCollection_1"/>
   <g id="line2d_15">
    <path d="M 78.153253 324.192273 
L 78.404522 313.146818 
L 78.655792 309.465 
L 78.907061 302.101364 
L 79.158331 309.465 
L 79.4096 302.101364 
L 79.66087 309.465 
L 79.912139 309.465 
L 80.163408 302.101364 
L 80.414678 305.783182 
L 80.665947 302.101364 
L 84.937528 302.101364 
L 85.188797 298.419545 
L 85.440067 302.101364 
L 85.691336 302.101364 
L 85.942606 294.737727 
L 86.193875 302.101364 
L 87.198953 302.101364 
L 87.450223 294.737727 
L 87.701492 294.737727 
L 87.952761 302.101364 
L 88.204031 294.737727 
L 88.957839 294.737727 
L 89.209109 302.101364 
L 89.460378 302.101364 
L 89.711648 294.737727 
L 89.962917 302.101364 
L 90.214187 294.737727 
L 97.501001 294.737727 
L 97.75227 291.055909 
L 98.003539 294.737727 
L 98.757348 294.737727 
L 99.008617 287.374091 
L 99.259887 294.737727 
L 99.511156 287.374091 
L 99.762426 294.737727 
L 100.516234 294.737727 
L 100.767503 287.374091 
L 101.018773 294.737727 
L 101.270042 287.374091 
L 101.521312 294.737727 
L 101.772581 294.737727 
L 102.023851 291.055909 
L 102.27512 294.737727 
L 102.52639 287.374091 
L 102.777659 294.737727 
L 103.028929 291.055909 
L 103.280198 294.737727 
L 103.531467 294.737727 
L 103.782737 291.055909 
L 104.034006 291.055909 
L 104.285276 287.374091 
L 104.536545 294.737727 
L 104.787815 287.374091 
L 105.039084 294.737727 
L 105.290354 287.374091 
L 106.546701 287.374091 
L 106.79797 294.737727 
L 107.04924 294.737727 
L 107.300509 287.374091 
L 109.310665 287.374091 
L 109.561934 291.055909 
L 109.813204 287.374091 
L 114.838593 287.374091 
L 115.089862 283.692273 
L 115.341132 287.374091 
L 116.597479 287.374091 
L 116.848748 280.010455 
L 117.100018 287.374091 
L 117.853826 287.374091 
L 118.105096 280.010455 
L 118.356365 287.374091 
L 118.607634 287.374091 
L 118.858904 280.010455 
L 119.110173 287.374091 
L 119.863982 287.374091 
L 120.366521 280.010455 
L 120.61779 272.646818 
L 122.125407 272.646818 
L 122.376676 265.283182 
L 122.627946 272.646818 
L 122.879215 265.283182 
L 123.130485 272.646818 
L 129.160951 272.646818 
L 129.66349 257.919545 
L 129.91476 261.601364 
L 130.166029 250.555909 
L 130.417299 250.555909 
L 130.668568 257.919545 
L 131.422377 257.919545 
L 131.924915 250.555909 
L 132.176185 243.192273 
L 133.181263 243.192273 
L 133.432532 250.555909 
L 133.683802 243.192273 
L 133.935071 243.192273 
L 134.18634 250.555909 
L 135.693957 250.555909 
L 136.196496 265.283182 
L 136.447766 257.919545 
L 137.704113 257.919545 
L 137.955382 265.283182 
L 138.206652 257.919545 
L 138.457921 265.283182 
L 139.965538 265.283182 
L 140.216807 257.919545 
L 142.980771 257.919545 
L 143.232041 265.283182 
L 143.48331 265.283182 
L 143.73458 257.919545 
L 144.237119 257.919545 
L 144.488388 250.555909 
L 144.739657 250.555909 
L 144.990927 257.919545 
L 145.242196 257.919545 
L 145.493466 250.555909 
L 145.744735 250.555909 
L 145.996005 257.919545 
L 146.749813 257.919545 
L 147.001082 250.555909 
L 147.252352 257.919545 
L 148.25743 257.919545 
L 148.508699 243.192273 
L 148.759969 250.555909 
L 149.011238 250.555909 
L 149.262508 243.192273 
L 149.513777 246.874091 
L 149.765046 243.192273 
L 151.021394 243.192273 
L 151.272663 246.874091 
L 151.523933 243.192273 
L 152.026472 243.192273 
L 152.277741 250.555909 
L 152.52901 250.555909 
L 152.78028 243.192273 
L 153.031549 243.192273 
L 153.282819 254.237727 
L 153.534088 250.555909 
L 154.036627 250.555909 
L 154.287897 257.919545 
L 154.790435 250.555909 
L 155.041705 250.555909 
L 155.292974 257.919545 
L 155.544244 250.555909 
L 155.795513 250.555909 
L 156.046783 257.919545 
L 156.298052 250.555909 
L 156.549322 257.919545 
L 156.800591 250.555909 
L 157.30313 250.555909 
L 157.554399 243.192273 
L 157.805669 250.555909 
L 158.056938 250.555909 
L 158.308208 243.192273 
L 158.810747 243.192273 
L 159.313286 250.555909 
L 162.07725 250.555909 
L 162.328519 243.192273 
L 162.579788 239.510455 
L 162.831058 243.192273 
L 163.082327 243.192273 
L 163.333597 235.828636 
L 163.584866 243.192273 
L 164.338675 243.192273 
L 164.589944 235.828636 
L 164.841214 235.828636 
L 165.343752 243.192273 
L 166.6001 243.192273 
L 166.851369 235.828636 
L 168.358986 235.828636 
L 168.610255 250.555909 
L 170.369141 250.555909 
L 170.620411 257.919545 
L 172.379297 257.919545 
L 172.630567 250.555909 
L 172.881836 257.919545 
L 175.6458 257.919545 
L 175.897069 250.555909 
L 176.650878 250.555909 
L 177.153417 235.828636 
L 177.404686 243.192273 
L 177.655956 243.192273 
L 177.907225 228.465 
L 179.163572 228.465 
L 179.414842 232.146818 
L 179.666111 243.192273 
L 180.671189 243.192273 
L 180.922458 250.555909 
L 181.173728 250.555909 
L 181.424997 246.874091 
L 181.676267 250.555909 
L 181.927536 243.192273 
L 183.686422 243.192273 
L 183.937692 250.555909 
L 184.188961 246.874091 
L 184.440231 250.555909 
L 185.445309 250.555909 
L 185.696578 243.192273 
L 188.711811 243.192273 
L 188.963081 250.555909 
L 189.46562 250.555909 
L 189.716889 243.192273 
L 191.727045 243.192273 
L 191.978314 235.828636 
L 192.983392 235.828636 
L 193.485931 221.101364 
L 193.7372 228.465 
L 193.98847 221.101364 
L 194.742278 221.101364 
L 194.993548 217.419545 
L 195.244817 221.101364 
L 195.496087 221.101364 
L 195.747356 206.374091 
L 197.003703 206.374091 
L 197.254973 213.737727 
L 197.506242 210.055909 
L 197.757512 213.737727 
L 199.013859 213.737727 
L 199.265128 206.374091 
L 199.516398 213.737727 
L 200.270206 213.737727 
L 200.521476 51.737727 
L 200.772745 213.737727 
L 201.024015 210.055909 
L 201.275284 213.737727 
L 201.526553 210.055909 
L 201.777823 213.737727 
L 202.029092 210.055909 
L 202.280362 213.737727 
L 202.531631 221.101364 
L 202.782901 213.737727 
L 204.541787 213.737727 
L 204.793056 221.101364 
L 205.044326 221.101364 
L 205.295595 213.737727 
L 205.546865 213.737727 
L 206.049404 228.465 
L 206.300673 221.101364 
L 206.551942 228.465 
L 206.803212 228.465 
L 207.054481 235.828636 
L 207.305751 228.465 
L 207.55702 235.828636 
L 207.80829 235.828636 
L 208.059559 243.192273 
L 209.064637 243.192273 
L 209.315906 250.555909 
L 209.818445 250.555909 
L 210.320984 243.192273 
L 215.346373 243.192273 
L 215.597643 221.101364 
L 215.848912 228.465 
L 216.351451 228.465 
L 216.60272 232.146818 
L 216.85399 228.465 
L 217.105259 235.828636 
L 217.607798 235.828636 
L 217.859068 243.192273 
L 218.110337 239.510455 
L 218.361607 243.192273 
L 218.612876 235.828636 
L 218.864146 243.192273 
L 220.120493 243.192273 
L 220.371762 239.510455 
L 220.623032 243.192273 
L 220.874301 239.510455 
L 221.125571 243.192273 
L 222.633187 243.192273 
L 222.884457 239.510455 
L 223.135726 243.192273 
L 223.386996 235.828636 
L 223.889535 235.828636 
L 224.140804 243.192273 
L 224.392073 235.828636 
L 225.397151 235.828636 
L 225.648421 243.192273 
L 225.89969 243.192273 
L 226.402229 235.828636 
L 226.653499 239.510455 
L 226.904768 235.828636 
L 227.156037 235.828636 
L 227.407307 228.465 
L 229.166193 228.465 
L 229.417463 221.101364 
L 229.668732 221.101364 
L 229.920001 213.737727 
L 230.42254 213.737727 
L 230.67381 199.010455 
L 232.935235 199.010455 
L 233.186504 195.328636 
L 233.437774 199.010455 
L 233.689043 191.646818 
L 233.940313 199.010455 
L 234.191582 199.010455 
L 234.694121 191.646818 
L 236.201738 191.646818 
L 236.453007 184.283182 
L 237.206815 184.283182 
L 237.458085 191.646818 
L 237.709354 191.646818 
L 238.211893 176.919545 
L 238.965702 176.919545 
L 239.216971 184.283182 
L 239.468241 184.283182 
L 239.71951 176.919545 
L 240.222049 176.919545 
L 240.473318 184.283182 
L 240.724588 184.283182 
L 240.975857 176.919545 
L 241.227127 184.283182 
L 241.478396 176.919545 
L 241.980935 176.919545 
L 242.232205 184.283182 
L 243.991091 184.283182 
L 244.24236 191.646818 
L 246.001246 191.646818 
L 246.252516 199.010455 
L 246.503785 199.010455 
L 246.755055 191.646818 
L 247.006324 199.010455 
L 247.257594 191.646818 
L 247.760132 191.646818 
L 248.011402 184.283182 
L 248.262671 187.965 
L 248.513941 184.283182 
L 249.01648 184.283182 
L 249.267749 191.646818 
L 249.519019 191.646818 
L 249.770288 184.283182 
L 250.021558 187.965 
L 250.524096 169.555909 
L 253.28806 169.555909 
L 253.790599 176.919545 
L 254.041869 176.919545 
L 254.293138 184.283182 
L 256.052024 184.283182 
L 256.303294 176.919545 
L 257.057102 176.919545 
L 257.308372 184.283182 
L 257.559641 187.965 
L 257.81091 184.283182 
L 258.06218 184.283182 
L 258.564719 169.555909 
L 258.815988 176.919545 
L 259.318527 176.919545 
L 259.569797 184.283182 
L 259.821066 176.919545 
L 260.072336 176.919545 
L 260.574874 191.646818 
L 260.826144 191.646818 
L 261.077413 184.283182 
L 261.328683 191.646818 
L 261.579952 191.646818 
L 261.831222 199.010455 
L 262.333761 199.010455 
L 262.58503 206.374091 
L 264.092647 206.374091 
L 264.343916 199.010455 
L 264.595186 184.283182 
L 265.600263 184.283182 
L 265.851533 191.646818 
L 266.102802 191.646818 
L 266.354072 184.283182 
L 266.605341 191.646818 
L 267.10788 191.646818 
L 267.35915 195.328636 
L 267.610419 195.328636 
L 267.861689 206.374091 
L 268.112958 206.374091 
L 268.364227 199.010455 
L 268.615497 213.737727 
L 268.866766 213.737727 
L 269.369305 206.374091 
L 269.871844 206.374091 
L 270.123114 213.737727 
L 270.374383 206.374091 
L 270.625653 213.737727 
L 270.876922 210.055909 
L 271.128191 213.737727 
L 271.63073 213.737727 
L 271.882 206.374091 
L 272.384539 206.374091 
L 272.635808 213.737727 
L 272.887078 206.374091 
L 273.138347 206.374091 
L 273.389616 213.737727 
L 274.394694 213.737727 
L 274.645964 206.374091 
L 274.897233 206.374091 
L 275.148503 213.737727 
L 275.399772 213.737727 
L 275.651042 206.374091 
L 275.902311 213.737727 
L 276.40485 206.374091 
L 276.656119 206.374091 
L 276.907389 199.010455 
L 277.158658 206.374091 
L 279.420083 206.374091 
L 279.671353 199.010455 
L 280.173892 199.010455 
L 280.425161 206.374091 
L 280.9277 206.374091 
L 281.178969 199.010455 
L 281.430239 206.374091 
L 281.681508 206.374091 
L 281.932778 202.692273 
L 282.184047 202.692273 
L 282.435317 199.010455 
L 282.686586 206.374091 
L 282.937856 206.374091 
L 283.189125 213.737727 
L 283.440395 213.737727 
L 283.691664 199.010455 
L 283.942933 202.692273 
L 284.194203 202.692273 
L 284.445472 199.010455 
L 284.696742 206.374091 
L 284.948011 199.010455 
L 285.199281 210.055909 
L 285.45055 206.374091 
L 285.70182 199.010455 
L 285.953089 162.192273 
L 286.204358 162.192273 
L 286.455628 169.555909 
L 286.706897 173.237727 
L 286.958167 184.283182 
L 287.209436 169.555909 
L 287.460706 176.919545 
L 287.711975 176.919545 
L 288.214514 184.283182 
L 288.717053 184.283182 
L 288.968322 199.010455 
L 289.219592 199.010455 
L 289.470861 191.646818 
L 289.722131 191.646818 
L 289.9734 184.283182 
L 290.22467 191.646818 
L 290.475939 184.283182 
L 290.727209 184.283182 
L 290.978478 191.646818 
L 291.229748 184.283182 
L 291.983556 184.283182 
L 292.234825 180.601364 
L 292.486095 184.283182 
L 293.239903 184.283182 
L 293.491173 180.601364 
L 293.742442 184.283182 
L 294.244981 184.283182 
L 294.49625 191.646818 
L 296.255137 191.646818 
L 296.506406 199.010455 
L 296.757675 199.010455 
L 297.008945 191.646818 
L 297.260214 191.646818 
L 297.511484 199.010455 
L 298.014023 199.010455 
L 298.265292 206.374091 
L 298.516562 206.374091 
L 299.019101 191.646818 
L 299.521639 191.646818 
L 299.772909 199.010455 
L 300.024178 191.646818 
L 300.777987 191.646818 
L 301.029256 199.010455 
L 301.280526 154.828636 
L 301.531795 154.828636 
L 302.034334 169.555909 
L 302.285603 169.555909 
L 303.039412 191.646818 
L 303.290681 191.646818 
L 303.541951 184.283182 
L 303.79322 195.328636 
L 304.04449 191.646818 
L 304.295759 199.010455 
L 304.547028 191.646818 
L 305.552106 191.646818 
L 305.803376 199.010455 
L 306.305915 199.010455 
L 306.557184 191.646818 
L 306.808453 199.010455 
L 307.813531 199.010455 
L 308.064801 195.328636 
L 308.31607 199.010455 
L 309.069879 199.010455 
L 309.321148 184.283182 
L 309.572417 184.283182 
L 309.823687 191.646818 
L 310.074956 184.283182 
L 310.828765 184.283182 
L 311.080034 191.646818 
L 311.331304 191.646818 
L 311.582573 184.283182 
L 311.833843 184.283182 
L 312.085112 187.965 
L 312.336381 180.601364 
L 312.587651 191.646818 
L 312.83892 184.283182 
L 313.09019 191.646818 
L 313.843998 191.646818 
L 314.095268 184.283182 
L 314.346537 191.646818 
L 314.849076 184.283182 
L 315.100345 184.283182 
L 315.351615 191.646818 
L 315.602884 191.646818 
L 316.105423 184.283182 
L 316.356693 184.283182 
L 316.607962 187.965 
L 316.859232 184.283182 
L 317.110501 184.283182 
L 317.36177 180.601364 
L 317.61304 184.283182 
L 318.115579 184.283182 
L 318.366848 176.919545 
L 318.869387 176.919545 
L 319.120657 147.465 
L 319.623196 147.465 
L 319.874465 143.783182 
L 320.377004 169.555909 
L 320.879543 169.555909 
L 321.130812 176.919545 
L 321.382082 169.555909 
L 321.633351 176.919545 
L 321.884621 180.601364 
L 322.13589 176.919545 
L 322.387159 184.283182 
L 322.638429 184.283182 
L 322.889698 176.919545 
L 323.140968 184.283182 
L 324.146046 184.283182 
L 324.397315 191.646818 
L 325.653662 191.646818 
L 325.904932 184.283182 
L 326.156201 191.646818 
L 326.407471 187.965 
L 326.65874 191.646818 
L 326.91001 184.283182 
L 327.161279 184.283182 
L 327.412549 180.601364 
L 327.663818 184.283182 
L 327.915087 191.646818 
L 328.166357 191.646818 
L 328.417626 180.601364 
L 328.668896 184.283182 
L 328.920165 184.283182 
L 329.171435 180.601364 
L 329.171435 180.601364 
" clip-path="url(#pcd9db2c168)" style="fill: none; stroke: #4c72b0; stroke-width: 1.5; stroke-linecap: round"/>
   </g>
   <g id="patch_3">
    <path d="M 65.602344 337.815 
L 65.602344 38.115 
" style="fill: none; stroke: #cccccc; stroke-width: 1.25; stroke-linejoin: miter; stroke-linecap: square"/>
   </g>
   <g id="patch_4">
    <path d="M 65.602344 337.815 
L 341.722344 337.815 
" style="fill: none; stroke: #cccccc; stroke-width: 1.25; stroke-linejoin: miter; stroke-linecap: square"/>
   </g>
   <g id="legend_1">
    <g id="text_17">
     <!-- counting -->
     <g style="fill: #262626" transform="translate(180.979531 20.189375) scale(0.12 -0.12)">
      <use xlink:href="#ArialMT-63"/>
      <use xlink:href="#ArialMT-6f" x="50"/>
      <use xlink:href="#ArialMT-75" x="105.615234"/>
      <use xlink:href="#ArialMT-6e" x="161.230469"/>
      <use xlink:href="#ArialMT-74" x="216.845703"/>
      <use xlink:href="#ArialMT-69" x="244.628906"/>
      <use xlink:href="#ArialMT-6e" x="266.845703"/>
      <use xlink:href="#ArialMT-67" x="322.460938"/>
     </g>
    </g>
   </g>
  </g>
 </g>
 <defs>
  <clipPath id="pcd9db2c168">
   <rect x="65.602344" y="38.115" width="276.12" height="299.7"/>
  </clipPath>
 </defs>
</svg>
