<?xml version="1.0" encoding="utf-8" standalone="no"?>
<!DOCTYPE svg PUBLIC "-//W3C//DTD SVG 1.1//EN"
  "http://www.w3.org/Graphics/SVG/1.1/DTD/svg11.dtd">
<svg xmlns:xlink="http://www.w3.org/1999/xlink" width="461.605312pt" height="383.525pt" viewBox="0 0 461.605312 383.525" xmlns="http://www.w3.org/2000/svg" version="1.1">
 <metadata>
  <rdf:RDF xmlns:dc="http://purl.org/dc/elements/1.1/" xmlns:cc="http://creativecommons.org/ns#" xmlns:rdf="http://www.w3.org/1999/02/22-rdf-syntax-ns#">
   <cc:Work>
    <dc:type rdf:resource="http://purl.org/dc/dcmitype/StillImage"/>
    <dc:date>2024-12-12T11:37:04.250849</dc:date>
    <dc:format>image/svg+xml</dc:format>
    <dc:creator>
     <cc:Agent>
      <dc:title>Matplotlib v3.9.3, https://matplotlib.org/</dc:title>
     </cc:Agent>
    </dc:creator>
   </cc:Work>
  </rdf:RDF>
 </metadata>
 <defs>
  <style type="text/css">*{stroke-linejoin: round; stroke-linecap: butt}</style>
 </defs>
 <g id="figure_1">
  <g id="patch_1">
   <path d="M 0 383.525 
L 461.605312 383.525 
L 461.605312 0 
L 0 0 
z
" style="fill: #ffffff"/>
  </g>
  <g id="axes_1">
   <g id="patch_2">
    <path d="M 59.485313 306.9 
L 454.405312 306.9 
L 454.405312 7.2 
L 59.485313 7.2 
z
" style="fill: #ffffff"/>
   </g>
   <g id="matplotlib.axis_1">
    <g id="xtick_1">
     <g id="line2d_1">
      <path d="M 77.076844 306.9 
L 77.076844 7.2 
" clip-path="url(#pc7fe10f0b3)" style="fill: none; stroke: #cccccc; stroke-linecap: round"/>
     </g>
     <g id="text_1">
      <!-- 0 -->
      <g style="fill: #262626" transform="translate(74.018328 324.273594) scale(0.11 -0.11)">
       <defs>
        <path id="ArialMT-30" d="M 266 2259 
Q 266 3072 433 3567 
Q 600 4063 929 4331 
Q 1259 4600 1759 4600 
Q 2128 4600 2406 4451 
Q 2684 4303 2865 4023 
Q 3047 3744 3150 3342 
Q 3253 2941 3253 2259 
Q 3253 1453 3087 958 
Q 2922 463 2592 192 
Q 2263 -78 1759 -78 
Q 1097 -78 719 397 
Q 266 969 266 2259 
z
M 844 2259 
Q 844 1131 1108 757 
Q 1372 384 1759 384 
Q 2147 384 2411 759 
Q 2675 1134 2675 2259 
Q 2675 3391 2411 3762 
Q 2147 4134 1753 4134 
Q 1366 4134 1134 3806 
Q 844 3388 844 2259 
z
" transform="scale(0.015625)"/>
       </defs>
       <use xlink:href="#ArialMT-30"/>
      </g>
     </g>
    </g>
    <g id="xtick_2">
     <g id="line2d_2">
      <path d="M 148.952356 306.9 
L 148.952356 7.2 
" clip-path="url(#pc7fe10f0b3)" style="fill: none; stroke: #cccccc; stroke-linecap: round"/>
     </g>
     <g id="text_2">
      <!-- 200 -->
      <g style="fill: #262626" transform="translate(139.776809 324.273594) scale(0.11 -0.11)">
       <defs>
        <path id="ArialMT-32" d="M 3222 541 
L 3222 0 
L 194 0 
Q 188 203 259 391 
Q 375 700 629 1000 
Q 884 1300 1366 1694 
Q 2113 2306 2375 2664 
Q 2638 3022 2638 3341 
Q 2638 3675 2398 3904 
Q 2159 4134 1775 4134 
Q 1369 4134 1125 3890 
Q 881 3647 878 3216 
L 300 3275 
Q 359 3922 746 4261 
Q 1134 4600 1788 4600 
Q 2447 4600 2831 4234 
Q 3216 3869 3216 3328 
Q 3216 3053 3103 2787 
Q 2991 2522 2730 2228 
Q 2469 1934 1863 1422 
Q 1356 997 1212 845 
Q 1069 694 975 541 
L 3222 541 
z
" transform="scale(0.015625)"/>
       </defs>
       <use xlink:href="#ArialMT-32"/>
       <use xlink:href="#ArialMT-30" x="55.615234"/>
       <use xlink:href="#ArialMT-30" x="111.230469"/>
      </g>
     </g>
    </g>
    <g id="xtick_3">
     <g id="line2d_3">
      <path d="M 220.827868 306.9 
L 220.827868 7.2 
" clip-path="url(#pc7fe10f0b3)" style="fill: none; stroke: #cccccc; stroke-linecap: round"/>
     </g>
     <g id="text_3">
      <!-- 400 -->
      <g style="fill: #262626" transform="translate(211.652321 324.273594) scale(0.11 -0.11)">
       <defs>
        <path id="ArialMT-34" d="M 2069 0 
L 2069 1097 
L 81 1097 
L 81 1613 
L 2172 4581 
L 2631 4581 
L 2631 1613 
L 3250 1613 
L 3250 1097 
L 2631 1097 
L 2631 0 
L 2069 0 
z
M 2069 1613 
L 2069 3678 
L 634 1613 
L 2069 1613 
z
" transform="scale(0.015625)"/>
       </defs>
       <use xlink:href="#ArialMT-34"/>
       <use xlink:href="#ArialMT-30" x="55.615234"/>
       <use xlink:href="#ArialMT-30" x="111.230469"/>
      </g>
     </g>
    </g>
    <g id="xtick_4">
     <g id="line2d_4">
      <path d="M 292.70338 306.9 
L 292.70338 7.2 
" clip-path="url(#pc7fe10f0b3)" style="fill: none; stroke: #cccccc; stroke-linecap: round"/>
     </g>
     <g id="text_4">
      <!-- 600 -->
      <g style="fill: #262626" transform="translate(283.527833 324.273594) scale(0.11 -0.11)">
       <defs>
        <path id="ArialMT-36" d="M 3184 3459 
L 2625 3416 
Q 2550 3747 2413 3897 
Q 2184 4138 1850 4138 
Q 1581 4138 1378 3988 
Q 1113 3794 959 3422 
Q 806 3050 800 2363 
Q 1003 2672 1297 2822 
Q 1591 2972 1913 2972 
Q 2475 2972 2870 2558 
Q 3266 2144 3266 1488 
Q 3266 1056 3080 686 
Q 2894 316 2569 119 
Q 2244 -78 1831 -78 
Q 1128 -78 684 439 
Q 241 956 241 2144 
Q 241 3472 731 4075 
Q 1159 4600 1884 4600 
Q 2425 4600 2770 4297 
Q 3116 3994 3184 3459 
z
M 888 1484 
Q 888 1194 1011 928 
Q 1134 663 1356 523 
Q 1578 384 1822 384 
Q 2178 384 2434 671 
Q 2691 959 2691 1453 
Q 2691 1928 2437 2201 
Q 2184 2475 1800 2475 
Q 1419 2475 1153 2201 
Q 888 1928 888 1484 
z
" transform="scale(0.015625)"/>
       </defs>
       <use xlink:href="#ArialMT-36"/>
       <use xlink:href="#ArialMT-30" x="55.615234"/>
       <use xlink:href="#ArialMT-30" x="111.230469"/>
      </g>
     </g>
    </g>
    <g id="xtick_5">
     <g id="line2d_5">
      <path d="M 364.578892 306.9 
L 364.578892 7.2 
" clip-path="url(#pc7fe10f0b3)" style="fill: none; stroke: #cccccc; stroke-linecap: round"/>
     </g>
     <g id="text_5">
      <!-- 800 -->
      <g style="fill: #262626" transform="translate(355.403345 324.273594) scale(0.11 -0.11)">
       <defs>
        <path id="ArialMT-38" d="M 1131 2484 
Q 781 2613 612 2850 
Q 444 3088 444 3419 
Q 444 3919 803 4259 
Q 1163 4600 1759 4600 
Q 2359 4600 2725 4251 
Q 3091 3903 3091 3403 
Q 3091 3084 2923 2848 
Q 2756 2613 2416 2484 
Q 2838 2347 3058 2040 
Q 3278 1734 3278 1309 
Q 3278 722 2862 322 
Q 2447 -78 1769 -78 
Q 1091 -78 675 323 
Q 259 725 259 1325 
Q 259 1772 486 2073 
Q 713 2375 1131 2484 
z
M 1019 3438 
Q 1019 3113 1228 2906 
Q 1438 2700 1772 2700 
Q 2097 2700 2305 2904 
Q 2513 3109 2513 3406 
Q 2513 3716 2298 3927 
Q 2084 4138 1766 4138 
Q 1444 4138 1231 3931 
Q 1019 3725 1019 3438 
z
M 838 1322 
Q 838 1081 952 856 
Q 1066 631 1291 507 
Q 1516 384 1775 384 
Q 2178 384 2440 643 
Q 2703 903 2703 1303 
Q 2703 1709 2433 1975 
Q 2163 2241 1756 2241 
Q 1359 2241 1098 1978 
Q 838 1716 838 1322 
z
" transform="scale(0.015625)"/>
       </defs>
       <use xlink:href="#ArialMT-38"/>
       <use xlink:href="#ArialMT-30" x="55.615234"/>
       <use xlink:href="#ArialMT-30" x="111.230469"/>
      </g>
     </g>
    </g>
    <g id="xtick_6">
     <g id="line2d_6">
      <path d="M 436.454403 306.9 
L 436.454403 7.2 
" clip-path="url(#pc7fe10f0b3)" style="fill: none; stroke: #cccccc; stroke-linecap: round"/>
     </g>
     <g id="text_6">
      <!-- 1000 -->
      <g style="fill: #262626" transform="translate(424.220341 324.273594) scale(0.11 -0.11)">
       <defs>
        <path id="ArialMT-31" d="M 2384 0 
L 1822 0 
L 1822 3584 
Q 1619 3391 1289 3197 
Q 959 3003 697 2906 
L 697 3450 
Q 1169 3672 1522 3987 
Q 1875 4303 2022 4600 
L 2384 4600 
L 2384 0 
z
" transform="scale(0.015625)"/>
       </defs>
       <use xlink:href="#ArialMT-31"/>
       <use xlink:href="#ArialMT-30" x="55.615234"/>
       <use xlink:href="#ArialMT-30" x="111.230469"/>
       <use xlink:href="#ArialMT-30" x="166.845703"/>
      </g>
     </g>
    </g>
    <g id="text_7">
     <!-- Input Size -->
     <g style="fill: #262626" transform="translate(230.263125 339.195469) scale(0.12 -0.12)">
      <defs>
       <path id="ArialMT-49" d="M 597 0 
L 597 4581 
L 1203 4581 
L 1203 0 
L 597 0 
z
" transform="scale(0.015625)"/>
       <path id="ArialMT-6e" d="M 422 0 
L 422 3319 
L 928 3319 
L 928 2847 
Q 1294 3394 1984 3394 
Q 2284 3394 2536 3286 
Q 2788 3178 2913 3003 
Q 3038 2828 3088 2588 
Q 3119 2431 3119 2041 
L 3119 0 
L 2556 0 
L 2556 2019 
Q 2556 2363 2490 2533 
Q 2425 2703 2258 2804 
Q 2091 2906 1866 2906 
Q 1506 2906 1245 2678 
Q 984 2450 984 1813 
L 984 0 
L 422 0 
z
" transform="scale(0.015625)"/>
       <path id="ArialMT-70" d="M 422 -1272 
L 422 3319 
L 934 3319 
L 934 2888 
Q 1116 3141 1344 3267 
Q 1572 3394 1897 3394 
Q 2322 3394 2647 3175 
Q 2972 2956 3137 2557 
Q 3303 2159 3303 1684 
Q 3303 1175 3120 767 
Q 2938 359 2589 142 
Q 2241 -75 1856 -75 
Q 1575 -75 1351 44 
Q 1128 163 984 344 
L 984 -1272 
L 422 -1272 
z
M 931 1641 
Q 931 1000 1190 694 
Q 1450 388 1819 388 
Q 2194 388 2461 705 
Q 2728 1022 2728 1688 
Q 2728 2322 2467 2637 
Q 2206 2953 1844 2953 
Q 1484 2953 1207 2617 
Q 931 2281 931 1641 
z
" transform="scale(0.015625)"/>
       <path id="ArialMT-75" d="M 2597 0 
L 2597 488 
Q 2209 -75 1544 -75 
Q 1250 -75 995 37 
Q 741 150 617 320 
Q 494 491 444 738 
Q 409 903 409 1263 
L 409 3319 
L 972 3319 
L 972 1478 
Q 972 1038 1006 884 
Q 1059 663 1231 536 
Q 1403 409 1656 409 
Q 1909 409 2131 539 
Q 2353 669 2445 892 
Q 2538 1116 2538 1541 
L 2538 3319 
L 3100 3319 
L 3100 0 
L 2597 0 
z
" transform="scale(0.015625)"/>
       <path id="ArialMT-74" d="M 1650 503 
L 1731 6 
Q 1494 -44 1306 -44 
Q 1000 -44 831 53 
Q 663 150 594 308 
Q 525 466 525 972 
L 525 2881 
L 113 2881 
L 113 3319 
L 525 3319 
L 525 4141 
L 1084 4478 
L 1084 3319 
L 1650 3319 
L 1650 2881 
L 1084 2881 
L 1084 941 
Q 1084 700 1114 631 
Q 1144 563 1211 522 
Q 1278 481 1403 481 
Q 1497 481 1650 503 
z
" transform="scale(0.015625)"/>
       <path id="ArialMT-20" transform="scale(0.015625)"/>
       <path id="ArialMT-53" d="M 288 1472 
L 859 1522 
Q 900 1178 1048 958 
Q 1197 738 1509 602 
Q 1822 466 2213 466 
Q 2559 466 2825 569 
Q 3091 672 3220 851 
Q 3350 1031 3350 1244 
Q 3350 1459 3225 1620 
Q 3100 1781 2813 1891 
Q 2628 1963 1997 2114 
Q 1366 2266 1113 2400 
Q 784 2572 623 2826 
Q 463 3081 463 3397 
Q 463 3744 659 4045 
Q 856 4347 1234 4503 
Q 1613 4659 2075 4659 
Q 2584 4659 2973 4495 
Q 3363 4331 3572 4012 
Q 3781 3694 3797 3291 
L 3216 3247 
Q 3169 3681 2898 3903 
Q 2628 4125 2100 4125 
Q 1550 4125 1298 3923 
Q 1047 3722 1047 3438 
Q 1047 3191 1225 3031 
Q 1400 2872 2139 2705 
Q 2878 2538 3153 2413 
Q 3553 2228 3743 1945 
Q 3934 1663 3934 1294 
Q 3934 928 3725 604 
Q 3516 281 3123 101 
Q 2731 -78 2241 -78 
Q 1619 -78 1198 103 
Q 778 284 539 648 
Q 300 1013 288 1472 
z
" transform="scale(0.015625)"/>
       <path id="ArialMT-69" d="M 425 3934 
L 425 4581 
L 988 4581 
L 988 3934 
L 425 3934 
z
M 425 0 
L 425 3319 
L 988 3319 
L 988 0 
L 425 0 
z
" transform="scale(0.015625)"/>
       <path id="ArialMT-7a" d="M 125 0 
L 125 456 
L 2238 2881 
Q 1878 2863 1603 2863 
L 250 2863 
L 250 3319 
L 2963 3319 
L 2963 2947 
L 1166 841 
L 819 456 
Q 1197 484 1528 484 
L 3063 484 
L 3063 0 
L 125 0 
z
" transform="scale(0.015625)"/>
       <path id="ArialMT-65" d="M 2694 1069 
L 3275 997 
Q 3138 488 2766 206 
Q 2394 -75 1816 -75 
Q 1088 -75 661 373 
Q 234 822 234 1631 
Q 234 2469 665 2931 
Q 1097 3394 1784 3394 
Q 2450 3394 2872 2941 
Q 3294 2488 3294 1666 
Q 3294 1616 3291 1516 
L 816 1516 
Q 847 969 1125 678 
Q 1403 388 1819 388 
Q 2128 388 2347 550 
Q 2566 713 2694 1069 
z
M 847 1978 
L 2700 1978 
Q 2663 2397 2488 2606 
Q 2219 2931 1791 2931 
Q 1403 2931 1139 2672 
Q 875 2413 847 1978 
z
" transform="scale(0.015625)"/>
      </defs>
      <use xlink:href="#ArialMT-49"/>
      <use xlink:href="#ArialMT-6e" x="27.783203"/>
      <use xlink:href="#ArialMT-70" x="83.398438"/>
      <use xlink:href="#ArialMT-75" x="139.013672"/>
      <use xlink:href="#ArialMT-74" x="194.628906"/>
      <use xlink:href="#ArialMT-20" x="222.412109"/>
      <use xlink:href="#ArialMT-53" x="250.195312"/>
      <use xlink:href="#ArialMT-69" x="316.894531"/>
      <use xlink:href="#ArialMT-7a" x="339.111328"/>
      <use xlink:href="#ArialMT-65" x="389.111328"/>
     </g>
    </g>
   </g>
   <g id="matplotlib.axis_2">
    <g id="ytick_1">
     <g id="line2d_7">
      <path d="M 59.485313 293.277273 
L 454.405312 293.277273 
" clip-path="url(#pc7fe10f0b3)" style="fill: none; stroke: #cccccc; stroke-linecap: round"/>
     </g>
     <g id="text_8">
      <!-- 0.000 -->
      <g style="fill: #262626" transform="translate(22.46125 297.21407) scale(0.11 -0.11)">
       <defs>
        <path id="ArialMT-2e" d="M 581 0 
L 581 641 
L 1222 641 
L 1222 0 
L 581 0 
z
" transform="scale(0.015625)"/>
       </defs>
       <use xlink:href="#ArialMT-30"/>
       <use xlink:href="#ArialMT-2e" x="55.615234"/>
       <use xlink:href="#ArialMT-30" x="83.398438"/>
       <use xlink:href="#ArialMT-30" x="139.013672"/>
       <use xlink:href="#ArialMT-30" x="194.628906"/>
      </g>
     </g>
    </g>
    <g id="ytick_2">
     <g id="line2d_8">
      <path d="M 59.485313 239.061163 
L 454.405312 239.061163 
" clip-path="url(#pc7fe10f0b3)" style="fill: none; stroke: #cccccc; stroke-linecap: round"/>
     </g>
     <g id="text_9">
      <!-- 0.001 -->
      <g style="fill: #262626" transform="translate(22.46125 242.99796) scale(0.11 -0.11)">
       <use xlink:href="#ArialMT-30"/>
       <use xlink:href="#ArialMT-2e" x="55.615234"/>
       <use xlink:href="#ArialMT-30" x="83.398438"/>
       <use xlink:href="#ArialMT-30" x="139.013672"/>
       <use xlink:href="#ArialMT-31" x="194.628906"/>
      </g>
     </g>
    </g>
    <g id="ytick_3">
     <g id="line2d_9">
      <path d="M 59.485313 184.845054 
L 454.405312 184.845054 
" clip-path="url(#pc7fe10f0b3)" style="fill: none; stroke: #cccccc; stroke-linecap: round"/>
     </g>
     <g id="text_10">
      <!-- 0.002 -->
      <g style="fill: #262626" transform="translate(22.46125 188.78185) scale(0.11 -0.11)">
       <use xlink:href="#ArialMT-30"/>
       <use xlink:href="#ArialMT-2e" x="55.615234"/>
       <use xlink:href="#ArialMT-30" x="83.398438"/>
       <use xlink:href="#ArialMT-30" x="139.013672"/>
       <use xlink:href="#ArialMT-32" x="194.628906"/>
      </g>
     </g>
    </g>
    <g id="ytick_4">
     <g id="line2d_10">
      <path d="M 59.485313 130.628944 
L 454.405312 130.628944 
" clip-path="url(#pc7fe10f0b3)" style="fill: none; stroke: #cccccc; stroke-linecap: round"/>
     </g>
     <g id="text_11">
      <!-- 0.003 -->
      <g style="fill: #262626" transform="translate(22.46125 134.565741) scale(0.11 -0.11)">
       <defs>
        <path id="ArialMT-33" d="M 269 1209 
L 831 1284 
Q 928 806 1161 595 
Q 1394 384 1728 384 
Q 2125 384 2398 659 
Q 2672 934 2672 1341 
Q 2672 1728 2419 1979 
Q 2166 2231 1775 2231 
Q 1616 2231 1378 2169 
L 1441 2663 
Q 1497 2656 1531 2656 
Q 1891 2656 2178 2843 
Q 2466 3031 2466 3422 
Q 2466 3731 2256 3934 
Q 2047 4138 1716 4138 
Q 1388 4138 1169 3931 
Q 950 3725 888 3313 
L 325 3413 
Q 428 3978 793 4289 
Q 1159 4600 1703 4600 
Q 2078 4600 2393 4439 
Q 2709 4278 2876 4000 
Q 3044 3722 3044 3409 
Q 3044 3113 2884 2869 
Q 2725 2625 2413 2481 
Q 2819 2388 3044 2092 
Q 3269 1797 3269 1353 
Q 3269 753 2831 336 
Q 2394 -81 1725 -81 
Q 1122 -81 723 278 
Q 325 638 269 1209 
z
" transform="scale(0.015625)"/>
       </defs>
       <use xlink:href="#ArialMT-30"/>
       <use xlink:href="#ArialMT-2e" x="55.615234"/>
       <use xlink:href="#ArialMT-30" x="83.398438"/>
       <use xlink:href="#ArialMT-30" x="139.013672"/>
       <use xlink:href="#ArialMT-33" x="194.628906"/>
      </g>
     </g>
    </g>
    <g id="ytick_5">
     <g id="line2d_11">
      <path d="M 59.485313 76.412834 
L 454.405312 76.412834 
" clip-path="url(#pc7fe10f0b3)" style="fill: none; stroke: #cccccc; stroke-linecap: round"/>
     </g>
     <g id="text_12">
      <!-- 0.004 -->
      <g style="fill: #262626" transform="translate(22.46125 80.349631) scale(0.11 -0.11)">
       <use xlink:href="#ArialMT-30"/>
       <use xlink:href="#ArialMT-2e" x="55.615234"/>
       <use xlink:href="#ArialMT-30" x="83.398438"/>
       <use xlink:href="#ArialMT-30" x="139.013672"/>
       <use xlink:href="#ArialMT-34" x="194.628906"/>
      </g>
     </g>
    </g>
    <g id="ytick_6">
     <g id="line2d_12">
      <path d="M 59.485313 22.196725 
L 454.405312 22.196725 
" clip-path="url(#pc7fe10f0b3)" style="fill: none; stroke: #cccccc; stroke-linecap: round"/>
     </g>
     <g id="text_13">
      <!-- 0.005 -->
      <g style="fill: #262626" transform="translate(22.46125 26.133522) scale(0.11 -0.11)">
       <defs>
        <path id="ArialMT-35" d="M 266 1200 
L 856 1250 
Q 922 819 1161 601 
Q 1400 384 1738 384 
Q 2144 384 2425 690 
Q 2706 997 2706 1503 
Q 2706 1984 2436 2262 
Q 2166 2541 1728 2541 
Q 1456 2541 1237 2417 
Q 1019 2294 894 2097 
L 366 2166 
L 809 4519 
L 3088 4519 
L 3088 3981 
L 1259 3981 
L 1013 2750 
Q 1425 3038 1878 3038 
Q 2478 3038 2890 2622 
Q 3303 2206 3303 1553 
Q 3303 931 2941 478 
Q 2500 -78 1738 -78 
Q 1113 -78 717 272 
Q 322 622 266 1200 
z
" transform="scale(0.015625)"/>
       </defs>
       <use xlink:href="#ArialMT-30"/>
       <use xlink:href="#ArialMT-2e" x="55.615234"/>
       <use xlink:href="#ArialMT-30" x="83.398438"/>
       <use xlink:href="#ArialMT-30" x="139.013672"/>
       <use xlink:href="#ArialMT-35" x="194.628906"/>
      </g>
     </g>
    </g>
    <g id="text_14">
     <!-- Execution Time (ms) -->
     <g style="fill: #262626" transform="translate(15.935625 211.727812) rotate(-90) scale(0.12 -0.12)">
      <defs>
       <path id="ArialMT-45" d="M 506 0 
L 506 4581 
L 3819 4581 
L 3819 4041 
L 1113 4041 
L 1113 2638 
L 3647 2638 
L 3647 2100 
L 1113 2100 
L 1113 541 
L 3925 541 
L 3925 0 
L 506 0 
z
" transform="scale(0.015625)"/>
       <path id="ArialMT-78" d="M 47 0 
L 1259 1725 
L 138 3319 
L 841 3319 
L 1350 2541 
Q 1494 2319 1581 2169 
Q 1719 2375 1834 2534 
L 2394 3319 
L 3066 3319 
L 1919 1756 
L 3153 0 
L 2463 0 
L 1781 1031 
L 1600 1309 
L 728 0 
L 47 0 
z
" transform="scale(0.015625)"/>
       <path id="ArialMT-63" d="M 2588 1216 
L 3141 1144 
Q 3050 572 2676 248 
Q 2303 -75 1759 -75 
Q 1078 -75 664 370 
Q 250 816 250 1647 
Q 250 2184 428 2587 
Q 606 2991 970 3192 
Q 1334 3394 1763 3394 
Q 2303 3394 2647 3120 
Q 2991 2847 3088 2344 
L 2541 2259 
Q 2463 2594 2264 2762 
Q 2066 2931 1784 2931 
Q 1359 2931 1093 2626 
Q 828 2322 828 1663 
Q 828 994 1084 691 
Q 1341 388 1753 388 
Q 2084 388 2306 591 
Q 2528 794 2588 1216 
z
" transform="scale(0.015625)"/>
       <path id="ArialMT-6f" d="M 213 1659 
Q 213 2581 725 3025 
Q 1153 3394 1769 3394 
Q 2453 3394 2887 2945 
Q 3322 2497 3322 1706 
Q 3322 1066 3130 698 
Q 2938 331 2570 128 
Q 2203 -75 1769 -75 
Q 1072 -75 642 372 
Q 213 819 213 1659 
z
M 791 1659 
Q 791 1022 1069 705 
Q 1347 388 1769 388 
Q 2188 388 2466 706 
Q 2744 1025 2744 1678 
Q 2744 2294 2464 2611 
Q 2184 2928 1769 2928 
Q 1347 2928 1069 2612 
Q 791 2297 791 1659 
z
" transform="scale(0.015625)"/>
       <path id="ArialMT-54" d="M 1659 0 
L 1659 4041 
L 150 4041 
L 150 4581 
L 3781 4581 
L 3781 4041 
L 2266 4041 
L 2266 0 
L 1659 0 
z
" transform="scale(0.015625)"/>
       <path id="ArialMT-6d" d="M 422 0 
L 422 3319 
L 925 3319 
L 925 2853 
Q 1081 3097 1340 3245 
Q 1600 3394 1931 3394 
Q 2300 3394 2536 3241 
Q 2772 3088 2869 2813 
Q 3263 3394 3894 3394 
Q 4388 3394 4653 3120 
Q 4919 2847 4919 2278 
L 4919 0 
L 4359 0 
L 4359 2091 
Q 4359 2428 4304 2576 
Q 4250 2725 4106 2815 
Q 3963 2906 3769 2906 
Q 3419 2906 3187 2673 
Q 2956 2441 2956 1928 
L 2956 0 
L 2394 0 
L 2394 2156 
Q 2394 2531 2256 2718 
Q 2119 2906 1806 2906 
Q 1569 2906 1367 2781 
Q 1166 2656 1075 2415 
Q 984 2175 984 1722 
L 984 0 
L 422 0 
z
" transform="scale(0.015625)"/>
       <path id="ArialMT-28" d="M 1497 -1347 
Q 1031 -759 709 28 
Q 388 816 388 1659 
Q 388 2403 628 3084 
Q 909 3875 1497 4659 
L 1900 4659 
Q 1522 4009 1400 3731 
Q 1209 3300 1100 2831 
Q 966 2247 966 1656 
Q 966 153 1900 -1347 
L 1497 -1347 
z
" transform="scale(0.015625)"/>
       <path id="ArialMT-73" d="M 197 991 
L 753 1078 
Q 800 744 1014 566 
Q 1228 388 1613 388 
Q 2000 388 2187 545 
Q 2375 703 2375 916 
Q 2375 1106 2209 1216 
Q 2094 1291 1634 1406 
Q 1016 1563 777 1677 
Q 538 1791 414 1992 
Q 291 2194 291 2438 
Q 291 2659 392 2848 
Q 494 3038 669 3163 
Q 800 3259 1026 3326 
Q 1253 3394 1513 3394 
Q 1903 3394 2198 3281 
Q 2494 3169 2634 2976 
Q 2775 2784 2828 2463 
L 2278 2388 
Q 2241 2644 2061 2787 
Q 1881 2931 1553 2931 
Q 1166 2931 1000 2803 
Q 834 2675 834 2503 
Q 834 2394 903 2306 
Q 972 2216 1119 2156 
Q 1203 2125 1616 2013 
Q 2213 1853 2448 1751 
Q 2684 1650 2818 1456 
Q 2953 1263 2953 975 
Q 2953 694 2789 445 
Q 2625 197 2315 61 
Q 2006 -75 1616 -75 
Q 969 -75 630 194 
Q 291 463 197 991 
z
" transform="scale(0.015625)"/>
       <path id="ArialMT-29" d="M 791 -1347 
L 388 -1347 
Q 1322 153 1322 1656 
Q 1322 2244 1188 2822 
Q 1081 3291 891 3722 
Q 769 4003 388 4659 
L 791 4659 
Q 1378 3875 1659 3084 
Q 1900 2403 1900 1659 
Q 1900 816 1576 28 
Q 1253 -759 791 -1347 
z
" transform="scale(0.015625)"/>
      </defs>
      <use xlink:href="#ArialMT-45"/>
      <use xlink:href="#ArialMT-78" x="66.699219"/>
      <use xlink:href="#ArialMT-65" x="116.699219"/>
      <use xlink:href="#ArialMT-63" x="172.314453"/>
      <use xlink:href="#ArialMT-75" x="222.314453"/>
      <use xlink:href="#ArialMT-74" x="277.929688"/>
      <use xlink:href="#ArialMT-69" x="305.712891"/>
      <use xlink:href="#ArialMT-6f" x="327.929688"/>
      <use xlink:href="#ArialMT-6e" x="383.544922"/>
      <use xlink:href="#ArialMT-20" x="439.160156"/>
      <use xlink:href="#ArialMT-54" x="465.193359"/>
      <use xlink:href="#ArialMT-69" x="522.527344"/>
      <use xlink:href="#ArialMT-6d" x="544.744141"/>
      <use xlink:href="#ArialMT-65" x="628.044922"/>
      <use xlink:href="#ArialMT-20" x="683.660156"/>
      <use xlink:href="#ArialMT-28" x="711.443359"/>
      <use xlink:href="#ArialMT-6d" x="744.744141"/>
      <use xlink:href="#ArialMT-73" x="828.044922"/>
      <use xlink:href="#ArialMT-29" x="878.044922"/>
     </g>
    </g>
   </g>
   <g id="PolyCollection_1"/>
   <g id="line2d_13">
    <path d="M 77.436222 236.350358 
L 77.795599 228.217941 
L 78.154977 222.79633 
L 78.514354 222.79633 
L 78.873732 217.374719 
L 79.233109 217.374719 
L 79.592487 222.79633 
L 79.951865 217.374719 
L 80.311242 217.374719 
L 80.67062 211.953108 
L 81.029997 217.374719 
L 81.748752 211.953108 
L 82.467507 217.374719 
L 83.54564 217.374719 
L 83.905018 228.217941 
L 84.264395 217.374719 
L 84.623773 211.953108 
L 85.342528 222.79633 
L 85.701905 217.374719 
L 87.498793 217.374719 
L 87.858171 211.953108 
L 88.217548 217.374719 
L 88.936303 217.374719 
L 89.655059 211.953108 
L 90.014436 217.374719 
L 90.373814 217.374719 
L 90.733191 214.663914 
L 91.092569 222.79633 
L 91.451946 214.663914 
L 91.811324 217.374719 
L 92.170702 211.953108 
L 92.530079 217.374719 
L 92.889457 217.374719 
L 93.248834 211.953108 
L 96.123855 211.953108 
L 96.483232 222.79633 
L 96.84261 211.953108 
L 97.201987 217.374719 
L 97.561365 211.953108 
L 99.71763 211.953108 
L 100.436385 206.531497 
L 100.795763 211.953108 
L 101.155141 211.953108 
L 101.514518 222.79633 
L 101.873896 211.953108 
L 102.233273 214.663914 
L 102.592651 211.953108 
L 102.952028 206.531497 
L 103.311406 206.531497 
L 103.670783 211.953108 
L 104.030161 206.531497 
L 105.108294 206.531497 
L 105.467671 211.953108 
L 105.827049 209.242303 
L 106.186426 211.953108 
L 106.545804 201.109886 
L 106.905181 211.953108 
L 107.264559 206.531497 
L 107.623937 206.531497 
L 107.983314 217.374719 
L 108.342692 206.531497 
L 108.702069 211.953108 
L 109.061447 201.109886 
L 109.420824 209.242303 
L 109.780202 206.531497 
L 110.139579 201.109886 
L 110.498957 206.531497 
L 111.217712 206.531497 
L 111.57709 211.953108 
L 111.936467 211.953108 
L 112.295845 206.531497 
L 114.092733 206.531497 
L 114.45211 217.374719 
L 114.811488 206.531497 
L 115.88962 206.531497 
L 116.248998 201.109886 
L 116.608376 206.531497 
L 117.327131 201.109886 
L 117.686508 201.109886 
L 118.045886 206.531497 
L 118.405263 203.820692 
L 118.764641 203.820692 
L 119.124018 195.688275 
L 119.483396 201.109886 
L 120.202151 201.109886 
L 120.561529 206.531497 
L 120.920906 201.109886 
L 122.717794 201.109886 
L 123.077172 206.531497 
L 123.436549 201.109886 
L 124.874059 201.109886 
L 125.233437 195.688275 
L 125.592815 201.109886 
L 125.952192 198.399081 
L 126.31157 201.109886 
L 126.670947 195.688275 
L 128.108457 195.688275 
L 128.467835 190.266664 
L 128.827213 198.399081 
L 129.18659 195.688275 
L 129.545968 195.688275 
L 129.905345 206.531497 
L 130.6241 195.688275 
L 130.983478 201.109886 
L 131.342855 195.688275 
L 134.936631 195.688275 
L 135.296009 190.266664 
L 135.655386 195.688275 
L 136.014764 195.688275 
L 136.374141 190.266664 
L 136.733519 195.688275 
L 137.092896 190.266664 
L 137.811652 195.688275 
L 138.171029 190.266664 
L 138.530407 195.688275 
L 138.889784 190.266664 
L 139.249162 190.266664 
L 139.608539 195.688275 
L 139.967917 190.266664 
L 140.327294 192.97747 
L 140.686672 190.266664 
L 141.04605 195.688275 
L 141.405427 190.266664 
L 142.124182 195.688275 
L 142.48356 195.688275 
L 142.842937 190.266664 
L 143.561693 190.266664 
L 143.92107 195.688275 
L 144.280448 190.266664 
L 144.639825 195.688275 
L 144.999203 195.688275 
L 145.35858 190.266664 
L 145.717958 195.688275 
L 146.077335 195.688275 
L 146.436713 190.266664 
L 147.874223 190.266664 
L 148.233601 184.845054 
L 148.592978 184.845054 
L 148.952356 190.266664 
L 149.671111 190.266664 
L 150.030489 206.531497 
L 150.389866 190.266664 
L 150.749244 190.266664 
L 151.108621 184.845054 
L 152.186754 184.845054 
L 152.546132 190.266664 
L 152.905509 184.845054 
L 153.264887 184.845054 
L 153.624264 190.266664 
L 153.983642 184.845054 
L 154.343019 184.845054 
L 154.702397 190.266664 
L 155.061774 184.845054 
L 158.65555 184.845054 
L 159.014928 187.555859 
L 159.374305 184.845054 
L 159.733683 179.423443 
L 160.09306 184.845054 
L 161.53057 184.845054 
L 161.889948 179.423443 
L 162.608703 184.845054 
L 163.327458 184.845054 
L 163.686836 179.423443 
L 164.046213 184.845054 
L 164.405591 179.423443 
L 164.764969 184.845054 
L 165.124346 179.423443 
L 165.483724 184.845054 
L 166.202479 184.845054 
L 166.561856 179.423443 
L 167.280611 179.423443 
L 167.639989 184.845054 
L 167.999367 179.423443 
L 169.796254 179.423443 
L 170.515009 184.845054 
L 170.874387 179.423443 
L 172.311897 179.423443 
L 172.671275 176.712637 
L 173.030652 179.423443 
L 174.468163 179.423443 
L 174.82754 182.134248 
L 175.186918 179.423443 
L 175.546295 179.423443 
L 175.905673 174.001832 
L 176.624428 174.001832 
L 176.983806 179.423443 
L 177.343183 179.423443 
L 177.702561 174.001832 
L 178.061938 179.423443 
L 178.421316 179.423443 
L 178.780693 174.001832 
L 179.140071 174.001832 
L 179.858826 179.423443 
L 180.577581 179.423443 
L 180.936959 174.001832 
L 181.296336 174.001832 
L 181.655714 176.712637 
L 182.015091 174.001832 
L 182.374469 179.423443 
L 182.733846 176.712637 
L 183.093224 171.291026 
L 183.452602 174.001832 
L 184.890112 174.001832 
L 185.249489 168.580221 
L 185.608867 174.001832 
L 185.968245 174.001832 
L 186.327622 168.580221 
L 187.046377 168.580221 
L 187.405755 174.001832 
L 187.765132 174.001832 
L 188.12451 168.580221 
L 188.483887 174.001832 
L 188.843265 168.580221 
L 189.202643 174.001832 
L 189.56202 174.001832 
L 189.921398 168.580221 
L 190.280775 168.580221 
L 190.640153 174.001832 
L 191.358908 163.15861 
L 191.718285 163.15861 
L 192.077663 168.580221 
L 192.437041 163.15861 
L 192.796418 174.001832 
L 193.155796 163.15861 
L 193.515173 174.001832 
L 194.233928 168.580221 
L 195.312061 168.580221 
L 195.671439 174.001832 
L 196.030816 168.580221 
L 197.827704 168.580221 
L 198.187082 163.15861 
L 198.546459 168.580221 
L 199.983969 168.580221 
L 200.702724 163.15861 
L 201.062102 165.869415 
L 201.42148 165.869415 
L 201.780857 163.15861 
L 202.140235 168.580221 
L 202.499612 163.15861 
L 202.85899 168.580221 
L 203.218367 182.134248 
L 203.937122 163.15861 
L 204.655878 163.15861 
L 205.015255 168.580221 
L 205.374633 163.15861 
L 206.452765 163.15861 
L 206.812143 160.447804 
L 207.171521 163.15861 
L 208.249653 163.15861 
L 208.609031 168.580221 
L 209.327786 157.736999 
L 209.687163 163.15861 
L 210.046541 163.15861 
L 210.405919 165.869415 
L 210.765296 163.15861 
L 211.484051 163.15861 
L 211.843429 168.580221 
L 212.202806 163.15861 
L 213.280939 163.15861 
L 213.640317 157.736999 
L 213.999694 157.736999 
L 214.359072 163.15861 
L 214.718449 163.15861 
L 215.077827 157.736999 
L 215.437204 157.736999 
L 215.796582 163.15861 
L 216.15596 157.736999 
L 216.515337 160.447804 
L 216.874715 160.447804 
L 217.234092 163.15861 
L 217.59347 163.15861 
L 217.952847 157.736999 
L 220.827868 157.736999 
L 221.546623 152.315388 
L 221.906 157.736999 
L 222.624756 157.736999 
L 222.984133 152.315388 
L 223.343511 157.736999 
L 223.702888 155.026193 
L 224.062266 157.736999 
L 224.421643 163.15861 
L 224.781021 157.736999 
L 225.140398 163.15861 
L 225.499776 157.736999 
L 225.859154 163.15861 
L 226.218531 157.736999 
L 226.577909 157.736999 
L 226.937286 152.315388 
L 227.296664 152.315388 
L 227.656041 157.736999 
L 228.015419 157.736999 
L 228.374797 152.315388 
L 228.734174 152.315388 
L 229.093552 157.736999 
L 229.452929 152.315388 
L 230.890439 152.315388 
L 231.249817 155.026193 
L 231.609195 152.315388 
L 231.968572 152.315388 
L 232.32795 149.604582 
L 232.687327 155.026193 
L 233.046705 152.315388 
L 233.76546 152.315388 
L 234.124837 146.893777 
L 234.484215 152.315388 
L 234.843593 152.315388 
L 235.20297 146.893777 
L 235.562348 152.315388 
L 236.281103 152.315388 
L 236.64048 157.736999 
L 236.999858 144.182971 
L 237.359236 152.315388 
L 237.718613 146.893777 
L 238.437368 146.893777 
L 238.796746 152.315388 
L 239.156123 146.893777 
L 239.515501 149.604582 
L 240.234256 144.182971 
L 240.593634 146.893777 
L 241.312389 146.893777 
L 241.671766 152.315388 
L 242.031144 149.604582 
L 242.390521 160.447804 
L 242.749899 141.472166 
L 243.468654 152.315388 
L 243.828032 152.315388 
L 244.187409 144.182971 
L 244.546787 144.182971 
L 244.906164 146.893777 
L 245.265542 141.472166 
L 245.624919 146.893777 
L 245.984297 141.472166 
L 246.343674 152.315388 
L 246.703052 141.472166 
L 247.06243 146.893777 
L 247.421807 138.76136 
L 247.781185 144.182971 
L 248.140562 141.472166 
L 248.859317 141.472166 
L 249.218695 136.050555 
L 249.578073 144.182971 
L 249.93745 141.472166 
L 250.296828 141.472166 
L 250.656205 146.893777 
L 251.015583 136.050555 
L 251.37496 141.472166 
L 252.812471 141.472166 
L 253.171848 146.893777 
L 253.531226 141.472166 
L 254.249981 141.472166 
L 254.609358 138.76136 
L 254.968736 141.472166 
L 255.328113 146.893777 
L 255.687491 141.472166 
L 257.843756 141.472166 
L 258.203134 136.050555 
L 258.562512 163.15861 
L 258.921889 141.472166 
L 259.281267 136.050555 
L 259.640644 136.050555 
L 260.000022 141.472166 
L 260.359399 136.050555 
L 260.718777 141.472166 
L 261.79691 141.472166 
L 262.515665 136.050555 
L 263.23442 136.050555 
L 263.593797 138.76136 
L 263.953175 136.050555 
L 264.312552 144.182971 
L 264.67193 136.050555 
L 265.031308 141.472166 
L 265.390685 136.050555 
L 266.468818 136.050555 
L 266.828195 146.893777 
L 267.187573 136.050555 
L 267.546951 136.050555 
L 267.906328 141.472166 
L 268.265706 149.604582 
L 268.625083 136.050555 
L 268.984461 136.050555 
L 269.343838 130.628944 
L 270.062593 141.472166 
L 270.421971 133.339749 
L 270.781349 133.339749 
L 271.140726 136.050555 
L 271.500104 136.050555 
L 271.859481 141.472166 
L 272.218859 136.050555 
L 272.578236 136.050555 
L 272.937614 141.472166 
L 273.296991 136.050555 
L 274.015747 136.050555 
L 274.734502 125.207333 
L 275.093879 136.050555 
L 275.453257 136.050555 
L 275.812634 130.628944 
L 276.172012 130.628944 
L 276.890767 136.050555 
L 277.250145 133.339749 
L 277.9689 133.339749 
L 278.328277 130.628944 
L 279.40641 130.628944 
L 279.765788 136.050555 
L 280.125165 125.207333 
L 280.484543 130.628944 
L 280.84392 130.628944 
L 281.203298 136.050555 
L 281.562675 127.918138 
L 281.922053 125.207333 
L 282.640808 136.050555 
L 283.000186 127.918138 
L 283.359563 130.628944 
L 284.078318 130.628944 
L 284.437696 125.207333 
L 284.797073 130.628944 
L 285.156451 125.207333 
L 285.515828 130.628944 
L 285.875206 125.207333 
L 286.234584 127.918138 
L 286.593961 125.207333 
L 286.953339 130.628944 
L 287.312716 130.628944 
L 287.672094 125.207333 
L 288.031471 130.628944 
L 288.750227 119.785722 
L 289.109604 125.207333 
L 289.828359 125.207333 
L 290.187737 130.628944 
L 290.906492 125.207333 
L 291.984625 125.207333 
L 292.344002 117.074916 
L 292.70338 122.496527 
L 293.062757 122.496527 
L 293.422135 119.785722 
L 293.781512 127.918138 
L 294.14089 125.207333 
L 294.500267 125.207333 
L 294.859645 119.785722 
L 295.219023 119.785722 
L 295.5784 130.628944 
L 296.297155 125.207333 
L 297.01591 125.207333 
L 298.094043 117.074916 
L 298.453421 125.207333 
L 298.812798 119.785722 
L 299.172176 125.207333 
L 299.531553 119.785722 
L 299.890931 125.207333 
L 300.609686 125.207333 
L 300.969064 119.785722 
L 301.328441 119.785722 
L 301.687819 114.364111 
L 302.047196 119.785722 
L 302.406574 122.496527 
L 302.765951 119.785722 
L 303.125329 119.785722 
L 303.484706 125.207333 
L 303.844084 119.785722 
L 304.562839 119.785722 
L 304.922217 125.207333 
L 305.281594 119.785722 
L 306.000349 119.785722 
L 306.359727 122.496527 
L 306.719104 122.496527 
L 307.078482 117.074916 
L 307.43786 114.364111 
L 307.797237 119.785722 
L 308.515992 119.785722 
L 308.87537 114.364111 
L 309.234747 117.074916 
L 309.594125 114.364111 
L 311.031635 114.364111 
L 311.391013 119.785722 
L 312.109768 114.364111 
L 312.469145 119.785722 
L 313.187901 119.785722 
L 313.547278 114.364111 
L 313.906656 114.364111 
L 314.266033 130.628944 
L 314.625411 114.364111 
L 316.062921 114.364111 
L 316.422299 117.074916 
L 316.781676 103.520889 
L 317.859809 111.653306 
L 318.219186 119.785722 
L 318.578564 119.785722 
L 318.937941 114.364111 
L 320.016074 114.364111 
L 320.375452 108.9425 
L 320.734829 108.9425 
L 321.094207 114.364111 
L 323.250472 114.364111 
L 323.60985 108.9425 
L 324.328605 108.9425 
L 324.687982 111.653306 
L 325.406738 111.653306 
L 325.766115 114.364111 
L 326.125493 114.364111 
L 326.48487 103.520889 
L 326.844248 108.9425 
L 327.203625 111.653306 
L 327.92238 106.231695 
L 328.281758 108.9425 
L 330.797401 108.9425 
L 331.156779 111.653306 
L 331.516156 103.520889 
L 331.875534 108.9425 
L 332.234911 103.520889 
L 332.594289 108.9425 
L 332.953666 117.074916 
L 333.313044 106.231695 
L 333.672421 108.9425 
L 334.031799 103.520889 
L 334.391177 103.520889 
L 334.750554 106.231695 
L 335.109932 114.364111 
L 335.469309 114.364111 
L 335.828687 100.810084 
L 336.188064 108.9425 
L 336.906819 103.520889 
L 337.266197 103.520889 
L 337.984952 108.9425 
L 338.34433 103.520889 
L 338.703707 108.9425 
L 339.063085 103.520889 
L 339.78184 103.520889 
L 340.141217 106.231695 
L 340.500595 98.099278 
L 340.859973 103.520889 
L 341.21935 103.520889 
L 341.578728 108.9425 
L 342.297483 98.099278 
L 342.65686 103.520889 
L 343.016238 103.520889 
L 343.375616 108.9425 
L 343.734993 98.099278 
L 344.094371 122.496527 
L 344.453748 108.9425 
L 344.813126 103.520889 
L 345.172503 108.9425 
L 345.531881 103.520889 
L 345.891258 106.231695 
L 346.250636 103.520889 
L 346.610014 98.099278 
L 346.969391 98.099278 
L 347.328769 114.364111 
L 347.688146 103.520889 
L 348.047524 98.099278 
L 348.406901 95.388473 
L 348.766279 98.099278 
L 349.125656 125.207333 
L 349.485034 100.810084 
L 349.844412 100.810084 
L 350.203789 95.388473 
L 350.563167 100.810084 
L 350.922544 95.388473 
L 351.281922 92.677667 
L 351.641299 98.099278 
L 352.000677 125.207333 
L 352.719432 125.207333 
L 353.07881 98.099278 
L 353.438187 125.207333 
L 353.797565 92.677667 
L 354.156942 95.388473 
L 354.51632 95.388473 
L 354.875697 98.099278 
L 355.235075 92.677667 
L 355.594453 98.099278 
L 355.95383 95.388473 
L 356.313208 98.099278 
L 357.031963 92.677667 
L 357.39134 98.099278 
L 357.750718 100.810084 
L 358.110095 92.677667 
L 358.469473 98.099278 
L 358.828851 92.677667 
L 359.188228 98.099278 
L 359.906983 92.677667 
L 360.266361 98.099278 
L 360.985116 87.256056 
L 361.703871 92.677667 
L 362.422626 92.677667 
L 362.782004 87.256056 
L 363.141381 98.099278 
L 363.500759 89.966862 
L 363.860136 89.966862 
L 364.219514 98.099278 
L 364.578892 92.677667 
L 364.938269 98.099278 
L 365.297647 92.677667 
L 366.016402 92.677667 
L 366.375779 87.256056 
L 366.735157 87.256056 
L 367.094534 89.966862 
L 367.453912 87.256056 
L 367.81329 87.256056 
L 368.172667 89.966862 
L 368.532045 95.388473 
L 368.891422 87.256056 
L 369.2508 98.099278 
L 369.610177 87.256056 
L 369.969555 87.256056 
L 370.328932 92.677667 
L 370.68831 87.256056 
L 371.047688 87.256056 
L 371.407065 92.677667 
L 371.766443 92.677667 
L 372.12582 87.256056 
L 372.485198 100.810084 
L 372.844575 92.677667 
L 373.203953 87.256056 
L 373.563331 92.677667 
L 373.922708 87.256056 
L 374.282086 95.388473 
L 375.000841 89.966862 
L 375.360218 81.834445 
L 375.719596 92.677667 
L 376.078973 81.834445 
L 376.438351 87.256056 
L 376.797729 87.256056 
L 377.157106 84.545251 
L 377.516484 87.256056 
L 378.235239 76.412834 
L 378.594616 73.702029 
L 378.953994 81.834445 
L 379.313371 87.256056 
L 380.750882 87.256056 
L 381.110259 81.834445 
L 381.469637 84.545251 
L 381.829014 81.834445 
L 382.188392 87.256056 
L 382.907147 87.256056 
L 383.266525 81.834445 
L 383.625902 81.834445 
L 383.98528 79.12364 
L 384.344657 87.256056 
L 384.704035 79.12364 
L 385.063412 81.834445 
L 385.42279 87.256056 
L 385.782168 81.834445 
L 386.141545 84.545251 
L 386.500923 81.834445 
L 387.219678 87.256056 
L 387.579055 81.834445 
L 387.938433 87.256056 
L 389.375943 87.256056 
L 389.735321 79.12364 
L 390.094698 76.412834 
L 390.454076 81.834445 
L 390.813453 81.834445 
L 391.172831 76.412834 
L 391.532208 79.12364 
L 391.891586 76.412834 
L 392.250964 76.412834 
L 392.610341 81.834445 
L 393.329096 76.412834 
L 393.688474 81.834445 
L 394.047851 81.834445 
L 394.407229 76.412834 
L 394.766607 108.9425 
L 395.125984 81.834445 
L 395.485362 81.834445 
L 395.844739 76.412834 
L 396.204117 76.412834 
L 396.563494 79.12364 
L 397.282249 73.702029 
L 397.641627 87.256056 
L 398.001005 76.412834 
L 398.71976 76.412834 
L 399.079137 73.702029 
L 399.438515 76.412834 
L 399.797892 76.412834 
L 400.15727 79.12364 
L 400.516647 73.702029 
L 400.876025 65.569612 
L 401.235403 76.412834 
L 401.59478 68.280418 
L 401.954158 70.991223 
L 402.313535 108.9425 
L 402.672913 98.099278 
L 403.03229 76.412834 
L 403.391668 79.12364 
L 403.751046 79.12364 
L 404.469801 73.702029 
L 404.829178 73.702029 
L 405.188556 76.412834 
L 405.547933 73.702029 
L 405.907311 76.412834 
L 406.266688 70.991223 
L 406.626066 70.991223 
L 406.985444 76.412834 
L 407.704199 76.412834 
L 408.063576 70.991223 
L 408.422954 68.280418 
L 408.782331 76.412834 
L 409.141709 70.991223 
L 409.860464 70.991223 
L 410.219842 65.569612 
L 410.579219 87.256056 
L 410.938597 73.702029 
L 411.297974 76.412834 
L 411.657352 76.412834 
L 412.016729 68.280418 
L 412.376107 81.834445 
L 412.735484 70.991223 
L 414.532372 70.991223 
L 414.89175 68.280418 
L 415.251127 76.412834 
L 415.610505 70.991223 
L 415.969883 70.991223 
L 416.32926 73.702029 
L 416.688638 65.569612 
L 417.048015 70.991223 
L 418.844903 70.991223 
L 419.563658 65.569612 
L 419.923036 70.991223 
L 420.641791 65.569612 
L 421.360546 65.569612 
L 421.719923 60.148001 
L 422.079301 60.148001 
L 422.438679 76.412834 
L 422.798056 65.569612 
L 423.157434 70.991223 
L 423.516811 70.991223 
L 423.876189 65.569612 
L 424.594944 65.569612 
L 424.954322 73.702029 
L 425.313699 68.280418 
L 425.673077 70.991223 
L 426.032454 65.569612 
L 426.391832 65.569612 
L 426.751209 70.991223 
L 427.469964 70.991223 
L 427.829342 65.569612 
L 428.548097 65.569612 
L 428.907475 70.991223 
L 429.266852 60.148001 
L 429.62623 68.280418 
L 429.985607 68.280418 
L 430.344985 60.148001 
L 430.704362 65.569612 
L 431.06374 65.569612 
L 431.423118 54.72639 
L 432.141873 65.569612 
L 432.860628 60.148001 
L 433.220005 65.569612 
L 433.579383 60.148001 
L 433.93876 65.569612 
L 434.298138 65.569612 
L 435.016893 54.72639 
L 435.376271 60.148001 
L 436.095026 60.148001 
L 436.454403 52.015585 
L 436.454403 52.015585 
" clip-path="url(#pc7fe10f0b3)" style="fill: none; stroke: #4c72b0; stroke-width: 0.75; stroke-linecap: round"/>
   </g>
   <g id="line2d_14">
    <path d="M 77.436222 293.004818 
L 436.454403 20.822727 
L 436.454403 20.822727 
" clip-path="url(#pc7fe10f0b3)" style="fill: none; stroke-dasharray: 5.55,2.4; stroke-dashoffset: 0; stroke: #008000; stroke-opacity: 0.8; stroke-width: 1.5"/>
   </g>
   <g id="line2d_15">
    <path d="M 77.436222 293.277273 
L 78.873732 293.008506 
L 81.389375 292.281358 
L 84.98315 291.006056 
L 90.014436 288.968604 
L 96.123855 286.249314 
L 103.670783 282.639727 
L 112.655222 278.083594 
L 123.077172 272.534616 
L 134.577254 266.156516 
L 147.514846 258.725861 
L 161.889948 250.210708 
L 177.702561 240.582609 
L 194.952684 229.815924 
L 213.640317 217.887321 
L 233.76546 204.775387 
L 255.328113 190.460338 
L 278.328277 174.923784 
L 303.125329 157.899948 
L 329.359891 139.614013 
L 357.031963 120.051354 
L 386.141545 99.198101 
L 416.688638 77.041071 
L 436.454403 62.566514 
L 436.454403 62.566514 
" clip-path="url(#pc7fe10f0b3)" style="fill: none; stroke-dasharray: 5.55,2.4; stroke-dashoffset: 0; stroke: #ffa500; stroke-opacity: 0.8; stroke-width: 1.5"/>
   </g>
   <g id="patch_3">
    <path d="M 59.485313 306.9 
L 59.485313 7.2 
" style="fill: none; stroke: #cccccc; stroke-width: 1.25; stroke-linejoin: miter; stroke-linecap: square"/>
   </g>
   <g id="patch_4">
    <path d="M 59.485313 306.9 
L 454.405312 306.9 
" style="fill: none; stroke: #cccccc; stroke-width: 1.25; stroke-linejoin: miter; stroke-linecap: square"/>
   </g>
   <g id="legend_1">
    <g id="line2d_16">
     <path d="M 69.385313 365.759844 
L 80.385313 365.759844 
L 91.385313 365.759844 
" style="fill: none; stroke: #4c72b0; stroke-width: 0.75; stroke-linecap: round"/>
    </g>
    <g id="text_15">
     <!-- counting_sort -->
     <g style="fill: #262626" transform="translate(100.185313 369.609844) scale(0.11 -0.11)">
      <defs>
       <path id="ArialMT-67" d="M 319 -275 
L 866 -356 
Q 900 -609 1056 -725 
Q 1266 -881 1628 -881 
Q 2019 -881 2231 -725 
Q 2444 -569 2519 -288 
Q 2563 -116 2559 434 
Q 2191 0 1641 0 
Q 956 0 581 494 
Q 206 988 206 1678 
Q 206 2153 378 2554 
Q 550 2956 876 3175 
Q 1203 3394 1644 3394 
Q 2231 3394 2613 2919 
L 2613 3319 
L 3131 3319 
L 3131 450 
Q 3131 -325 2973 -648 
Q 2816 -972 2473 -1159 
Q 2131 -1347 1631 -1347 
Q 1038 -1347 672 -1080 
Q 306 -813 319 -275 
z
M 784 1719 
Q 784 1066 1043 766 
Q 1303 466 1694 466 
Q 2081 466 2343 764 
Q 2606 1063 2606 1700 
Q 2606 2309 2336 2618 
Q 2066 2928 1684 2928 
Q 1309 2928 1046 2623 
Q 784 2319 784 1719 
z
" transform="scale(0.015625)"/>
       <path id="ArialMT-5f" d="M -97 -1272 
L -97 -866 
L 3631 -866 
L 3631 -1272 
L -97 -1272 
z
" transform="scale(0.015625)"/>
       <path id="ArialMT-72" d="M 416 0 
L 416 3319 
L 922 3319 
L 922 2816 
Q 1116 3169 1280 3281 
Q 1444 3394 1641 3394 
Q 1925 3394 2219 3213 
L 2025 2691 
Q 1819 2813 1613 2813 
Q 1428 2813 1281 2702 
Q 1134 2591 1072 2394 
Q 978 2094 978 1738 
L 978 0 
L 416 0 
z
" transform="scale(0.015625)"/>
      </defs>
      <use xlink:href="#ArialMT-63"/>
      <use xlink:href="#ArialMT-6f" x="50"/>
      <use xlink:href="#ArialMT-75" x="105.615234"/>
      <use xlink:href="#ArialMT-6e" x="161.230469"/>
      <use xlink:href="#ArialMT-74" x="216.845703"/>
      <use xlink:href="#ArialMT-69" x="244.628906"/>
      <use xlink:href="#ArialMT-6e" x="266.845703"/>
      <use xlink:href="#ArialMT-67" x="322.460938"/>
      <use xlink:href="#ArialMT-5f" x="378.076172"/>
      <use xlink:href="#ArialMT-73" x="433.691406"/>
      <use xlink:href="#ArialMT-6f" x="483.691406"/>
      <use xlink:href="#ArialMT-72" x="539.306641"/>
      <use xlink:href="#ArialMT-74" x="572.607422"/>
     </g>
    </g>
    <g id="line2d_17">
     <path d="M 188.223125 365.759844 
L 199.223125 365.759844 
L 210.223125 365.759844 
" style="fill: none; stroke-dasharray: 5.55,2.4; stroke-dashoffset: 0; stroke: #008000; stroke-opacity: 0.8; stroke-width: 1.5"/>
    </g>
    <g id="text_16">
     <!-- O(n) -->
     <g style="fill: #262626" transform="translate(219.023125 369.609844) scale(0.11 -0.11)">
      <defs>
       <path id="ArialMT-4f" d="M 309 2231 
Q 309 3372 921 4017 
Q 1534 4663 2503 4663 
Q 3138 4663 3647 4359 
Q 4156 4056 4423 3514 
Q 4691 2972 4691 2284 
Q 4691 1588 4409 1038 
Q 4128 488 3612 205 
Q 3097 -78 2500 -78 
Q 1853 -78 1343 234 
Q 834 547 571 1087 
Q 309 1628 309 2231 
z
M 934 2222 
Q 934 1394 1379 917 
Q 1825 441 2497 441 
Q 3181 441 3623 922 
Q 4066 1403 4066 2288 
Q 4066 2847 3877 3264 
Q 3688 3681 3323 3911 
Q 2959 4141 2506 4141 
Q 1863 4141 1398 3698 
Q 934 3256 934 2222 
z
" transform="scale(0.015625)"/>
      </defs>
      <use xlink:href="#ArialMT-4f"/>
      <use xlink:href="#ArialMT-28" x="77.783203"/>
      <use xlink:href="#ArialMT-6e" x="111.083984"/>
      <use xlink:href="#ArialMT-29" x="166.699219"/>
     </g>
    </g>
    <g id="line2d_18">
     <path d="M 263.021406 365.759844 
L 274.021406 365.759844 
L 285.021406 365.759844 
" style="fill: none; stroke-dasharray: 5.55,2.4; stroke-dashoffset: 0; stroke: #ffa500; stroke-opacity: 0.8; stroke-width: 1.5"/>
    </g>
    <g id="text_17">
     <!-- O(n*log(n)) -->
     <g style="fill: #262626" transform="translate(293.821406 369.609844) scale(0.11 -0.11)">
      <defs>
       <path id="ArialMT-2a" d="M 200 3741 
L 344 4184 
Q 841 4009 1066 3881 
Q 1006 4447 1003 4659 
L 1456 4659 
Q 1447 4350 1384 3884 
Q 1706 4047 2122 4184 
L 2266 3741 
Q 1869 3609 1488 3566 
Q 1678 3400 2025 2975 
L 1650 2709 
Q 1469 2956 1222 3381 
Q 991 2941 816 2709 
L 447 2975 
Q 809 3422 966 3566 
Q 563 3644 200 3741 
z
" transform="scale(0.015625)"/>
       <path id="ArialMT-6c" d="M 409 0 
L 409 4581 
L 972 4581 
L 972 0 
L 409 0 
z
" transform="scale(0.015625)"/>
      </defs>
      <use xlink:href="#ArialMT-4f"/>
      <use xlink:href="#ArialMT-28" x="77.783203"/>
      <use xlink:href="#ArialMT-6e" x="111.083984"/>
      <use xlink:href="#ArialMT-2a" x="166.699219"/>
      <use xlink:href="#ArialMT-6c" x="205.615234"/>
      <use xlink:href="#ArialMT-6f" x="227.832031"/>
      <use xlink:href="#ArialMT-67" x="283.447266"/>
      <use xlink:href="#ArialMT-28" x="339.0625"/>
      <use xlink:href="#ArialMT-6e" x="372.363281"/>
      <use xlink:href="#ArialMT-29" x="427.978516"/>
      <use xlink:href="#ArialMT-29" x="461.279297"/>
     </g>
    </g>
   </g>
  </g>
 </g>
 <defs>
  <clipPath id="pc7fe10f0b3">
   <rect x="59.485313" y="7.2" width="394.92" height="299.7"/>
  </clipPath>
 </defs>
</svg>
